<svg xmlns="http://www.w3.org/2000/svg" xmlns:xlink="http://www.w3.org/1999/xlink" width="55" height="282" viewBox="0 0 55 282">
  <defs>
    <linearGradient id="linear-gradient" x1="0.5" x2="0.5" y2="1" gradientUnits="objectBoundingBox">
      <stop offset="0" stop-color="#e9a177"/>
      <stop offset="0.379" stop-color="#ddd8b6"/>
      <stop offset="0.626" stop-color="#d8d5b7"/>
      <stop offset="1" stop-color="#8ca793"/>
    </linearGradient>
  </defs>
  <g id="グループ_8579" data-name="グループ 8579" transform="translate(-0.477)">
    <rect id="長方形_23837" data-name="長方形 23837" width="55" height="282" rx="5" transform="translate(0.477)" fill="url(#linear-gradient)"/>
    <path id="長方形_23837_-_アウトライン" data-name="長方形 23837 - アウトライン" d="M5,2A3,3,0,0,0,2,5V277a3,3,0,0,0,3,3H50a3,3,0,0,0,3-3V5a3,3,0,0,0-3-3H5M5,0H50a5,5,0,0,1,5,5V277a5,5,0,0,1-5,5H5a5,5,0,0,1-5-5V5A5,5,0,0,1,5,0Z" transform="translate(0.477)" fill="#2a3454"/>
    <g id="グループ_8449" data-name="グループ 8449" transform="translate(17.158 17.158)">
      <path id="パス_6138" data-name="パス 6138" d="M17.162,22.466a19.68,19.68,0,0,1-1.894-3.209,1.852,1.852,0,0,0-.887-1.222c-.092,0-.183-.061-.183-.122,0-.122.276-.306.581-.4.519-.091.581-.153.581-.275a28.225,28.225,0,0,0-.4-3.483c-.092-.55-.184-1.132-.214-1.345a4.838,4.838,0,0,1-.825.306,3.609,3.609,0,0,1-.7.06,3.27,3.27,0,0,1-.917-.122,2.776,2.776,0,0,0-.581-.091,8.092,8.092,0,0,0-4.034.947c-.428,1.008-.733,1.925-.978,2.658-.306,1.008-.642,2.017-.764,2.293a10.352,10.352,0,0,1-1.375,2.719c-.153.214-.366.549-.55.856-.213.336-.458.672-.642.672a2.37,2.37,0,0,1-1.772-.856,2.3,2.3,0,0,1-.367-.672,1.446,1.446,0,0,1-.121-.581c0-.092.061-.153.275-.275a1.46,1.46,0,0,0,.274-.183,3.524,3.524,0,0,0,.887-.886,32.262,32.262,0,0,0,4.155-7.426c.856-1.956,2.109-4.8,2.841-6.386a7.651,7.651,0,0,0,.52-1.71c.092-.429.183-.795.306-1.223A4.269,4.269,0,0,1,11.2.863a3.492,3.492,0,0,1,1.8-.734.77.77,0,0,1,.611.215c.06.03.092.152.092.335,0,.122-.032.458-.061.7a2.672,2.672,0,0,0-.031.427,15.8,15.8,0,0,1,1.038,1.558A23.6,23.6,0,0,0,15.483,6.3c.4,1.192.856,2.689,1.068,3.7.215.917.43,1.957.612,2.935.215,1.07.458,2.261.7,3.238.122.428.368,1.131.611,1.8a5.777,5.777,0,0,1,.367,1.161,2.647,2.647,0,0,1,.031.55,19.01,19.01,0,0,1-.215,2.475c-.06.336-.275.825-.61.825a.927.927,0,0,1-.886-.519M11.51,4.438c-.336.764-.795,1.742-.978,2.078-.337.886-1.467,3.667-2.2,5.469a5.167,5.167,0,0,1,1.435-.672,2.355,2.355,0,0,0,1.223-.732.769.769,0,0,1,.367-.214.657.657,0,0,1,.306-.061,2.855,2.855,0,0,1,.672.121,21.274,21.274,0,0,1,2.231.519A56.233,56.233,0,0,0,13.007,2.39a6.833,6.833,0,0,0-.733.673,5.745,5.745,0,0,0-.764,1.374" transform="translate(-0.05 -0.129)" fill="#2a3454"/>
      <path id="パス_6139" data-name="パス 6139" d="M4.737,53.144c-.122-.244-.368-.7-.581-1.161A3.772,3.772,0,0,1,3.7,50.7a3.089,3.089,0,0,1,.183-.642,5.769,5.769,0,0,0,.183-.55,22.909,22.909,0,0,0,.4-3.361c.153-2.474.336-5.1.458-6.478.031-.549.214-3.238.3-5.163a12.415,12.415,0,0,0-2.413,1.8c-.306.306-.825.825-.978,1.007a.451.451,0,0,1-.306.093c-.611,0-1.1-1.314-1.222-2.017a2.565,2.565,0,0,0-.153-.55A.425.425,0,0,1,0,34.5c0-.244.183-.489.7-.764a1.8,1.8,0,0,1,.733-.336,2.105,2.105,0,0,0,.244-.092A24.934,24.934,0,0,1,10.236,31.2a13.72,13.72,0,0,1,5.042.581,4.207,4.207,0,0,1,3.148,3.82c0,.733-.275,1.375-.49,1.375-.03,0-.06.031-.152.153a4.843,4.843,0,0,1-.367.428,12.024,12.024,0,0,1-2.995,2.811,21.173,21.173,0,0,1-3.667,2.261c.367.61.886,1.527,1.131,1.985.336.611.611,1.131,1.008,1.895A10.44,10.44,0,0,0,15.431,49.9a3.074,3.074,0,0,0,2.017.947,4.586,4.586,0,0,0,.519-.061,11.446,11.446,0,0,0,2.475-.642,1.337,1.337,0,0,1,.275-.092,1.25,1.25,0,0,0,.274-.122l.031.03a.683.683,0,0,1-.214.215c-.306.275-.366.336-.549.519a.7.7,0,0,0-.154.182c-.03.093-.061.154-.488.551a11.416,11.416,0,0,0-1.864,1.222c-.275.182-.611.457-.795.61a1.481,1.481,0,0,1-1.131.4c-1.222,0-2.047-1.314-2.872-2.627a27.5,27.5,0,0,1-1.711-3.117c-.336-.7-.642-1.436-1.07-2.322s-.764-1.558-1.07-2.139c-.58.275-1.711.734-2.291.947,0,.122-.032.886-.061,1.314-.032.4-.061,1.283-.061,1.62,0,.4,0,.7.03,1.435.032.795.032,1.346.032,1.651a7.644,7.644,0,0,1-.122,1.619c-.032.153-.093.519-.154.887a1.852,1.852,0,0,1-.244.671c-.093.153-.183.183-.4.183a1.014,1.014,0,0,1-1.1-.641m7.211-13.628c2.17-1.8,4.034-4.309,4.034-5.317,0-.458-.367-.795-.856-1.039a8.045,8.045,0,0,0-3.086-.458,7.99,7.99,0,0,0-1.192.061,17.024,17.024,0,0,0-3.453.764c-.061.519-.092,1.314-.092,1.833,0,.184,0,.642.031,1.5a16.946,16.946,0,0,1-.092,1.711c-.122.917-.213,2.26-.306,3.88a15.135,15.135,0,0,0,5.012-2.933" transform="translate(0 -1.529)" fill="#2a3454"/>
      <path id="パス_6140" data-name="パス 6140" d="M6.021,76.938c.244-.06.489-.122.764-.182a26.991,26.991,0,0,0,4.8-1.5,12.853,12.853,0,0,1,2.321-.732,8.391,8.391,0,0,1,1.192-.154,7.174,7.174,0,0,0,.948.062h1.038a1.794,1.794,0,0,1,1.039.611.537.537,0,0,1,.153.122.358.358,0,0,1,.153.153c.275.275.581.55.733.672a2.722,2.722,0,0,1,.856,1.344c0,.122-.153.306-.367.4a2.964,2.964,0,0,0-.733.612,3.555,3.555,0,0,1-.336.366,1.494,1.494,0,0,1-.183.214l-.153.153a13.162,13.162,0,0,0-1.558,2.628,30.2,30.2,0,0,1-2.016,3.3,17.6,17.6,0,0,0-1.1,1.834,17.9,17.9,0,0,1-3.178,3.269,3.129,3.129,0,0,1-.336.275c-.122.093-.214.183-.336.275-.214.184-.428.367-.55.459a3.068,3.068,0,0,1-.489.3,1.961,1.961,0,0,0-.336.153L8.1,91.7a4.927,4.927,0,0,1-.795.459c-.031.031-.031.031-.061.031s-.031,0-.061.03a4.865,4.865,0,0,0-.917.428,6.214,6.214,0,0,1-1.345.611,7.748,7.748,0,0,0-1.314.52,1.012,1.012,0,0,1-.428.214c-.031,0-.031,0-.031-.031A12.066,12.066,0,0,1,5.41,91.727a34.735,34.735,0,0,0,7.028-7.883,48.166,48.166,0,0,0,3.391-7.089,2.918,2.918,0,0,1,.093-.367,1.051,1.051,0,0,0,.091-.367c0-.215-.153-.245-.549-.245h-.49a4.812,4.812,0,0,0-3.238,1.07,17.109,17.109,0,0,1-3.025,1.5,20.16,20.16,0,0,0-2.231.824,4.024,4.024,0,0,1-1.62.336A4.836,4.836,0,0,1,3.7,79.352a8.964,8.964,0,0,1-1.1-.366.518.518,0,0,1-.154-.062,2.215,2.215,0,0,0-.3-.122l-.276-.092c-.61-.244-.795-.366-.795-.7s.673-.611,1.346-.611a1.69,1.69,0,0,1,.4.032c.213.03.458.06.519.06a13.883,13.883,0,0,0,2.688-.55" transform="translate(-0.048 -3.473)" fill="#2a3454"/>
      <path id="パス_6141" data-name="パス 6141" d="M17.382,114.982a.942.942,0,0,1-.795.55.493.493,0,0,1-.275-.092,3.414,3.414,0,0,1-.611-.733c-.244-.336-.672-.886-.978-1.253a10.793,10.793,0,0,1-.886-1.07c0-.031,0-.031-.031-.031a7.188,7.188,0,0,0-.672-.7,1.558,1.558,0,0,1-.458-1.009c-.031-.244-.061-.489-.061-.611v-.091a2.075,2.075,0,0,1,.55.427,7.763,7.763,0,0,0,2.2,1.375c.092,0,.122-.306.122-1.13,0-.428,0-.947-.031-1.681-.031-.52-.061-1.07-.061-1.407a8.591,8.591,0,0,0-.061-1.436.115.115,0,0,0-.092-.03,2.557,2.557,0,0,0-1.131.671c-.825.734-2.659,2.171-3.881,3.117a8.105,8.105,0,0,1-3.513,1.5c-.183,0-.275-.031-.336-.122v-.031l-.031-.031a.066.066,0,0,1,.061-.06,20.035,20.035,0,0,0,2.964-1.925c1.283-.979,5.347-5.2,5.347-5.562h-.031c-.031,0-.428.122-.795.244A30.175,30.175,0,0,1,9.987,104.9a8.247,8.247,0,0,1-1.314.245,1.262,1.262,0,0,1-.488-.092c-.611-.183-.856-.336-.856-.551a.948.948,0,0,1,.061-.243c.122-.276.3-.336,1.253-.489a34.485,34.485,0,0,0,5.438-1.5c1.253-.428,1.589-.611,1.65-.825v-.061a10.282,10.282,0,0,0-.275-1.528,7.641,7.641,0,0,1-.306-1.649,1.177,1.177,0,0,1,.153-.582.356.356,0,0,1,.336-.213.759.759,0,0,1,.244.031c.917.182,1.039.275,1.131,1.283a9.638,9.638,0,0,0,.244,1.711l.153.763h1.161a3.512,3.512,0,0,1,1.956.458c1.161.581,1.864,1.222,1.864,1.711a.488.488,0,0,1-.154.336.629.629,0,0,1-.458.153,4.284,4.284,0,0,1-1.221-.275,14.867,14.867,0,0,0-1.681-.336,2.976,2.976,0,0,0-.489-.031c-.55,0-.642.214-.795,1.039a26.353,26.353,0,0,0-.153,3.391c0,1.5.061,3.057.153,3.82.031.429.061.886.061,1.314a6.759,6.759,0,0,1-.275,2.2" transform="translate(-0.286 -4.511)" fill="#2a3454"/>
      <path id="パス_6142" data-name="パス 6142" d="M7.057,120.2l.428.244a1.88,1.88,0,0,1,.55.55,3.625,3.625,0,0,0,.306.642c.092.183.183.367.275.581.122.306.306.672.458.978a1.94,1.94,0,0,0,.214.367l.061.061a.111.111,0,0,1,.031.092,2.58,2.58,0,0,1,.428,1.1c.061.611.183,2.964.214,3.911,0,.61.031.672.489.977a6.786,6.786,0,0,0,1.467.612c.428.122,1.039.367,1.406.52l.092.03c.03,0,.03,0,.061.031a1.312,1.312,0,0,0,.642.275,2.024,2.024,0,0,0,.519-.153l.214-.06a3.05,3.05,0,0,1,.4-.062.485.485,0,0,1,.488.367,10.962,10.962,0,0,0,2.322,2.261,2.558,2.558,0,0,1,.978,1.467,2.5,2.5,0,0,0,.153.825,2.054,2.054,0,0,1,.092.55.726.726,0,0,1-.092.367c-.092.183-.183.275-.336.275a1.446,1.446,0,0,1-.795-.4,5.221,5.221,0,0,0-.916-.581,26.316,26.316,0,0,1-2.66-2.321,29.161,29.161,0,0,0-2.535-2.262l-.306-.153c-.244-.153-.55-.335-.795-.457a4.473,4.473,0,0,0-.764-.4c-.061,0-.092.275-.092.917,0,.457,0,1.069.031,1.894.092,2.231.122,4.37.122,6.08a20.532,20.532,0,0,1-.153,3.545,7.88,7.88,0,0,0-.183,1.07c0,.611-.214.886-.7.917-.581,0-.917-.213-1.834-1.4l-.795-1.039.4-.429c.672-.7.764-1.527.825-9.014.031-1.589.031-2.872.031-3.942,0-3.758-.153-4.766-.519-5.469a5.868,5.868,0,0,1-.856-2.2,1.043,1.043,0,0,1,.306-.733Z" transform="translate(-0.289 -5.538)" fill="#2a3454"/>
      <path id="パス_6143" data-name="パス 6143" d="M6.021,155.018c.244-.06.489-.122.764-.182a26.99,26.99,0,0,0,4.8-1.5A12.853,12.853,0,0,1,13.9,152.6a8.392,8.392,0,0,1,1.192-.154,7.173,7.173,0,0,0,.948.062h1.038a1.794,1.794,0,0,1,1.039.611.537.537,0,0,1,.153.122.358.358,0,0,1,.153.153c.275.275.581.55.733.672a2.722,2.722,0,0,1,.856,1.344c0,.122-.153.306-.367.4a2.966,2.966,0,0,0-.733.612,3.552,3.552,0,0,1-.336.366A1.492,1.492,0,0,1,18.4,157l-.153.153a13.162,13.162,0,0,0-1.558,2.628,30.2,30.2,0,0,1-2.016,3.3,17.6,17.6,0,0,0-1.1,1.834,17.9,17.9,0,0,1-3.178,3.269,3.126,3.126,0,0,1-.336.275c-.122.093-.214.183-.336.275-.214.184-.428.367-.55.459a3.065,3.065,0,0,1-.489.3,1.962,1.962,0,0,0-.336.153l-.244.122a4.926,4.926,0,0,1-.795.459c-.031.031-.031.031-.061.031s-.031,0-.061.03a4.864,4.864,0,0,0-.917.428,6.212,6.212,0,0,1-1.345.611,7.753,7.753,0,0,0-1.314.52,1.012,1.012,0,0,1-.428.214c-.031,0-.031,0-.031-.031a12.066,12.066,0,0,1,2.261-2.231,34.735,34.735,0,0,0,7.028-7.883,48.167,48.167,0,0,0,3.391-7.089,2.92,2.92,0,0,1,.093-.367,1.051,1.051,0,0,0,.091-.367c0-.215-.153-.245-.549-.245h-.49a4.812,4.812,0,0,0-3.238,1.07,17.11,17.11,0,0,1-3.025,1.5,20.155,20.155,0,0,0-2.231.824,4.024,4.024,0,0,1-1.62.336,4.837,4.837,0,0,1-1.161-.153,8.966,8.966,0,0,1-1.1-.366A.518.518,0,0,1,2.446,157a2.216,2.216,0,0,0-.3-.122l-.276-.092c-.61-.243-.795-.366-.795-.7s.673-.611,1.346-.611a1.69,1.69,0,0,1,.4.032c.213.03.458.06.519.06a13.882,13.882,0,0,0,2.688-.55" transform="translate(-0.048 -6.991)" fill="#2a3454"/>
      <path id="パス_6144" data-name="パス 6144" d="M5.8,191.613a14.751,14.751,0,0,0,.153-2.169c0-3.087-.672-7.121-1.467-8.159a4.2,4.2,0,0,1-.825-2.262,1.336,1.336,0,0,1,.275-.885c.153-.153.214-.214.336-.214a1.151,1.151,0,0,1,.428.122,1.774,1.774,0,0,1,1.07,1.283,6.875,6.875,0,0,0,1.4,2.231c1.04,1.345,1.071,1.436,1.132,3.7,0,1.1-.031,2.413-.061,2.9-.031.214-.061.55-.122.886-.032.153-.093.581-.122.886l-.032.214a.466.466,0,0,1-.03.214c-.092.733-.245,1.742-.336,2.261a16.9,16.9,0,0,0-.429,2.384v.031a.067.067,0,0,0,.062.06,8.579,8.579,0,0,0,1.71-.795,28.254,28.254,0,0,0,4.248-2.719c2.689-2.047,6.234-5.348,6.691-6.264.307-.58.7-1.192.826-1.192v.093c0,.092-.031.549-.061.977a6.339,6.339,0,0,1-1.436,3.209,2.963,2.963,0,0,0-.214.275l-.092.122c-.4.55-.7,1.008-1.131,1.65a31.829,31.829,0,0,1-3.911,3.972c-.428.275-1.008.642-1.314.795a6.451,6.451,0,0,0-1.039.642,7.568,7.568,0,0,1-1.314.917,2.867,2.867,0,0,1-.458.275,4.7,4.7,0,0,0-.519.307,2.529,2.529,0,0,0-.519.275,4,4,0,0,1-1.132.488.813.813,0,0,1-.274.032c-.275,0-.489-.154-1.1-.612-.519-.336-1.039-.7-1.192-.824a.868.868,0,0,1-.306-.734,1.28,1.28,0,0,1,.489-1.069c.275-.153.4-.581.489-1.833.031-.642.092-1.314.122-1.467" transform="translate(-0.165 -8.138)" fill="#2a3454"/>
      <path id="パス_6145" data-name="パス 6145" d="M12.331,208.339c0,.245.031.581.031.978,0,.795,0,2.6.031,4.4v4.4c-.031.519-.092,2.139-.122,3.882-.031.732-.092,1.344-.153,1.924-.031.306-.061.672-.092,1.192-.031.489-.153,1.192-.244,1.711a3.475,3.475,0,0,0-.092.642,1.733,1.733,0,0,1-.489.886l-.031.031h-.092c-.153,0-.244-.245-.336-.52l-.061-.183a2.174,2.174,0,0,1-.092-.244,5.464,5.464,0,0,1-.306-1.375c-.031-.4-.092-1.406-.092-1.986a7.455,7.455,0,0,0-.031-.825c-.031-.4-.031-1.161-.031-2.017v-5.041c0-.4,0-.795-.031-1.283,0-.367,0-.764-.031-1.192v-3.3c0-.244-.031-.458-.031-.7-.031-.488-.061-1.007-.061-1.4-.031-.7-.092-1.345-.153-1.864a.685.685,0,0,0-.031-.214,1.34,1.34,0,0,0-.153-.275c-.061-.062-.122-.122-.122-.184-.031-.121-.214-.244-.4-.335-.153-.062-.275-.122-.275-.183,0-.154.153-.244.306-.307a.8.8,0,0,0,.306-.182,1.487,1.487,0,0,1,.519-.184c.275,0,.764.276,1.589.979.886.732.978.917.978,1.1v.4a.637.637,0,0,1-.122.459.734.734,0,0,0-.092.427Z" transform="translate(-0.399 -9.339)" fill="#2a3454"/>
      <path id="パス_6146" data-name="パス 6146" d="M4.865,252.233a4.026,4.026,0,0,0-1.406.428.99.99,0,0,1-.642.275c-.489,0-.978-.489-1.711-1.65A3.347,3.347,0,0,1,.5,249.85a.8.8,0,0,1,.4-.672,1.227,1.227,0,0,1,.519-.336c.306,0,2.6-2.841,3.85-4.614.917-1.252,3.085-4.522,3.6-5.408l.154-.275a2.687,2.687,0,0,0,.182-.306l.276-.458a3.244,3.244,0,0,0,.55-1.161c0-.122-.062-.183-.214-.243a.626.626,0,0,1-.458-.642,1.04,1.04,0,0,1,.122-.49c.153-.336.336-.489.611-.489a2.073,2.073,0,0,1,.855.275,2.866,2.866,0,0,1,1.834,2.231v.092l-.031.122a2.459,2.459,0,0,1-.581.917c-.061.093-.121.183-.214.306a2.221,2.221,0,0,0-.244.275c-.244.306-.55.7-.764,1.008l-.367.458c-.275.367-.488.611-.519.642a.185.185,0,0,0-.092.183,9.809,9.809,0,0,1-1.1,1.5,5.323,5.323,0,0,0-.458.611.779.779,0,0,1-.152.183,4.665,4.665,0,0,1-.307.4c-.061.092-.182.274-.3.427-.214.275-.764.979-1.192,1.5a8.276,8.276,0,0,1-.825,1.1,20.965,20.965,0,0,0-1.742,2.506c0,.031.031.031.122.031,1.008,0,7.517-1.895,11.031-3.148.428-.153.672-.244.672-.457a6.337,6.337,0,0,0-.917-1.62c0-.032-.031-.062-.061-.092l-.061-.093a9.568,9.568,0,0,1-.795-1.283c0-.032,0-.032.031-.032h.122c.611,0,2.078,1.1,3.148,2.353,1.986,2.353,3.27,5.042,3.27,6.539a1.456,1.456,0,0,1-.183.795.592.592,0,0,1-.489.306c-.306,0-.642-.245-1.1-.733a7.644,7.644,0,0,1-1.5-2.6v-.092a7.909,7.909,0,0,0-.947-2.475H16.2a1,1,0,0,0-.489.307,26.525,26.525,0,0,1-2.322,1.649c-.153.092-.306.184-.489.307a4.75,4.75,0,0,0-.428.275l-.642.4a.47.47,0,0,0-.182.091,14.479,14.479,0,0,1-2.353.978c-.183.061-.429.153-.642.244l-.092.031a.113.113,0,0,1-.093.031,14.833,14.833,0,0,1-3.6,1.039" transform="translate(-0.022 -10.699)" fill="#2a3454"/>
    </g>
  </g>
</svg>
