<svg xmlns="http://www.w3.org/2000/svg" xmlns:xlink="http://www.w3.org/1999/xlink" width="56" height="217" viewBox="0 0 56 217">
  <defs>
    <linearGradient id="linear-gradient" x1="0.5" x2="0.5" y2="1" gradientUnits="objectBoundingBox">
      <stop offset="0" stop-color="#e9a177"/>
      <stop offset="0.379" stop-color="#ddd8b6"/>
      <stop offset="0.626" stop-color="#d8d5b7"/>
      <stop offset="1" stop-color="#8ca793"/>
    </linearGradient>
  </defs>
  <g id="グループ_8582" data-name="グループ 8582" transform="translate(0.201)">
    <rect id="長方形_23834" data-name="長方形 23834" width="56" height="217" rx="5" transform="translate(-0.201)" fill="url(#linear-gradient)"/>
    <path id="長方形_23834_-_アウトライン" data-name="長方形 23834 - アウトライン" d="M5,2A3,3,0,0,0,2,5V212a3,3,0,0,0,3,3H51a3,3,0,0,0,3-3V5a3,3,0,0,0-3-3H5M5,0H51a5,5,0,0,1,5,5V212a5,5,0,0,1-5,5H5a5,5,0,0,1-5-5V5A5,5,0,0,1,5,0Z" transform="translate(-0.201)" fill="#2a3454"/>
    <g id="グループ_8445" data-name="グループ 8445" transform="translate(15.728 17.158)">
      <path id="パス_6123" data-name="パス 6123" d="M278.162,22.466a19.748,19.748,0,0,1-1.894-3.209,1.854,1.854,0,0,0-.886-1.222c-.093,0-.184-.061-.184-.122,0-.122.276-.306.581-.4.519-.091.582-.153.582-.275a28.265,28.265,0,0,0-.4-3.483c-.092-.55-.184-1.132-.214-1.345a4.839,4.839,0,0,1-.825.306,3.6,3.6,0,0,1-.7.06,3.27,3.27,0,0,1-.917-.122,2.768,2.768,0,0,0-.581-.091,8.092,8.092,0,0,0-4.034.947c-.428,1.008-.733,1.925-.978,2.658-.306,1.008-.643,2.017-.764,2.293a10.353,10.353,0,0,1-1.375,2.719c-.153.214-.366.549-.55.856-.213.336-.458.672-.642.672a2.371,2.371,0,0,1-1.772-.856,2.3,2.3,0,0,1-.366-.672,1.436,1.436,0,0,1-.122-.581c0-.092.061-.153.275-.275a1.468,1.468,0,0,0,.275-.183,3.521,3.521,0,0,0,.886-.886,32.259,32.259,0,0,0,4.155-7.426c.856-1.956,2.109-4.8,2.842-6.386a7.657,7.657,0,0,0,.519-1.71c.092-.429.183-.795.306-1.223A4.269,4.269,0,0,1,272.2.863a3.489,3.489,0,0,1,1.8-.734.767.767,0,0,1,.611.215c.06.03.091.152.091.335,0,.122-.031.458-.06.7a2.67,2.67,0,0,0-.031.427,15.61,15.61,0,0,1,1.038,1.558,23.767,23.767,0,0,0,.826,2.934c.4,1.192.856,2.689,1.069,3.7.214.917.429,1.957.611,2.935.215,1.07.457,2.261.7,3.238.122.428.368,1.131.611,1.8a5.635,5.635,0,0,1,.366,1.161,2.57,2.57,0,0,1,.031.55,19.189,19.189,0,0,1-.214,2.475c-.061.336-.275.825-.612.825a.927.927,0,0,1-.885-.519M272.51,4.438c-.336.764-.794,1.742-.978,2.078-.336.886-1.467,3.667-2.2,5.469a5.161,5.161,0,0,1,1.436-.672,2.356,2.356,0,0,0,1.222-.732.764.764,0,0,1,.367-.214.657.657,0,0,1,.306-.061,2.855,2.855,0,0,1,.672.121,21.277,21.277,0,0,1,2.231.519,56.107,56.107,0,0,0-1.559-8.555,7.025,7.025,0,0,0-.734.673,5.826,5.826,0,0,0-.763,1.374" transform="translate(-259.782 -0.129)" fill="#2a3454"/>
      <path id="パス_6124" data-name="パス 6124" d="M265.737,53.144c-.122-.244-.368-.7-.581-1.161A3.772,3.772,0,0,1,264.7,50.7a3.09,3.09,0,0,1,.183-.642,5.77,5.77,0,0,0,.183-.55,22.9,22.9,0,0,0,.4-3.361c.153-2.474.336-5.1.458-6.478.031-.549.214-3.238.3-5.163a12.411,12.411,0,0,0-2.413,1.8c-.306.306-.825.825-.978,1.007a.451.451,0,0,1-.306.093c-.611,0-1.1-1.314-1.222-2.017a2.567,2.567,0,0,0-.153-.55A.425.425,0,0,1,261,34.5c0-.244.183-.489.7-.764a1.8,1.8,0,0,1,.733-.336,2.108,2.108,0,0,0,.244-.092,24.934,24.934,0,0,1,8.555-2.109,13.72,13.72,0,0,1,5.042.581,4.207,4.207,0,0,1,3.148,3.82c0,.733-.275,1.375-.49,1.375-.03,0-.06.031-.152.153a4.828,4.828,0,0,1-.367.428,12.024,12.024,0,0,1-2.995,2.811,21.175,21.175,0,0,1-3.667,2.261c.367.61.886,1.527,1.131,1.985.336.611.611,1.131,1.008,1.895a10.441,10.441,0,0,0,2.536,3.392,3.074,3.074,0,0,0,2.017.947,4.585,4.585,0,0,0,.52-.061,11.446,11.446,0,0,0,2.475-.642,1.337,1.337,0,0,1,.275-.092,1.251,1.251,0,0,0,.274-.122l.031.03a.683.683,0,0,1-.214.215c-.306.275-.366.336-.549.519a.7.7,0,0,0-.154.182c-.03.093-.061.154-.488.551a11.417,11.417,0,0,0-1.864,1.222c-.275.182-.611.457-.794.61a1.481,1.481,0,0,1-1.131.4c-1.222,0-2.047-1.314-2.872-2.627a27.5,27.5,0,0,1-1.711-3.117c-.336-.7-.642-1.436-1.07-2.322s-.764-1.558-1.07-2.139c-.58.275-1.711.734-2.291.947,0,.122-.031.886-.061,1.314-.031.4-.061,1.283-.061,1.62,0,.4,0,.7.03,1.435.031.795.031,1.346.031,1.651a7.644,7.644,0,0,1-.122,1.619c-.032.153-.093.519-.154.887a1.852,1.852,0,0,1-.244.671c-.093.153-.183.183-.4.183a1.014,1.014,0,0,1-1.1-.641m7.211-13.628c2.17-1.8,4.034-4.309,4.034-5.317,0-.458-.367-.795-.856-1.039a10.885,10.885,0,0,0-4.278-.4,17.024,17.024,0,0,0-3.453.764c-.061.519-.092,1.314-.092,1.833,0,.184,0,.642.031,1.5a16.952,16.952,0,0,1-.092,1.711c-.122.917-.213,2.26-.306,3.88a15.134,15.134,0,0,0,5.012-2.933" transform="translate(-259.732 -1.529)" fill="#2a3454"/>
      <path id="パス_6125" data-name="パス 6125" d="M280.224,90.645c-.978,1.436-2.567,2.965-3.085,2.965a2.66,2.66,0,0,1-.612-.459,4.49,4.49,0,0,1-1.192-2.444,4.931,4.931,0,0,1,.275-1.9,2.067,2.067,0,0,1,.215.887c.091,1.039.458,1.588.978,1.588a1.575,1.575,0,0,0,1.038-.58,10.268,10.268,0,0,0,2.72-5.776,1.216,1.216,0,0,0-.275-.947c-.122-.153-.4-.214-.794-.214a7.656,7.656,0,0,0-1.925.306,17.706,17.706,0,0,0-4.583,1.741c-.4.154-1.589.7-1.833.826-.031,0-.428.153-.856.335-.886.4-.917.459-.947,1.8a6.468,6.468,0,0,1-.214,1.466c-.061.244-.092.4-.122.581v.032a7.789,7.789,0,0,1-.4,1.069c-.367.856-.52,1.07-.825,1.192a2.492,2.492,0,0,1-.275.061c-.122,0-.275-.122-.581-.458-.244-.244-.489-.489-.581-.489s-.153-.092-.153-.213c0-.093-.275-.307-.581-.459l-.183-.092c-.336-.183-.764-.428-1.008-.581-.581-.367-.612-.427-.612-1.008V89.7a1.021,1.021,0,0,1,.367-.857,7.772,7.772,0,0,1,2.6-1.864l1.039-.457V85.115a36.466,36.466,0,0,0-.306-5.1h-.092a4.035,4.035,0,0,0-.856.122,7.682,7.682,0,0,1-1.467.244,2.859,2.859,0,0,1-2.139-.886.821.821,0,0,1-.152-.4c0-.275.274-.458.794-.641a5.159,5.159,0,0,0,2.811-1.9l1.283-1.314V73.2a1.362,1.362,0,0,0-.061-.307c-.031-.213-.061-.427-.061-.488a.791.791,0,0,1,.122-.428.406.406,0,0,1,.306-.092,2.072,2.072,0,0,1,1.161.458,2.868,2.868,0,0,1,.7,1.8V74.3l-.031.153v.122c0,.214.092.336.367.489.611.367.917.672.917,1.07a2.29,2.29,0,0,1-.856,1.436l-.794.855-.061,2.6c0,.367-.03.7-.03,1.008v.733c0,2.017.122,2.78.306,2.78.122,0,1.283-.457,2.628-1.007,3.27-1.346,5.255-1.986,6.722-1.986a3.889,3.889,0,0,1,2.628.978,2.44,2.44,0,0,1,.611,1.894,5.325,5.325,0,0,1-.306,1.8,17.965,17.965,0,0,1-1.742,3.422m-13.781-1.528a.553.553,0,0,0-.061.307c0,.335.367.61.642.672h.092c.275,0,.428-.4.55-1.376a3.151,3.151,0,0,0,.031-.488c0-.122,0-.215-.031-.215a3.581,3.581,0,0,0-1.222,1.1m13.781-15.338c0-.153-.183-.244-.611-.306a2.449,2.449,0,0,1-1.8-.856.893.893,0,0,1-.213-.519c0-.214.182-.4.518-.55a3.241,3.241,0,0,1,.978-.183,2.954,2.954,0,0,1,2.414,1.07c.672.672.794.855.794,1.283,0,.61-.183.733-1.192.825a4.245,4.245,0,0,0-1.253.275,1.3,1.3,0,0,1-.367.153c-.031,0-.061,0-.061-.031a3.462,3.462,0,0,1,.4-.55c.275-.307.4-.489.4-.611" transform="translate(-259.813 -3.338)" fill="#2a3454"/>
      <path id="パス_6126" data-name="パス 6126" d="M269.817,102.7a2.849,2.849,0,0,0,1.038.183,2.088,2.088,0,0,0,.947-.183c.184-.091.519-.275.733-.4a2.066,2.066,0,0,1,.672-.213,1.1,1.1,0,0,1,.795.4c.4.335.458.457.489,1.252a.76.76,0,0,0,.031.244v.214a2.347,2.347,0,0,1-.275,1.1c-.306.733-1.833,3.82-2.047,4.156a.109.109,0,0,1-.031.091l-.153.307a3.637,3.637,0,0,1-.244.488c-.182.367-.428.857-.55,1.039-.091.122-.336.49-.642.948-.061.091-.153.213-.244.335s-.306.459-.4.612a.959.959,0,0,1-.154.213l-.152.215c-.153.214-.275.427-.4.611-.275.4-.49.7-.551.763a.872.872,0,0,0-.121.214c0,.183.3.275,1.07.368a66.645,66.645,0,0,1,7.455,1.406l.153.031a.342.342,0,0,0,.153.03c.153,0,.214-.092.336-.4a2.43,2.43,0,0,0,.214-.764c0-.153-.061-.244-.153-.244-.061,0-.122-.213-.122-.488a3.628,3.628,0,0,0-.153-.979.839.839,0,0,1-.061-.367c0-.275.153-.4.458-.4a.269.269,0,0,0,.244-.275c0-.182.061-.244.306-.244a3.248,3.248,0,0,1,.642.092c.458.123,1.192,1.711,1.283,2.843a4.172,4.172,0,0,0,1.375,2.933,21.534,21.534,0,0,1,2.995,2.659,1.277,1.277,0,0,1,.121.458c0,.428-.275.825-.58.825a.56.56,0,0,1-.336-.153.853.853,0,0,0-.4-.214,3.2,3.2,0,0,1-.825-.642,6.428,6.428,0,0,0-1.406-.978c-1.07-.55-1.406-.733-1.528-.947a1.855,1.855,0,0,0-.55-.367.8.8,0,0,0-.336-.092c-.153,0-.367.122-.886.458a4.955,4.955,0,0,1-.856.519.894.894,0,0,0-.306.183.537.537,0,0,0-.153.122l-.153.122c-.275.244-.947.825-1.5,1.253-1.375,1.039-1.681,1.283-2.353,1.833a1.318,1.318,0,0,1-.213.184c-.581.488-.765.642-.856.642a8.15,8.15,0,0,1,1.253-1.436c1.894-1.956,3.727-4.217,3.727-4.613,0-.032,0-.032-.03-.062a32.694,32.694,0,0,0-5.408-1.436,13.824,13.824,0,0,1-1.436-.213,12.774,12.774,0,0,0-1.62-.122h-.917l-1.528,1.741c-.856.978-1.742,2.047-2.017,2.445a18.374,18.374,0,0,0-2.047,3.209c-.092.4-.55.917-.794.917-.367,0-.886-.642-1.07-1.254a1.86,1.86,0,0,1-.091-.488,2.528,2.528,0,0,1,.366-.948,12.172,12.172,0,0,0,.795-2.291c.489-2.047.7-2.567,1.375-3.33a3.9,3.9,0,0,1,2.689-1.223.673.673,0,0,1,.244-.031,1.814,1.814,0,0,0,1.283-.58c.55-.672,2.811-3.911,3.453-4.859a15.253,15.253,0,0,0,2.047-4.309l.122-.457-.765.091-.213.032h-.184a2.625,2.625,0,0,1-2.658-1.651.971.971,0,0,1-.061-.4c0-.336.214-.519.733-.733a.927.927,0,0,1,.917,0M262.3,119.226c0,.122,0,.367.061.367.031,0,.153-.122.4-.4.153-.153.336-.336.55-.581l.183-.183a10.586,10.586,0,0,0,1.222-1.528.111.111,0,0,0,.031-.091c0-.032-.031-.062-.092-.062a2.743,2.743,0,0,0-.733.244,2.592,2.592,0,0,0-1.62,2.231" transform="translate(-259.672 -4.722)" fill="#2a3454"/>
      <path id="パス_6127" data-name="パス 6127" d="M275.945,158.114a.526.526,0,0,1-.458.153,2.618,2.618,0,0,1-1.833-.978,10.73,10.73,0,0,0-1.131-1.313c-.551-.55-.734-.857-.734-1.04v-.122a6.406,6.406,0,0,0-1.4-2.475,10.7,10.7,0,0,0-2.995-2.169,8.694,8.694,0,0,0-1.161-.551c-.7-.275-.856-.4-1.1-.916a2.61,2.61,0,0,1-.306-1.039.83.83,0,0,1,.306-.672,29.011,29.011,0,0,0,3.453-3.759c1.589-2.078,2.047-3.085,3.056-6.447.581-2.017,1.069-3.025,1.435-3.117h.092a1.659,1.659,0,0,1,1.009.581.8.8,0,0,1,.152.519,1.26,1.26,0,0,1-.306.825,7.264,7.264,0,0,0-1.221,2.81,13.007,13.007,0,0,1-1.009,3.025,32.159,32.159,0,0,1-3.36,5.042,6.7,6.7,0,0,0-1.131,1.589v.031a3.555,3.555,0,0,0,1.008.7,19.594,19.594,0,0,1,6.539,6.477,5.779,5.779,0,0,1,1.222,2.445.563.563,0,0,1-.122.4" transform="translate(-259.904 -6.145)" fill="#2a3454"/>
      <path id="パス_6128" data-name="パス 6128" d="M267.177,182.889c.031-1.008.092-2.353.122-3.544,0-.306.031-.581.031-.825.031-.672.031-1.161.031-1.589a8.55,8.55,0,0,0-.214-2.231,17.645,17.645,0,0,1-.275-3.392,10.622,10.622,0,0,1,.275-2.9c.214-.55.306-.643.611-.643a1.305,1.305,0,0,1,.795.4,1.065,1.065,0,0,1,.458,1.07,3.9,3.9,0,0,1-.214,1.192,5.62,5.62,0,0,0-.183,1.621,6.809,6.809,0,0,0,.122,1.436,31.217,31.217,0,0,1,.52,5.927c0,1.13-.061,2.231-.153,3.209-.092.855-.153,2.016-.153,2.535.061,1.161.336,2.322.581,2.322a34.8,34.8,0,0,0,4.523-2.9,13.819,13.819,0,0,0,3.758-3.667c.306-.519.458-.734.52-.734.031,0,.061.062.061.122v.062a5.393,5.393,0,0,1-.275,1.161,9.321,9.321,0,0,1-.336.885,1.4,1.4,0,0,1-.092.275v.031c-.031.031-.031.031-.031.06a12.814,12.814,0,0,1-2.81,3.76,1.945,1.945,0,0,0-.245.213c-.4.367-.886.826-1.222,1.161a7.213,7.213,0,0,1-3.544,1.772l-.764.061-.7-.642c-.672-.642-.7-.764-1.008-2.017a7.881,7.881,0,0,1-.244-1.925c0-.244,0-.55.031-.886v-.306c0-.275,0-.642.031-1.07m10.3-13.384a1.217,1.217,0,0,1-.336.032c-.733,0-1.528-.734-2.017-1.925a1.766,1.766,0,0,1-.244-.672.314.314,0,0,1,.183-.306c.061-.092.184-.092.4-.092a1.539,1.539,0,0,1,.489.06,7.035,7.035,0,0,0,1.07.184,4.294,4.294,0,0,0,.794.091,4.467,4.467,0,0,1,.122,1.254c0,1.039-.092,1.221-.458,1.374m3.881-1.5a.681.681,0,0,1-.4.182,1.587,1.587,0,0,1-.489-.182c-1.1-.55-2.109-1.651-2.109-2.139v-.031c.031-.306.092-.429.428-.429a4.379,4.379,0,0,1,1.1.215c1.039.306,1.772,1.131,1.772,1.771a.794.794,0,0,1-.306.612" transform="translate(-259.996 -7.575)" fill="#2a3454"/>
    </g>
  </g>
</svg>
