<svg xmlns="http://www.w3.org/2000/svg" xmlns:xlink="http://www.w3.org/1999/xlink" width="56" height="160" viewBox="0 0 56 160">
  <defs>
    <linearGradient id="linear-gradient" x1="0.5" x2="0.5" y2="1" gradientUnits="objectBoundingBox">
      <stop offset="0" stop-color="#e9a177"/>
      <stop offset="0.379" stop-color="#ddd8b6"/>
      <stop offset="0.626" stop-color="#d8d5b7"/>
      <stop offset="1" stop-color="#8ca793"/>
    </linearGradient>
  </defs>
  <g id="グループ_8580" data-name="グループ 8580" transform="translate(0.463)">
    <rect id="長方形_23836" data-name="長方形 23836" width="56" height="160" rx="5" transform="translate(-0.463)" fill="url(#linear-gradient)"/>
    <path id="長方形_23836_-_アウトライン" data-name="長方形 23836 - アウトライン" d="M5,2A3,3,0,0,0,2,5V155a3,3,0,0,0,3,3H51a3,3,0,0,0,3-3V5a3,3,0,0,0-3-3H5M5,0H51a5,5,0,0,1,5,5V155a5,5,0,0,1-5,5H5a5,5,0,0,1-5-5V5A5,5,0,0,1,5,0Z" transform="translate(-0.463)" fill="#2a3454"/>
    <g id="グループ_8448" data-name="グループ 8448" transform="translate(14.298 17.158)">
      <path id="パス_6134" data-name="パス 6134" d="M104.161,22.466a19.752,19.752,0,0,1-1.894-3.209,1.854,1.854,0,0,0-.886-1.222c-.092,0-.184-.061-.184-.122,0-.122.277-.306.581-.4.52-.091.582-.153.582-.275a28.262,28.262,0,0,0-.4-3.483c-.092-.55-.184-1.132-.214-1.345a4.78,4.78,0,0,1-.825.306,3.6,3.6,0,0,1-.7.06,3.27,3.27,0,0,1-.917-.122,2.767,2.767,0,0,0-.581-.091,8.094,8.094,0,0,0-4.034.947c-.428,1.008-.733,1.925-.978,2.658-.306,1.008-.642,2.017-.764,2.293a10.353,10.353,0,0,1-1.375,2.719c-.152.214-.366.549-.549.856-.214.336-.459.672-.643.672a2.367,2.367,0,0,1-1.771-.856,2.278,2.278,0,0,1-.367-.672,1.436,1.436,0,0,1-.122-.581c0-.092.061-.153.275-.275a1.435,1.435,0,0,0,.275-.183,3.5,3.5,0,0,0,.886-.886,32.261,32.261,0,0,0,4.155-7.426c.856-1.956,2.109-4.8,2.842-6.386a7.655,7.655,0,0,0,.519-1.71c.092-.429.184-.795.306-1.223A4.283,4.283,0,0,1,98.2.863a3.492,3.492,0,0,1,1.8-.734.767.767,0,0,1,.611.215c.06.03.092.152.092.335,0,.122-.032.458-.061.7a2.673,2.673,0,0,0-.031.427,15.613,15.613,0,0,1,1.038,1.558,23.626,23.626,0,0,0,.827,2.934c.4,1.192.855,2.689,1.068,3.7.214.917.429,1.957.611,2.935.215,1.07.458,2.261.7,3.238.122.428.368,1.131.611,1.8a5.712,5.712,0,0,1,.367,1.161,2.647,2.647,0,0,1,.031.55,19.189,19.189,0,0,1-.214,2.475c-.061.336-.275.825-.611.825a.929.929,0,0,1-.886-.519M98.509,4.438c-.336.764-.795,1.742-.978,2.078-.336.886-1.467,3.667-2.2,5.469a5.172,5.172,0,0,1,1.436-.672,2.352,2.352,0,0,0,1.222-.732.769.769,0,0,1,.367-.214.659.659,0,0,1,.307-.061,2.858,2.858,0,0,1,.671.121,21.214,21.214,0,0,1,2.231.519,56.115,56.115,0,0,0-1.558-8.555,6.924,6.924,0,0,0-.733.673,5.78,5.78,0,0,0-.764,1.374" transform="translate(-82.879 -0.129)" fill="#2a3454"/>
      <path id="パス_6135" data-name="パス 6135" d="M91.737,53.144c-.122-.244-.368-.7-.581-1.161A3.772,3.772,0,0,1,90.7,50.7a3.09,3.09,0,0,1,.183-.642,5.764,5.764,0,0,0,.183-.55,22.908,22.908,0,0,0,.4-3.361c.153-2.474.336-5.1.458-6.478.031-.549.214-3.238.3-5.163a12.416,12.416,0,0,0-2.413,1.8c-.306.306-.825.825-.978,1.007a.451.451,0,0,1-.306.093c-.611,0-1.1-1.314-1.222-2.017a2.567,2.567,0,0,0-.153-.55A.425.425,0,0,1,87,34.5c0-.244.183-.489.7-.764a1.8,1.8,0,0,1,.733-.336,2.1,2.1,0,0,0,.244-.092A24.934,24.934,0,0,1,97.236,31.2a13.72,13.72,0,0,1,5.042.581,4.207,4.207,0,0,1,3.148,3.82c0,.733-.275,1.375-.49,1.375-.03,0-.06.031-.152.153a4.841,4.841,0,0,1-.367.428,12.023,12.023,0,0,1-2.995,2.811,21.173,21.173,0,0,1-3.667,2.261c.367.61.886,1.527,1.131,1.985.336.611.611,1.131,1.008,1.895a10.439,10.439,0,0,0,2.536,3.392,3.074,3.074,0,0,0,2.017.947,4.587,4.587,0,0,0,.52-.061,11.447,11.447,0,0,0,2.475-.642,1.337,1.337,0,0,1,.275-.092,1.25,1.25,0,0,0,.274-.122l.031.03a.682.682,0,0,1-.214.215c-.306.275-.366.336-.549.519a.694.694,0,0,0-.154.182c-.03.093-.061.154-.488.551a11.415,11.415,0,0,0-1.864,1.222c-.275.182-.611.457-.795.61a1.481,1.481,0,0,1-1.131.4c-1.222,0-2.047-1.314-2.872-2.627a27.5,27.5,0,0,1-1.711-3.117c-.336-.7-.642-1.436-1.07-2.322s-.764-1.558-1.07-2.139c-.58.275-1.711.734-2.291.947,0,.122-.032.886-.061,1.314-.032.4-.061,1.283-.061,1.62,0,.4,0,.7.03,1.435.032.795.032,1.346.032,1.651a7.644,7.644,0,0,1-.122,1.619c-.032.153-.093.519-.154.887a1.852,1.852,0,0,1-.244.671c-.093.153-.183.183-.4.183a1.014,1.014,0,0,1-1.1-.641m7.211-13.628c2.17-1.8,4.034-4.309,4.034-5.317,0-.458-.367-.795-.856-1.039a10.885,10.885,0,0,0-4.278-.4,17.025,17.025,0,0,0-3.453.764c-.061.519-.092,1.314-.092,1.833,0,.184,0,.642.031,1.5a16.948,16.948,0,0,1-.092,1.711c-.122.917-.213,2.26-.306,3.88a15.135,15.135,0,0,0,5.012-2.933" transform="translate(-82.829 -1.529)" fill="#2a3454"/>
      <path id="パス_6136" data-name="パス 6136" d="M92.99,73.157a3.964,3.964,0,0,0,.764-.182,8.5,8.5,0,0,1,1.222-.337,3.113,3.113,0,0,0,1.039-.427,2.938,2.938,0,0,1,.733-.367,2.067,2.067,0,0,1,.55.336c.275.183.764.488.917.58.7.368.978.643,1.039,1.07v.215a.31.31,0,0,1-.153.3.409.409,0,0,1-.214.093,1.126,1.126,0,0,1-.4-.153,2.758,2.758,0,0,0-1.192-.215,4.228,4.228,0,0,0-1.345.215,7.277,7.277,0,0,1-.886.244,2.922,2.922,0,0,0-1.314.795,4.148,4.148,0,0,0-.031.733,12.971,12.971,0,0,0,.061,1.375.945.945,0,0,1,.031.276c0,.03.031.03.061.03a4.745,4.745,0,0,0,1.07-.275,5.276,5.276,0,0,1,1.711-.4,2.2,2.2,0,0,1,1.039.275,1.934,1.934,0,0,1,1.253,1.772,4.28,4.28,0,0,1-.214,1.131c-.061.244-.214.732-.336,1.1a2.79,2.79,0,0,1-.306.795,4.08,4.08,0,0,0-.367.642c-.4.795-1.039,1.528-1.436,1.588h-.122c-.183,0-.336-.092-.733-.489a2.261,2.261,0,0,1-.55-.672,3.154,3.154,0,0,1,.336-.764.428.428,0,0,1,.092-.121l.886-1.589a6.246,6.246,0,0,0,.672-2.17c0-.183-.031-.244-.122-.244h-.306a13.3,13.3,0,0,0-2.109.581,1.68,1.68,0,0,0-.122.795L94.182,80a.79.79,0,0,0,.244.7c.153.183.244.306.244.367a.265.265,0,0,1-.122.214c-.092.061-.153.306-.153.642,0,.4.031.488.122.488l.244-.06c.092,0,.122.06.122.213a1.827,1.827,0,0,1-.153.582,1.349,1.349,0,0,0-.092.457V83.7A7.553,7.553,0,0,1,94.7,84.86v.977l.458.215a1.8,1.8,0,0,1,.244.092.911.911,0,0,1,.244.121,2.108,2.108,0,0,0,.306.122c.244.092.367.244.367.429a2.414,2.414,0,0,1-.52,1.039l-.55.795L94,90.238l-.031.122a12.122,12.122,0,0,0,1.161-1.07,22.58,22.58,0,0,0,3.514-4.033c.153-.244.428-.612.519-.612a4.073,4.073,0,0,1-.122.887,1.082,1.082,0,0,0-.153.4,1.851,1.851,0,0,1-.4.795c-.092.122-.55.7-2.2,2.781a1.746,1.746,0,0,0-.367.55,5.661,5.661,0,0,1-.55.733c-.153.183-.611.795-.7.917a12.444,12.444,0,0,1-2.9,2.659l-.275.275c-.122.152-.153.182-.244.182a.412.412,0,0,1-.244-.06,1.757,1.757,0,0,1-.49-.55,5.6,5.6,0,0,0-.4-.733.805.805,0,0,1-.183-.458c.122-.611.428-.978.642-1.008a4.5,4.5,0,0,0,1.406-1.558,5.142,5.142,0,0,0,.581-1.467l-.061-.031a1.721,1.721,0,0,0-.825.519.267.267,0,0,1-.274.153,1.506,1.506,0,0,1-.826-.489c-.306-.275-.427-.428-.427-.55v-.06a7.673,7.673,0,0,1,2.321-1.5c.611-.275.642-.306.733-1.558l.031-.428c0-.182-.031-.3-.061-.3a2.323,2.323,0,0,0-.611.457c-.428.367-.611.642-.611.948a1.77,1.77,0,0,0,.061.3.389.389,0,0,1,.031.183c0,.092-.061.184-.183.307s-.153.153-.244.153l-.213-.123a4.268,4.268,0,0,1-1.009-1.191c0-.093-1.038-2.568-1.5-3.514a6.459,6.459,0,0,0-.581-1.009,3.7,3.7,0,0,1-.764-1.68c0-.672.55-1.558,1.742-2.78.366-.368.519-.582.519-.643-.06,0-.121.031-.244.123-.122.06-.581.274-1.1.488a27.491,27.491,0,0,0-2.627,1.161c-1.314.7-1.558.825-2.017.825h-.092a.832.832,0,0,1-.856-.367.623.623,0,0,1-.244-.458c0-.244.244-.458.764-.642a4.754,4.754,0,0,0,.795-.306l4.216-1.711c2.537-1.192,3.086-1.436,3.209-1.466a.3.3,0,0,0,.214-.307,1.257,1.257,0,0,0-.153-.581.683.683,0,0,1-.092-.3.571.571,0,0,1,.061-.215c.061-.092.092-.122.122-.122s.122.031.642.4a3.866,3.866,0,0,1,.367.337c.061.091.122.152.214.152m-1.62,5.837a1.887,1.887,0,0,1,.611-.4c.275-.122.52-.275.52-.336a7.474,7.474,0,0,0-.214-.978,2.475,2.475,0,0,0-.306-.856,4.477,4.477,0,0,0-.825.611,4.784,4.784,0,0,1-.795.611,6.332,6.332,0,0,0-1.466,1.62,1.07,1.07,0,0,0-.061.336,1.732,1.732,0,0,0,.427,1.161,6.96,6.96,0,0,1,1.223,2.078l.213.519c.122.244.245.551.368.857a1.524,1.524,0,0,0,.244.427,2.332,2.332,0,0,0,.458-.335,9.151,9.151,0,0,1,1.406-.948c-.122-1.283-.183-1.467-.336-1.467-.244.062-.4.093-.581.122l-.642.123a1.238,1.238,0,0,1-.367.092c-.275,0-.458-.122-.458-.337v-.06c.031-.153.215-.306.795-.611a7.841,7.841,0,0,1,.978-.428c.153-.031.214-.092.214-.244a1.9,1.9,0,0,0-.031-.367,2.486,2.486,0,0,0-.122-.611c-.031-.032-.031-.032-.061-.032a.815.815,0,0,0-.306.093.462.462,0,0,1-.244.061c-.091,0-.183-.061-.4-.214s-.306-.244-.306-.337a.524.524,0,0,1,.061-.152m-1.1-7.915c0-.367.642-.886,1.864-1.527a9.657,9.657,0,0,0,1.314-.795c.092-.122.367-.276,1.222-.336a6.731,6.731,0,0,1,1.772.977,1.61,1.61,0,0,1,.183.795.743.743,0,0,1-.092.429,1.708,1.708,0,0,1-.764.091h-.55a8.4,8.4,0,0,0-1.62.122c-.214.032-.4.062-.642.093-.214.03-.428.06-.55.092a4.222,4.222,0,0,0-.825.244,2.04,2.04,0,0,1-.886.244.38.38,0,0,1-.428-.335ZM102.157,74.1l.368.153a1.34,1.34,0,0,0,.672.214c.366.031,1.039.306,1.13.55v.122a13.264,13.264,0,0,1-.336,2.322,1.912,1.912,0,0,0-.122.428,1.427,1.427,0,0,0-.03.244c0,.031,0,.061.03.061s.061,0,.122-.061a.458.458,0,0,1,.275-.122c.122-.031.7-.183,1.222-.336a11.31,11.31,0,0,1,1.222-.275,9.565,9.565,0,0,1,1.222-.183,2.441,2.441,0,0,1,.7.153,2.662,2.662,0,0,1,1.467,1.375,5.62,5.62,0,0,1,.153,1.345,3.523,3.523,0,0,1-.031.611,5.04,5.04,0,0,0-.183.733c-.061.213-.122.519-.153.642a2.233,2.233,0,0,1-.061.366,1.272,1.272,0,0,0-.061.429,1.328,1.328,0,0,1-.153.457.364.364,0,0,0-.061.184l-.092.183a2.155,2.155,0,0,0-.183.764,1.657,1.657,0,0,1-.122.61,7.2,7.2,0,0,1-.244.795c-.092.276-.244.7-.367,1.008-.061.184-.214.825-.214.857a4.313,4.313,0,0,1-.795,1.527,2.747,2.747,0,0,1-.214.307c0,.091-.092.182-.214.274a3.255,3.255,0,0,0-.52.643,5.968,5.968,0,0,1-1.894,1.741,3.413,3.413,0,0,1-1.468.4.657.657,0,0,1-.366-.061,8.372,8.372,0,0,1-1.223-2.567c-.061-.4-.427-1.161-.549-1.161a1.1,1.1,0,0,0-.244.215,7.971,7.971,0,0,1-.7,1.16c-.152.183-.3.4-.458.611a4.667,4.667,0,0,1-.427.581,13.5,13.5,0,0,1-2.414,1.956,2.207,2.207,0,0,1-.733.55,2.322,2.322,0,0,1,.306-.367,18.884,18.884,0,0,0,3.178-6.722,6.453,6.453,0,0,0,.367-1.376,3.184,3.184,0,0,0-.061-.457c-.092-.55-.153-1.132-.153-1.254a1.191,1.191,0,0,1,.092-.427c.061-.337.122-.519.153-.519s.061.092.061.458A1.694,1.694,0,0,0,100.2,84l.154.337.121-.55c.061-.122.183-.429.215-.519.031-.122.153-.642.275-1.192a12.732,12.732,0,0,0,.306-1.436c0-.214,0-.214-.55-.336-.672-.092-.825-.214-.825-.55.031-.244.122-.336.367-.458a1.725,1.725,0,0,1,.611-.183c.825-.122.886-.183,1.008-.795a11.7,11.7,0,0,0,.366-2.2c0-.183-.03-.275-.061-.275a2.388,2.388,0,0,1-.4-.275,2.418,2.418,0,0,0-.427-.367q-.092-.046-.092-.092c0-.03,0-.03.06-.061a.87.87,0,0,0,.093-.306c0-.06.183-.214.4-.336Zm5.959,4.064a3.217,3.217,0,0,0-1.222.336,8.369,8.369,0,0,1-.856.336.923.923,0,0,0-.519.214.674.674,0,0,1-.214.122,1.911,1.911,0,0,0-.428.122,1.309,1.309,0,0,1-.306.092,1.87,1.87,0,0,0-.611.275c-.336.183-.367.306-.55,1.07-.122.489-.244.978-.306,1.16a2.476,2.476,0,0,0-.153.826,2.555,2.555,0,0,1-.183.488,1.5,1.5,0,0,0-.153.337,2.789,2.789,0,0,1-.122.489,4.582,4.582,0,0,1-.306.732,1.551,1.551,0,0,0-.092.368,6.468,6.468,0,0,1-.274,1.436c-.153.457-.307.886-.336.977a3.283,3.283,0,0,0,1.16,1.681,2.771,2.771,0,0,0,1.009.306c1.13,0,2.046-1.956,3.452-5.194a11.022,11.022,0,0,1,.306-1.161c.122-.49.4-1.253.519-1.711a10.98,10.98,0,0,0,.55-2.811c0-.183,0-.336-.061-.4a.406.406,0,0,0-.306-.092" transform="translate(-82.632 -3.205)" fill="#2a3454"/>
      <path id="パス_6137" data-name="パス 6137" d="M108.257,114.448a.812.812,0,0,0-.336-.672,1.161,1.161,0,0,1-.154-.307.842.842,0,0,1-.153-.243l.245-.154a.706.706,0,0,1,.427-.121,1.053,1.053,0,0,1,.581.336,1.354,1.354,0,0,0,.307.214,2.843,2.843,0,0,1,.427.306,1.4,1.4,0,0,1,.52.58,1.038,1.038,0,0,1,.153.582,6.12,6.12,0,0,1-.244,1.619,8.073,8.073,0,0,0-.183,1.376,6.616,6.616,0,0,1-.152.824,3,3,0,0,0-.123.612v.03l-.031.031a2.112,2.112,0,0,0-.092.244l-.031.061a7.963,7.963,0,0,0-.122.856,3.442,3.442,0,0,1-.152.733,1.329,1.329,0,0,0-.062.489.528.528,0,0,1-.153.4.539.539,0,0,0-.182.367.336.336,0,0,1-.123.275,4.465,4.465,0,0,0-.488,1.1,1.427,1.427,0,0,1-.245.489,2.837,2.837,0,0,0-.366.672c-.122.519-.856,1.406-1.132,1.406h-.03a2.341,2.341,0,0,1-1.1-2.109c0-.336-.031-.55-.123-.582a.153.153,0,0,1-.12-.152c0-.061.091-.183.335-.4.4-.244.7-.764,1.314-2.078l.06-.183a.225.225,0,0,0,.061-.122.317.317,0,0,1,.154-.183l.061-.061v-.122c0-.061,0-.092-.061-.092a.413.413,0,0,1-.154.031l-.152.061a2.681,2.681,0,0,0-.306.183h-.122c-.061.031-.244.092-.336.122a7.869,7.869,0,0,1-.764.244h-.032a1.565,1.565,0,0,0-.795.458.452.452,0,0,1-.3.092,7.667,7.667,0,0,0-1.161.336.726.726,0,0,1-.275.061.945.945,0,0,0-.244.061l-.183.031-.61.092-.276.061a1.905,1.905,0,0,1-.427.121,1.164,1.164,0,0,0-.4.123,6.6,6.6,0,0,1-1.04.306c-.642.183-1.161.336-1.528.458-.947.275-1.252.367-1.345.4h-.031a4.823,4.823,0,0,1-.795.275,8.588,8.588,0,0,0-.886.367,2.668,2.668,0,0,1-.52.183,2.4,2.4,0,0,0-.642.275,3.266,3.266,0,0,1-.58.214,3,3,0,0,1-.367.152c-1.162.52-1.406.642-1.467.795a.829.829,0,0,0-.244.49c-.031.244-.153.367-.275.367-.306,0-.795-.337-1.558-1.132a3.8,3.8,0,0,1-.794-.917v-.03a.466.466,0,0,0,.092-.214c0-.092.03-.183.121-.183.061,0,.092-.093.092-.244a8.031,8.031,0,0,0-.7-2.231,5.791,5.791,0,0,1-.275-.642l-.275-.611a5.738,5.738,0,0,0-.458-1.161,1.246,1.246,0,0,0-.061-.214c-.061-.183-.122-.4-.183-.61l-.031-.123a3.084,3.084,0,0,0-.092-.367,4.724,4.724,0,0,1-.122-1.039.892.892,0,0,1,.306-.764.423.423,0,0,1,.367-.213c.061,0,.183.06.458.275a.591.591,0,0,1,.183.122c.214.182.276.3.276.457a.32.32,0,0,1-.154.215.734.734,0,0,0-.092.335,10.97,10.97,0,0,0,.917,2.353,1.3,1.3,0,0,1,.244.428v.031h-.031a1.09,1.09,0,0,0,.183.4,10.655,10.655,0,0,1,.734,1.375,4.634,4.634,0,0,1,.488.886.323.323,0,0,0,.061.153,1.663,1.663,0,0,0,.519-.244,35.007,35.007,0,0,1,3.453-1.131,14,14,0,0,0,1.466-.306c.857-.214,1.895-.458,2.628-.581a9.076,9.076,0,0,1,1.008-.183c.153-.031.306-.061.337-.061h.03l.092-.031a1.372,1.372,0,0,1,.214-.061l.214-.061a.455.455,0,0,1,.214-.031.409.409,0,0,1,.153-.031.456.456,0,0,1,.183-.031c.092-.031.458-.122.489-.122.581-.091.733-.122.856-.213l.092-.032.428-.061c.917-.153,1.253-.214,1.345-.244a3.633,3.633,0,0,1,1.619-.335h.429c.672,0,.672.03.672.182,0,.031,0,.061.152.183l.061.031a.188.188,0,0,0,.122.03c.062,0,.092-.061.153-.214a9.834,9.834,0,0,0,.244-1.192c.031-.214.093-.58.153-.855.032-.215.154-.826.215-1.1.091-.55.244-1.314.3-1.589a2.406,2.406,0,0,0,.032-.427M95.422,102.866c.154-.03.336-.092.489-.122a1.987,1.987,0,0,1,.336-.092,9.127,9.127,0,0,0,1.834-.52c0-.06.183-.153.428-.213a.979.979,0,0,1,.306-.093.222.222,0,0,1,.183.062l.153.091a3.3,3.3,0,0,0,.489.275,2.074,2.074,0,0,1,.795.611c.368.428.428.612.428.825v.031c-.031.458-.06.519-.733.611a8.324,8.324,0,0,0-3.544,1.956,3.94,3.94,0,0,1-.49.428,2.884,2.884,0,0,0-.824.489,2.8,2.8,0,0,1-.459.336,2.7,2.7,0,0,1-.336.244,1.471,1.471,0,0,0-.672.4c-1.159.886-2.321,2.17-2.321,2.72a4.387,4.387,0,0,0,.611,1.5,5.553,5.553,0,0,0,.581,1.132,1.111,1.111,0,0,0,.122.3,2.733,2.733,0,0,0,.152.337,4.4,4.4,0,0,0,.245.55c.091.214.306.733.427,1.1.49,1.253.581,1.346.734,1.346.214,0,.58-.276,1.192-.857.885-.855.946-.917.977-1.466v-.093a.546.546,0,0,1,.031-.153v-.122c0-.092-.031-.122-.122-.122a1.06,1.06,0,0,0-.275.031h-.031l-.092.032-.06.031a1.508,1.508,0,0,0-.4.152.29.29,0,0,1-.215.062c-.213,0-.488-.184-.764-.551-.275-.3-.3-.4-.3-.519,0-.275.549-.457,1.773-.795l.61-.153v-1.681l-.4.032h-.093a1.088,1.088,0,0,1-.977-.642,1.058,1.058,0,0,1-.093-.4c0-.183.154-.275.55-.306a2,2,0,0,0,.642-.122l.092-.031c.214-.122.306-.183.306-.275v-.061l-.03-.122a1.037,1.037,0,0,0-.245-.519,1.783,1.783,0,0,1-.581-.856c0-.031,0-.031.031-.061.061-.031.093-.153.093-.214s.093-.122.182-.183l.031-.061.122-.031a.233.233,0,0,1,.122-.031c.092,0,.183.061.306.183a2.972,2.972,0,0,0,.581.244,1.239,1.239,0,0,1,.947,1.008c.031.244.153.428.244.428a2.523,2.523,0,0,0,.306-.061,11.454,11.454,0,0,1,1.192-.367l.122-.031a6.1,6.1,0,0,1,1.65-.336,3.686,3.686,0,0,1,1.437.489l.06.031c.031,0,.061,0,.061.031a4.008,4.008,0,0,1,1.375,1.008l.03.031c.429.52.612.764.612,1.008v.092a.236.236,0,0,0-.03.121,2.477,2.477,0,0,1-.246.948,2.183,2.183,0,0,0-.121.581,2.526,2.526,0,0,1-.215.733.228.228,0,0,1-.061.122.873.873,0,0,0-.091.275,4.078,4.078,0,0,1-.4,1.1,3.753,3.753,0,0,0-.336.519l-.093.182a.468.468,0,0,1-.091.215,5.281,5.281,0,0,0-.367.519.928.928,0,0,1-.122.182,3.619,3.619,0,0,0-.306.55l-.092.183a3.707,3.707,0,0,1-1.008,1.345,3.5,3.5,0,0,1-1.864,1.1c-.428,0-.733-.366-.917-.978v-.031c-.153-.367-.213-.458-.367-.458h-.183a1.484,1.484,0,0,0-.457.122.575.575,0,0,1-.276.122c-.275.031-1.038.184-2.5.489-.368.122-.429.183-.429.49a.857.857,0,0,1-.183.488c-.092.122-.153.183-.275.183a.11.11,0,0,1-.091-.031.3.3,0,0,0-.154-.121,3.143,3.143,0,0,1-1.466-2.078,3.458,3.458,0,0,0-.184-.52c-.122-.307-.3-.825-.458-1.284-1.588-3.941-1.68-4.247-1.68-5.011a2.4,2.4,0,0,1,.122-.795,32.5,32.5,0,0,1,3.086-3.361l1.711-1.742-.612-.06a1.445,1.445,0,0,1-.917-.307,1.735,1.735,0,0,0-.213-.244.962.962,0,0,1-.306-.642,1.463,1.463,0,0,1,.121-.459l.032-.091c.091-.276.153-.307.458-.307h.732a8.02,8.02,0,0,0,.917-.031m4.92,13.17a21.145,21.145,0,0,0,2.322-4.98,1.549,1.549,0,0,1,.092-.368,1.156,1.156,0,0,0,.092-.488.833.833,0,0,0-.122-.489c-.092-.122-.244-.153-.489-.153a2.18,2.18,0,0,0-.611.153l-.153.031c-.061,0-.092,0-.122.031-.031,0-.336.061-.855.183a.261.261,0,0,1-.184.061l-.183.061c-.03,0-.03,0-.061.031-1.374.336-1.406.367-1.5,1.406l-.061.61.428.153a1.585,1.585,0,0,0,.214.122,3.726,3.726,0,0,0,.428.154.612.612,0,0,1,.581.641v.122c-.031.244-.214.429-.733.582a3.511,3.511,0,0,0-1.558,1.924,1.755,1.755,0,0,1-.244.582v.06c0,.062.153.092.368.092.366,0,.457-.061.58-.182.092-.154.123-.184.215-.184a.285.285,0,0,1,.213.093,1.008,1.008,0,0,0,.428.122l.183.03.244.061.031.032c.122,0,.244-.122.458-.49" transform="translate(-82.803 -4.71)" fill="#2a3454"/>
    </g>
  </g>
</svg>
