<svg xmlns="http://www.w3.org/2000/svg" xmlns:xlink="http://www.w3.org/1999/xlink" width="56" height="186" viewBox="0 0 56 186">
  <defs>
    <linearGradient id="linear-gradient" x1="0.5" x2="0.5" y2="1" gradientUnits="objectBoundingBox">
      <stop offset="0" stop-color="#e9a177"/>
      <stop offset="0.379" stop-color="#ddd8b6"/>
      <stop offset="0.626" stop-color="#d8d5b7"/>
      <stop offset="1" stop-color="#8ca793"/>
    </linearGradient>
  </defs>
  <g id="グループ_8581" data-name="グループ 8581" transform="translate(0.262)">
    <rect id="長方形_23835" data-name="長方形 23835" width="56" height="186" rx="5" transform="translate(-0.262)" fill="url(#linear-gradient)"/>
    <path id="長方形_23835_-_アウトライン" data-name="長方形 23835 - アウトライン" d="M5,2A3,3,0,0,0,2,5V181a3,3,0,0,0,3,3H51a3,3,0,0,0,3-3V5a3,3,0,0,0-3-3H5M5,0H51a5,5,0,0,1,5,5V181a5,5,0,0,1-5,5H5a5,5,0,0,1-5-5V5A5,5,0,0,1,5,0Z" transform="translate(-0.262)" fill="#2a3454"/>
    <g id="グループ_8447" data-name="グループ 8447" transform="translate(17.158 17.158)">
      <path id="パス_6129" data-name="パス 6129" d="M191.162,22.466a19.611,19.611,0,0,1-1.894-3.209,1.858,1.858,0,0,0-.887-1.222c-.092,0-.184-.061-.184-.122,0-.122.277-.306.582-.4.519-.091.581-.153.581-.275a28.07,28.07,0,0,0-.4-3.483c-.091-.55-.183-1.132-.214-1.345a4.78,4.78,0,0,1-.825.306,3.6,3.6,0,0,1-.7.06,3.272,3.272,0,0,1-.918-.122,2.759,2.759,0,0,0-.581-.091,8.094,8.094,0,0,0-4.034.947c-.428,1.008-.733,1.925-.978,2.658-.3,1.008-.642,2.017-.764,2.293a10.379,10.379,0,0,1-1.374,2.719c-.153.214-.367.549-.55.856-.214.336-.458.672-.642.672a2.369,2.369,0,0,1-1.772-.856,2.277,2.277,0,0,1-.367-.672,1.436,1.436,0,0,1-.122-.581c0-.092.061-.153.275-.275a1.44,1.44,0,0,0,.276-.183,3.516,3.516,0,0,0,.885-.886,32.262,32.262,0,0,0,4.155-7.426c.856-1.956,2.109-4.8,2.842-6.386a7.655,7.655,0,0,0,.519-1.71c.092-.429.184-.795.306-1.223A4.268,4.268,0,0,1,185.2.863a3.492,3.492,0,0,1,1.8-.734.767.767,0,0,1,.611.215c.06.03.092.152.092.335,0,.122-.031.458-.06.7a2.594,2.594,0,0,0-.031.427,15.432,15.432,0,0,1,1.038,1.558,23.8,23.8,0,0,0,.827,2.934c.4,1.192.855,2.689,1.069,3.7.214.917.428,1.957.611,2.935.214,1.07.457,2.261.7,3.238.123.428.368,1.131.611,1.8a5.714,5.714,0,0,1,.367,1.161,2.648,2.648,0,0,1,.031.55,19.184,19.184,0,0,1-.214,2.475c-.06.336-.274.825-.611.825a.927.927,0,0,1-.885-.519M185.509,4.438c-.336.764-.794,1.742-.978,2.078-.336.886-1.467,3.667-2.2,5.469a5.172,5.172,0,0,1,1.436-.672,2.352,2.352,0,0,0,1.222-.732.768.768,0,0,1,.367-.214.662.662,0,0,1,.307-.061,2.858,2.858,0,0,1,.671.121,21.216,21.216,0,0,1,2.231.519,55.878,55.878,0,0,0-1.559-8.555,7.12,7.12,0,0,0-.733.673,5.816,5.816,0,0,0-.764,1.374" transform="translate(-174.05 -0.129)" fill="#2a3454"/>
      <path id="パス_6130" data-name="パス 6130" d="M178.737,53.144c-.122-.244-.368-.7-.581-1.161A3.773,3.773,0,0,1,177.7,50.7a3.089,3.089,0,0,1,.183-.642,5.755,5.755,0,0,0,.183-.55,22.91,22.91,0,0,0,.4-3.361c.153-2.474.336-5.1.458-6.478.031-.549.214-3.238.3-5.163a12.416,12.416,0,0,0-2.413,1.8c-.306.306-.825.825-.978,1.007a.451.451,0,0,1-.306.093c-.611,0-1.1-1.314-1.222-2.017a2.57,2.57,0,0,0-.153-.55A.425.425,0,0,1,174,34.5c0-.244.183-.489.7-.764a1.8,1.8,0,0,1,.733-.336,2.108,2.108,0,0,0,.244-.092,24.933,24.933,0,0,1,8.555-2.109,13.72,13.72,0,0,1,5.042.581,4.207,4.207,0,0,1,3.148,3.82c0,.733-.275,1.375-.49,1.375-.03,0-.06.031-.152.153a4.838,4.838,0,0,1-.367.428,12.024,12.024,0,0,1-2.995,2.811,21.175,21.175,0,0,1-3.667,2.261c.367.61.886,1.527,1.131,1.985.336.611.611,1.131,1.008,1.895a10.439,10.439,0,0,0,2.536,3.392,3.074,3.074,0,0,0,2.017.947,4.585,4.585,0,0,0,.52-.061,11.446,11.446,0,0,0,2.475-.642,1.338,1.338,0,0,1,.275-.092,1.251,1.251,0,0,0,.274-.122l.031.03a.682.682,0,0,1-.214.215c-.306.275-.366.336-.549.519a.7.7,0,0,0-.154.182c-.03.093-.061.154-.488.551a11.416,11.416,0,0,0-1.864,1.222c-.275.182-.611.457-.795.61a1.481,1.481,0,0,1-1.131.4c-1.222,0-2.047-1.314-2.872-2.627a27.5,27.5,0,0,1-1.711-3.117c-.336-.7-.642-1.436-1.07-2.322s-.764-1.558-1.07-2.139c-.58.275-1.711.734-2.291.947,0,.122-.032.886-.061,1.314-.032.4-.061,1.283-.061,1.62,0,.4,0,.7.03,1.435.032.795.032,1.346.032,1.651a7.644,7.644,0,0,1-.122,1.619c-.032.153-.093.519-.154.887a1.852,1.852,0,0,1-.244.671c-.093.153-.183.183-.4.183a1.014,1.014,0,0,1-1.1-.641m7.211-13.628c2.17-1.8,4.034-4.309,4.034-5.317,0-.458-.367-.795-.856-1.039a10.885,10.885,0,0,0-4.278-.4,17.024,17.024,0,0,0-3.453.764c-.061.519-.092,1.314-.092,1.833,0,.184,0,.642.031,1.5a16.943,16.943,0,0,1-.092,1.711c-.122.917-.213,2.26-.306,3.88a15.135,15.135,0,0,0,5.012-2.933" transform="translate(-174 -1.529)" fill="#2a3454"/>
      <path id="パス_6131" data-name="パス 6131" d="M174.175,89.933a8.912,8.912,0,0,1,.611-1.436c.306-.672.825-1.956,1.161-2.934.275-.947.581-1.8.611-1.864a.112.112,0,0,1,.092-.031,1.883,1.883,0,0,1,1.008.672.894.894,0,0,1,.214.52.393.393,0,0,1-.031.184l-.031.091a8.255,8.255,0,0,0-.214,1.344c-.031.307-.061.612-.061.673,0,.121.031.153.061.153a.11.11,0,0,0,.092-.032A15.879,15.879,0,0,0,180.2,85.38c.581-.55.886-.795.978-.795a.829.829,0,0,1-.244.336,11.234,11.234,0,0,0-1.07,1.742,2.137,2.137,0,0,1-.428.672,3.465,3.465,0,0,0-.55.855,19,19,0,0,1-1.253,2.75,2.28,2.28,0,0,0-.367.886c-.031.337-.122.4-.489.428h-.122c-.275,0-.52-.213-1.375-1.07a6,6,0,0,1-1.1-1.252m9.106-19.006c-.031.032-.031.032-.061.032a1.851,1.851,0,0,1-.917-.7,1.138,1.138,0,0,1-.153-.458c0-.214.122-.336.428-.52a1.417,1.417,0,0,1,.642-.152,2.535,2.535,0,0,1,1.924.855c.215.275.244.825.336,3.056,0,.917.031,1.71.061,2.2v.55c.032,0,.642-.306,1.407-.733a4.459,4.459,0,0,1,1.68-.642,1.37,1.37,0,0,1,.336.031c1.1.153,2.047.795,2.047,1.283a.413.413,0,0,1-.275.367,44.831,44.831,0,0,1-4.156,1.833c-.794.276-.946.4-1.069.7-.062.244-.092,2.169-.092,4.674,0,1.8.03,3.942.06,5.959,0,2.292,0,3.056-.121,3.147a1.137,1.137,0,0,0-.183.642c0,.551-.275.917-.642.917a1.609,1.609,0,0,1-1.1-.642,4.087,4.087,0,0,0-.671-.855,3.924,3.924,0,0,1-.856-1.284,16.777,16.777,0,0,1-.611-2.933c0-.153.031-.244.061-.244.092,0,.244.275.458.733.275.7,1.192,1.742,1.5,1.742.244,0,.367-.7.367-2.659,0-.978-.031-2.261-.092-3.973-.122-4.125-.183-4.8-.428-4.8a10.713,10.713,0,0,0-1.283.4,3.708,3.708,0,0,1-1.283.337,2.975,2.975,0,0,1-.642-.092c-.947-.153-1.986-.672-2.078-1.009a.591.591,0,0,1-.031-.213c0-.275.214-.4.611-.4h.4l.183.031a5.606,5.606,0,0,0,1.283-.215,14.833,14.833,0,0,0,3.116-1.039,9.414,9.414,0,0,0,.123-1.985,17.33,17.33,0,0,0-.275-3.942m8.128,14.178a8.1,8.1,0,0,0-1.864-3.056c-.367-.367-.581-.581-.581-.671,0-.032.031-.032.061-.032a4.257,4.257,0,0,1,1.283.52,7.746,7.746,0,0,1,3.056,2.72,9.207,9.207,0,0,1,2.017,4.278c.031.275.061.55.061.733,0,.611-.153,1.008-.367,1.069a.275.275,0,0,1-.153.031c-.672,0-1.956-1.221-3.025-2.933l-.4-.672.275-.367.244-.336Z" transform="translate(-174.008 -3.237)" fill="#2a3454"/>
      <path id="パス_6132" data-name="パス 6132" d="M174.272,114.29a.285.285,0,0,1,.214-.276c.244-.152,7.089-2.383,9.105-3.024a26.585,26.585,0,0,1,4.552-1.131,11.145,11.145,0,0,1,1.375-.092,3.851,3.851,0,0,1,2.445.611,1.93,1.93,0,0,1,.764,1.62c0,1.07-.611,2.628-1.956,5.1a4.072,4.072,0,0,0-.427.855,1.825,1.825,0,0,1-.368.673,5.158,5.158,0,0,0-.336.61,24.8,24.8,0,0,1-1.466,2.171,13.611,13.611,0,0,0-1.009,1.283c-1.435,1.865-2.413,2.811-3.452,3.147a.667.667,0,0,1-.153.092.656.656,0,0,0-.214.122,3.7,3.7,0,0,1-1.253.489,18.64,18.64,0,0,0-2.322.672c0,.031,0,.031-.031.031v-.031a1.176,1.176,0,0,1,.275-.336c.153-.183.458-.49.642-.672a5.451,5.451,0,0,0,.4-.428,33.282,33.282,0,0,0,4.187-5.073c.306-.457.671-.977.947-1.345a.963.963,0,0,1,.214-.275.658.658,0,0,1,.092-.152,41.34,41.34,0,0,0,2.627-4.462,22.76,22.76,0,0,1,1.284-2.292c.427-.672.61-.978.61-1.161,0-.092-.091-.152-.214-.214a2.482,2.482,0,0,0-.916-.153,3.712,3.712,0,0,0-1.04.153,54.65,54.65,0,0,0-7.058,2.995,24.727,24.727,0,0,1-2.934,1.222,12.709,12.709,0,0,1-2.445.549,2.958,2.958,0,0,1-1.039-.244c-.641-.213-1.1-.7-1.1-1.038m6.508-9.686a.632.632,0,0,0,.214.06,2.624,2.624,0,0,0,.458.062,9.386,9.386,0,0,0,1.528-.215c2.292-.4,4.43-1.07,4.43-1.374,0-.062.032-.092.123-.092a2.5,2.5,0,0,1,1.4.856,1.44,1.44,0,0,1,.306.763c0,.307-.091.4-2.017,1.711-.641.429-2.23,1.681-2.474,1.895a9.953,9.953,0,0,1-3.086,1.925c-.092,0-.122,0-.122-.061a.664.664,0,0,1,.122-.3,1.538,1.538,0,0,1,.214-.245,1.919,1.919,0,0,1,.244-.274c.122-.093.122-.093.153-.153L182.4,109a13.9,13.9,0,0,0,2.139-2.474h-.092a5.6,5.6,0,0,0-.581.06,5.972,5.972,0,0,1-1.436.183,3.238,3.238,0,0,1-1.436-.275c-.611-.275-1.1-.795-1.1-1.16a1.491,1.491,0,0,1,.275-.551l.031-.031a.782.782,0,0,1,.367-.213.567.567,0,0,1,.214.061" transform="translate(-174.012 -4.765)" fill="#2a3454"/>
      <path id="パス_6133" data-name="パス 6133" d="M186.331,138.579c0,.244.031.581.031.978,0,.795,0,2.6.031,4.4v4.4c-.031.519-.092,2.139-.122,3.882-.031.732-.092,1.344-.153,1.924-.031.306-.061.672-.092,1.192-.031.489-.153,1.192-.244,1.711a3.474,3.474,0,0,0-.092.642,1.733,1.733,0,0,1-.489.886l-.031.031h-.092c-.153,0-.244-.245-.336-.519l-.061-.183a2.174,2.174,0,0,1-.092-.244,5.464,5.464,0,0,1-.306-1.375c-.031-.4-.092-1.406-.092-1.986a7.458,7.458,0,0,0-.031-.825c-.031-.4-.031-1.161-.031-2.017v-5.041c0-.4,0-.795-.031-1.283,0-.367,0-.764-.031-1.192v-3.3c0-.244-.031-.458-.031-.7-.031-.488-.061-1.007-.061-1.4-.031-.7-.092-1.345-.153-1.864a.685.685,0,0,0-.031-.214,1.34,1.34,0,0,0-.153-.275c-.061-.062-.122-.122-.122-.184-.031-.121-.214-.243-.4-.335-.153-.062-.275-.122-.275-.183,0-.154.153-.244.306-.307a.8.8,0,0,0,.306-.182,1.486,1.486,0,0,1,.52-.184c.275,0,.764.276,1.589.979.886.732.978.917.978,1.1v.4a.637.637,0,0,1-.122.459.734.734,0,0,0-.092.427Z" transform="translate(-174.399 -6.197)" fill="#2a3454"/>
    </g>
  </g>
</svg>
