<svg id="グループ_8583" data-name="グループ 8583" xmlns="http://www.w3.org/2000/svg" xmlns:xlink="http://www.w3.org/1999/xlink" width="56" height="160" viewBox="0 0 56 160">
  <defs>
    <linearGradient id="linear-gradient" x1="0.5" x2="0.5" y2="1" gradientUnits="objectBoundingBox">
      <stop offset="0" stop-color="#e9a177"/>
      <stop offset="0.379" stop-color="#ddd8b6"/>
      <stop offset="0.626" stop-color="#d8d5b7"/>
      <stop offset="1" stop-color="#8ca793"/>
    </linearGradient>
  </defs>
  <rect id="長方形_23833" data-name="長方形 23833" width="56" height="160" rx="5" fill="url(#linear-gradient)"/>
  <path id="長方形_23833_-_アウトライン" data-name="長方形 23833 - アウトライン" d="M5,2A3,3,0,0,0,2,5V155a3,3,0,0,0,3,3H51a3,3,0,0,0,3-3V5a3,3,0,0,0-3-3H5M5,0H51a5,5,0,0,1,5,5V155a5,5,0,0,1-5,5H5a5,5,0,0,1-5-5V5A5,5,0,0,1,5,0Z" fill="#2a3454"/>
  <g id="グループ_8443" data-name="グループ 8443" transform="translate(17.158 17.158)">
    <path id="パス_6119" data-name="パス 6119" d="M354.987,22.612c0-.031-.061-.122-.214-.183a2.108,2.108,0,0,0-.611-.122c-.031,0-.336-.031-.55-.061a2.483,2.483,0,0,1-1.161-.367,2.385,2.385,0,0,0-.488-.244.824.824,0,0,1-.458-.337,25.856,25.856,0,0,0,5.805-.58c1.986-.643,4.309-2.262,4.859-3.911a4.79,4.79,0,0,0,.275-1.529,3.781,3.781,0,0,0-.948-2.413,5,5,0,0,0-2.963-1.222,6.834,6.834,0,0,0-1.161-.061c-.917,0-1.192-.061-1.253-.122a2.317,2.317,0,0,1-.428-.825.572.572,0,0,1,.336-.489,12.84,12.84,0,0,0,4.248-2.414A6.052,6.052,0,0,0,362.107,5.1a2.607,2.607,0,0,0,.121-.824,2.821,2.821,0,0,0-.641-1.864,3.7,3.7,0,0,0-2.75-.886,5.131,5.131,0,0,0-3.209,1.527,6.63,6.63,0,0,0-.642.764c-.244.337-.519.7-.886.7-.489,0-.672-.337-.856-.672a1.163,1.163,0,0,0-.336-.429c-.367-.335-.458-.488-.458-.7s.214-.428.642-.795a7.809,7.809,0,0,1,.917-.642c.275-.153.55-.306.7-.4A10.034,10.034,0,0,1,359.082,0a6.228,6.228,0,0,1,3.575,1.621c.213.153.427.306.671.488a3.511,3.511,0,0,1,1.62,2.415,6.66,6.66,0,0,1-2.261,4.369,8.2,8.2,0,0,1-1.8,1.4,6.133,6.133,0,0,1,2.414,1.254,5.64,5.64,0,0,1,1.863,4.216,5.5,5.5,0,0,1-.091,1.04c-.429,2.413-3.209,4.308-4.461,4.8a18.479,18.479,0,0,1-5.317,1.131c-.306,0-.306-.031-.306-.122" transform="translate(-348.158 0)" fill="#2a3454"/>
    <path id="パス_6120" data-name="パス 6120" d="M351.449,52.071c0-.367.031-1.253.061-1.895.061-1.1.122-2.261.122-2.506,0-.122.061-2.566.122-4.277.061-1.65.153-3.239.183-3.454.061-.885.122-2.26.153-3.208a4.652,4.652,0,0,0-.978.672.564.564,0,0,1-.367.153c-.611,0-1.07-1.039-1.161-1.62-.03-.214-.091-.489-.153-.519a.436.436,0,0,1-.153-.336c0-.244.244-.55.7-.795a2.48,2.48,0,0,1,.978-.4c.367-.061.947-.153,1.192-.183a1.8,1.8,0,0,1,.4-1.131.184.184,0,0,1,.122-.031,2.6,2.6,0,0,1,.917.307,6.576,6.576,0,0,0,.764.3c.214.061.306.093.4.123a33.175,33.175,0,0,1,4.706-.459,9.252,9.252,0,0,1,6.172,2.537,8.772,8.772,0,0,1,1.62,4.674c.092.672.183,1.344.336,2.17a3.583,3.583,0,0,1,.092.488,1.091,1.091,0,0,1-.275.642,2.744,2.744,0,0,0-.428.672,16.583,16.583,0,0,1-2.323,3.82,10.855,10.855,0,0,1-1.833,2.17c-.427.367-1.466,1.314-1.588,1.436A12.587,12.587,0,0,1,357.1,53.6a2.14,2.14,0,0,0-.917.244,1.774,1.774,0,0,1-.581.244c-.122,0-.672.031-1.192.092-.642.061-1.1.061-1.161.061a1.324,1.324,0,0,1-1.222.58c-.428,0-.581-1.007-.581-2.749m3.759.856c.642-.337,1.253-.7,1.5-.825a15.442,15.442,0,0,0,2.934-2.506,36.137,36.137,0,0,0,5.072-7.273,8.223,8.223,0,0,0,.947-3.574,3.71,3.71,0,0,0-.886-2.567c-1.192-1.375-3.7-1.681-5.287-1.681a13.624,13.624,0,0,0-4.277.857c-.061.244-.153.519-.306,1.038a6.564,6.564,0,0,0-.275,1.345c-.061.7-.214,1.742-.4,2.964-.214,1.558-.367,2.9-.458,4.553-.061,1.221-.214,4.094-.306,5.5-.061,1.131-.122,2.506-.122,2.964a8.507,8.507,0,0,0,1.864-.795" transform="translate(-348.058 -1.466)" fill="#2a3454"/>
    <path id="パス_6121" data-name="パス 6121" d="M365.162,98.626a19.742,19.742,0,0,1-1.894-3.209,1.854,1.854,0,0,0-.886-1.222c-.093,0-.184-.061-.184-.122,0-.122.276-.306.581-.4.519-.091.582-.153.582-.275a28.264,28.264,0,0,0-.4-3.483c-.092-.55-.184-1.132-.214-1.345a4.838,4.838,0,0,1-.825.306,3.6,3.6,0,0,1-.7.06,3.27,3.27,0,0,1-.917-.122,2.767,2.767,0,0,0-.581-.091,8.091,8.091,0,0,0-4.034.947c-.428,1.008-.733,1.925-.978,2.658-.306,1.008-.643,2.017-.764,2.293a10.35,10.35,0,0,1-1.375,2.719c-.153.214-.366.549-.55.856-.213.336-.458.672-.642.672a2.371,2.371,0,0,1-1.772-.856,2.3,2.3,0,0,1-.366-.672,1.437,1.437,0,0,1-.122-.581c0-.092.061-.153.275-.275a1.466,1.466,0,0,0,.275-.183,3.52,3.52,0,0,0,.886-.886,32.261,32.261,0,0,0,4.155-7.426c.856-1.956,2.109-4.8,2.842-6.386a7.658,7.658,0,0,0,.52-1.71c.092-.429.183-.795.306-1.223a4.269,4.269,0,0,1,.825-1.649,3.488,3.488,0,0,1,1.8-.734.767.767,0,0,1,.611.215c.06.03.091.152.091.335,0,.122-.031.458-.06.7a2.673,2.673,0,0,0-.031.427,15.612,15.612,0,0,1,1.038,1.558,23.768,23.768,0,0,0,.826,2.934c.4,1.192.856,2.689,1.069,3.7.214.917.429,1.957.611,2.935.215,1.07.457,2.261.7,3.238.122.428.368,1.131.611,1.8a5.635,5.635,0,0,1,.366,1.161,2.57,2.57,0,0,1,.031.55,19.19,19.19,0,0,1-.214,2.475c-.061.336-.275.825-.612.825a.927.927,0,0,1-.885-.52M359.51,80.6c-.336.764-.795,1.742-.978,2.078-.336.886-1.467,3.667-2.2,5.469a5.16,5.16,0,0,1,1.436-.672,2.356,2.356,0,0,0,1.222-.732.764.764,0,0,1,.367-.214.657.657,0,0,1,.306-.061,2.855,2.855,0,0,1,.672.121,21.279,21.279,0,0,1,2.231.519,56.107,56.107,0,0,0-1.559-8.555,7.022,7.022,0,0,0-.734.673,5.824,5.824,0,0,0-.763,1.374" transform="translate(-348.051 -3.437)" fill="#2a3454"/>
    <path id="パス_6122" data-name="パス 6122" d="M352.737,129.3c-.122-.245-.368-.7-.581-1.161a3.773,3.773,0,0,1-.458-1.283,3.087,3.087,0,0,1,.183-.642,5.794,5.794,0,0,0,.183-.55,22.908,22.908,0,0,0,.4-3.361c.153-2.474.336-5.1.458-6.478.03-.549.214-3.238.3-5.163a12.413,12.413,0,0,0-2.413,1.8c-.306.306-.825.825-.978,1.007a.451.451,0,0,1-.306.093c-.611,0-1.1-1.314-1.222-2.017a2.565,2.565,0,0,0-.153-.55.425.425,0,0,1-.153-.336c0-.244.183-.489.7-.764a1.8,1.8,0,0,1,.733-.336,2.106,2.106,0,0,0,.244-.092,24.934,24.934,0,0,1,8.555-2.109,13.72,13.72,0,0,1,5.042.581,4.207,4.207,0,0,1,3.148,3.82c0,.733-.275,1.375-.49,1.375-.03,0-.06.031-.152.153a4.822,4.822,0,0,1-.367.428,12.023,12.023,0,0,1-2.995,2.811,21.175,21.175,0,0,1-3.667,2.261c.367.61.886,1.527,1.131,1.985.336.611.611,1.131,1.008,1.895a10.44,10.44,0,0,0,2.536,3.392,3.074,3.074,0,0,0,2.017.947,4.587,4.587,0,0,0,.52-.061,11.447,11.447,0,0,0,2.475-.642,1.335,1.335,0,0,1,.275-.092,1.25,1.25,0,0,0,.274-.122l.031.03a.682.682,0,0,1-.214.215c-.306.275-.366.336-.549.519a.7.7,0,0,0-.154.182c-.03.093-.061.154-.488.551a11.421,11.421,0,0,0-1.864,1.222c-.275.182-.611.457-.794.61a1.481,1.481,0,0,1-1.131.4c-1.222,0-2.047-1.314-2.873-2.627a27.513,27.513,0,0,1-1.711-3.117c-.336-.7-.642-1.436-1.07-2.322s-.764-1.558-1.07-2.139c-.58.275-1.711.734-2.291.947,0,.122-.031.886-.061,1.314-.032.4-.061,1.283-.061,1.62,0,.4,0,.7.03,1.435.032.795.032,1.346.032,1.651a7.641,7.641,0,0,1-.122,1.619c-.031.153-.093.519-.154.887a1.851,1.851,0,0,1-.243.671c-.093.153-.183.183-.4.183a1.014,1.014,0,0,1-1.1-.641m7.211-13.628c2.17-1.8,4.034-4.309,4.034-5.317,0-.458-.367-.795-.856-1.039a10.884,10.884,0,0,0-4.278-.4,17.025,17.025,0,0,0-3.453.764c-.061.519-.092,1.314-.092,1.833,0,.184,0,.642.031,1.5a16.943,16.943,0,0,1-.092,1.711c-.122.917-.213,2.26-.306,3.88a15.134,15.134,0,0,0,5.012-2.933" transform="translate(-348 -4.837)" fill="#2a3454"/>
  </g>
</svg>
