<svg xmlns="http://www.w3.org/2000/svg" width="13.43" height="13.43" viewBox="0 0 13.43 13.43">
  <g id="Icon_feather-external-link" data-name="Icon feather-external-link" transform="translate(-3 -3)">
    <path id="パス_6119" data-name="パス 6119" d="M25.7,8.372a.671.671,0,0,1-.671-.671V4.343H21.671a.671.671,0,0,1,0-1.343H25.7a.671.671,0,0,1,.671.671V7.7A.671.671,0,0,1,25.7,8.372Z" transform="translate(-9.942 0)" fill="#2a3454"/>
    <path id="パス_6118" data-name="パス 6118" d="M12.4,18.915H5.014A2.017,2.017,0,0,1,3,16.9V9.514A2.017,2.017,0,0,1,5.014,7.5H9.043a.671.671,0,1,1,0,1.343H5.014a.672.672,0,0,0-.671.671V16.9a.672.672,0,0,0,.671.671H12.4a.672.672,0,0,0,.671-.671V12.872a.671.671,0,1,1,1.343,0V16.9A2.017,2.017,0,0,1,12.4,18.915Z" transform="translate(0 -2.485)" fill="#2a3454"/>
    <path id="パス_6120" data-name="パス 6120" d="M14.171,11.729a.671.671,0,0,1-.475-1.146L21.083,3.2a.671.671,0,1,1,.95.95l-7.386,7.386A.669.669,0,0,1,14.171,11.729Z" transform="translate(-5.8)" fill="#2a3454"/>
  </g>
</svg>
