<svg id="グループ_8010" data-name="グループ 8010" xmlns="http://www.w3.org/2000/svg" xmlns:xlink="http://www.w3.org/1999/xlink" width="82.531" height="82.52" viewBox="0 0 82.531 82.52">
  <defs>
    <clipPath id="clip-path">
      <rect id="長方形_23627" data-name="長方形 23627" width="82.531" height="82.52" fill="#2a3454"/>
    </clipPath>
  </defs>
  <g id="グループ_8010-2" data-name="グループ 8010" clip-path="url(#clip-path)">
    <path id="パス_5947" data-name="パス 5947" d="M0,44.594V37.936c.1-.125.267-.245.277-.376.066-.881.111-1.753.241-2.638.213-1.452.607-2.844.912-4.266A31.492,31.492,0,0,1,3.5,24.564a38.71,38.71,0,0,1,3.16-5.782A41.99,41.99,0,0,1,11.2,12.989a38.909,38.909,0,0,1,5.181-4.608,36.157,36.157,0,0,1,5.014-3.27A42.688,42.688,0,0,1,27,2.586,28,28,0,0,1,33.386.879C33.857.4,34.5.758,34.991.56A2.855,2.855,0,0,1,36.616.321C37.226.439,37.671,0,38.236,0c1.5.02,2.992-.031,4.486.017C44.179.069,45.634.2,47.089.3a.5.5,0,0,1,.144,0,35.958,35.958,0,0,0,4.6,1.105,56.443,56.443,0,0,1,6.22,2.123c1.324.523,2.535,1.329,3.812,1.976a26.372,26.372,0,0,1,3.66,2.334,36.484,36.484,0,0,1,3.351,2.735,41.177,41.177,0,0,1,5.536,6.093,40.276,40.276,0,0,1,2.911,4.58,53.64,53.64,0,0,1,3.013,6.569,16,16,0,0,1,.975,3.348c.16,1.233.814,2.379.619,3.662.472.472.22,1.072.294,1.616a16.17,16.17,0,0,1,.271,1.618c.041,1.253.051,2.51,0,3.762a11.546,11.546,0,0,1-.257,3.8c-.238.635.051,1.343-.249,2.068a8.642,8.642,0,0,0-.322,2.029,32.185,32.185,0,0,1-1.1,4.185,16.678,16.678,0,0,1-.982,2.919,33.013,33.013,0,0,1-1.521,3.267c-.556.878-1.068,1.8-1.592,2.69a35.41,35.41,0,0,1-4.8,6.394c-1,1.049-2,2.092-3.076,3.063a25.831,25.831,0,0,1-3.355,2.732,46.766,46.766,0,0,1-6.673,3.791,45.869,45.869,0,0,1-5.78,2.134,33.167,33.167,0,0,1-7.109,1.341c-.21.011-.515-.113-.519.287H37.346c-.076-.1-.156-.28-.228-.277a16.882,16.882,0,0,1-4.385-.594c-.838-.183-1.678-.361-2.5-.583a24.727,24.727,0,0,1-3.043-1.026c-.658-.273-1.37-.42-2.015-.716-1.418-.651-2.845-1.3-4.2-2.064a44.638,44.638,0,0,1-3.992-2.571,29.293,29.293,0,0,1-3.241-2.636A36.737,36.737,0,0,1,8.4,66.178c-.94-1.4-2.055-2.7-2.872-4.164a43.253,43.253,0,0,1-2.8-5.918,14.741,14.741,0,0,1-1.288-4.382,7.913,7.913,0,0,1-.8-3.122,9.879,9.879,0,0,1-.365-3.482c.031-.2.118-.513-.281-.517m75.271-3.271c0-.724.006-1.448,0-2.171a7.09,7.09,0,0,0-.249-2.209,17.046,17.046,0,0,1-.279-2.048c-.229-1.207-.615-2.361-.885-3.547-.194-.854-.636-1.582-.885-2.388a25.743,25.743,0,0,0-2.983-6c-.861-1.377-1.961-2.578-2.92-3.872a28.915,28.915,0,0,0-4.982-4.813,13.082,13.082,0,0,0-4.359-2.71c-.995-1.088-2.515-1.166-3.7-1.915a7.522,7.522,0,0,0-2.5-.927c-1.47-.3-2.874-.939-4.412-.893-.422-.444-.973-.23-1.472-.3-.542-.071-1.076-.238-1.619-.271-.769-.048-1.543-.012-2.315-.012-.724,0-1.449-.026-2.171.007a6.822,6.822,0,0,0-2.215.233c-.656.243-1.446.079-2.187.31-.994.309-2.057.386-3.078.619-.562.129-1.09.4-1.646.563a20.4,20.4,0,0,0-3.97,1.582,34.693,34.693,0,0,0-5.109,3.057c-1.127.9-2.281,1.77-3.35,2.734a30.592,30.592,0,0,0-3.71,4.241,30.062,30.062,0,0,0-2.847,4.327A22.922,22.922,0,0,0,9.6,28.647c-.431,1.412-.917,2.818-1.309,4.248A47,47,0,0,0,7.26,38.967a14.15,14.15,0,0,0-.008,2.891,8.8,8.8,0,0,0,.172,2.818,21.633,21.633,0,0,1,.336,2.747c.252,1.052.43,2.157.755,3.175a36.627,36.627,0,0,0,2.895,7.053,38.37,38.37,0,0,0,4.665,6.591,52.84,52.84,0,0,0,4.16,3.905A11.105,11.105,0,0,0,21.679,69.2a35.2,35.2,0,0,0,6.242,3.45,39.287,39.287,0,0,0,5.628,1.809,8.725,8.725,0,0,1,1.888.3,4.084,4.084,0,0,0,1.356.235,7.682,7.682,0,0,0,1.472.274c3.112-.046,6.23.214,9.326-.513a30.33,30.33,0,0,1,3.213-.695,12.981,12.981,0,0,0,1.774-.573,16.637,16.637,0,0,0,1.835-.807c.573-.247,1.174-.436,1.729-.717.8-.406,1.561-.887,2.354-1.309a29.014,29.014,0,0,0,5.454-3.928A29.756,29.756,0,0,0,68.5,61.686a32.96,32.96,0,0,0,4-6.892,39.915,39.915,0,0,0,1.668-4.818,28.672,28.672,0,0,0,.772-3.423,14.438,14.438,0,0,0,.341-3.784,11.316,11.316,0,0,1-.01-1.446" transform="translate(0 0)" fill="#2a3454"/>
    <path id="パス_5948" data-name="パス 5948" d="M138.485,270.839l2.4,1.844a9.417,9.417,0,0,1-3.24,1.828c-1.917.916-3.975.5-5.98.585a27.2,27.2,0,0,1-4.732-1.883,19.861,19.861,0,0,1-4.389-3.663,21.178,21.178,0,0,1-2.159-3.149,12.327,12.327,0,0,0-1.96-2.658,15.552,15.552,0,0,0-2.845-2.561,4.731,4.731,0,0,0-.7-.4,2.063,2.063,0,0,1-1.323-1.606c-.217-.811.278-1.556,1.1-1.428a2.178,2.178,0,0,1,1.2.561,17.1,17.1,0,0,1,2.607,2.812,11.217,11.217,0,0,0,1.6,1.66c.344.371.849.621.943,1.2.009.055.243.075.373.111.034-.163.073-.324.095-.488,0-.029-.064-.067-.1-.1q-2.559-2.7-5.121-5.4c-.237-.248-.558-.417-.8-.663a1.937,1.937,0,0,1-.552-1.926c.6-.285,1,0,1.5.367a13.021,13.021,0,0,1,2.6,2.4,24.987,24.987,0,0,1,2.9,3.709,1.152,1.152,0,0,0,.829.531,9.991,9.991,0,0,0-.79-1.326,37.152,37.152,0,0,0-4.192-4.776c-.308-.267-.468-.743-1-.737-.1,0-.214-.182-.305-.293a1.491,1.491,0,0,1-.214-1.77,1.361,1.361,0,0,1,1.661.062,10.6,10.6,0,0,1,4.038,4.928c2.2-.53,2.649-.794,4.987,1.694.369-.7.45-1.737,1.853-1.333l1.912,2.279c.283-.484-.185-1.261.66-1.489a5.157,5.157,0,0,1,3.018,4.047c.836,0,1.738.011,2.64,0a4.385,4.385,0,0,1,4.222,3.6c.058.525.592,1.072.157,1.554a4.806,4.806,0,0,1-1.376.836c-.507.266-1.11.383-1.522,1.052m-15.363-9.8c.435,1.269.971,1.986,2.031,2.189a1.282,1.282,0,0,1,.388.1c1.613.913,3.448,1.081,5.194,1.665a1.6,1.6,0,0,0-1.3-1.758c-1.132-.273-2.207-.72-3.37-.928a14.672,14.672,0,0,1-2.947-1.272m9.324,9.978c.049-.1.1-.154.084-.178a1.7,1.7,0,0,0-2.425-.993c-.427.139-.9.167-1.306.339a2.679,2.679,0,0,1-3-.341c.43.845.434.924.979,1.06a2.5,2.5,0,0,0,1.344.017.792.792,0,0,1,.723.007,2.189,2.189,0,0,1,1.26,1.411c.35-.925-.276-1.2-.621-1.605a.57.57,0,0,1-.068-.19l.983-.426,1.018,1.755c-.1-.562-.153-.849-.2-1.138-.028-.182-.04-.367-.085-.8l1.315,1.084m1.881-4.825c.388.3.83.43.846,1.126.017.733.273,1.481,1.285,1.425.6.673,1.11.064,1.57-.187a1.088,1.088,0,0,0,.441-1.591c-1.473.308-2.684-.729-4.142-.773m-9.787,2.236a2.828,2.828,0,0,0,2.362-.558c.294.294.555.582.848.829.072.061.254-.008.382-.018.005-.442-.763-.5-.442-1.045.713-.025.787.783,1.506,1.264l-.462-1.24c.831-.06.885.776,1.5,1.139-.047-.857-.48-1.4-1.061-1.476a3.742,3.742,0,0,0-2.483.237c-.342.2-.765.262-1.105.465-.253.152-.393.014-.609-.02-.77-.121-.772-.96-1.358-1.344-.295.984.592,1.241.92,1.767" transform="translate(-103.005 -229.921)" fill="#2a3454"/>
    <path id="パス_5949" data-name="パス 5949" d="M485.607,261.755a11.079,11.079,0,0,0,1.995-2.35,23.245,23.245,0,0,1,4.682-4.831.509.509,0,0,1,.247-.1c.24-.013.481,0,.722,0,.22,1.342.075,1.456-.9,2.39a16.533,16.533,0,0,0-2.809,3.013,13.4,13.4,0,0,1-1.706,1.761,4.7,4.7,0,0,0-1,1.536c.212-.1.548-.157.615-.321a4.991,4.991,0,0,1,1.146-1.406c.992-1.082,1.959-2.188,2.977-3.245a11.033,11.033,0,0,1,1.407-1.131,1.009,1.009,0,0,1,1.377-.047,1.092,1.092,0,0,1,.368,1.483,3.14,3.14,0,0,1-1.253,1.461,9.344,9.344,0,0,0-2.394,2.353c-.794,1.069-1.626,2.109-2.435,3.155-.992-.467-1.17-.385-2.488,1.153.907.056,1.142-1.4,2.261-.715.065.145.388.515.315.773a5.519,5.519,0,0,1-.849,1.806,7.493,7.493,0,0,1-1.643,1.6,20.819,20.819,0,0,1-2.844,1.156c-.27.135-.665.021-1,.021h-3.314a9.292,9.292,0,0,1-1.934,1.646,7.122,7.122,0,0,1-4.692.459,20.274,20.274,0,0,1-2.494-.622,7.667,7.667,0,0,1-1.343-.608c-1.115-.635-1.184-.788-.731-2.216-.48-.48-1.006-1-1.523-1.525a1.393,1.393,0,0,1-.31-1.766,4.906,4.906,0,0,1,3.507-2.953,15.827,15.827,0,0,1,3.508-.209A10.082,10.082,0,0,0,478.54,262a11.736,11.736,0,0,0,2.79-1.986,2.876,2.876,0,0,1,2.23-.908c.819-.012,1.638,0,2.507,0,.95-2.551,2.818-4.436,4.771-6.242a4.2,4.2,0,0,1,1.255-.531c.173.44.455.8.4,1.095a2.154,2.154,0,0,1-.67,1.011c-.68.646-1.439,1.208-2.115,1.857a61.33,61.33,0,0,0-4.088,4.96c-.064.076-.008.253-.008.5m-11.49,3.106c-1.555.679-2.883,1.347-4.4,1.183-.106.58-.136,1.018.291,1.389a1.733,1.733,0,0,0,1.318.626,2.31,2.31,0,0,0,1.226-.471,2.035,2.035,0,0,0,.549-1.188c.061-.544.19-.893.778-.972.065-.009.1-.232.236-.567" transform="translate(-422.756 -228.984)" fill="#2a3454"/>
    <path id="パス_5950" data-name="パス 5950" d="M143.1,567.685c.457-.284.793-.526,1.156-.713,2.11-1.086,4.151-2.3,6.214-3.468a51.865,51.865,0,0,0,5.253-3.052.8.8,0,0,1,.755.079,16.687,16.687,0,0,1,3.363,3.948,1.161,1.161,0,0,1,0,1.04,10.047,10.047,0,0,1-2.259,2.431c-.744.527-1.51,1.055-2.282,1.521a15.191,15.191,0,0,1-3.346,1.328,11.008,11.008,0,0,1-4.07.257,4.647,4.647,0,0,1-2.931-1.256c-.64-.613-1.177-1.332-1.856-2.115" transform="translate(-129.856 -508.54)" fill="#2a3454"/>
    <path id="パス_5951" data-name="パス 5951" d="M582.8,566.439a6.469,6.469,0,0,1-4.074,3.269,5.063,5.063,0,0,1-.789.181c-.577.028-1.157-.012-1.734.013a9.821,9.821,0,0,1-4.1-.931,17.741,17.741,0,0,1-4.469-2.789,12.014,12.014,0,0,1-1.737-2.2c.78-2.042,2.25-3.406,3.776-4.9,2.224,1.088,4.367,2.393,6.556,3.6s4.375,2.5,6.566,3.754" transform="translate(-513.544 -507.353)" fill="#2a3454"/>
    <path id="パス_5952" data-name="パス 5952" d="M483.9,93.844h.8a1.485,1.485,0,0,1,.432.006c1.684.538,3.474.638,5.142,1.213a38.841,38.841,0,0,1,6.133,2.661c1.263.7,2.5,1.445,3.693,2.258a16.715,16.715,0,0,1,2.137,1.832c1.352,1.308,2.674,2.647,3.989,3.994a2.759,2.759,0,0,1,.341.792,5.932,5.932,0,0,1-1.312-.355,22.738,22.738,0,0,0-3.865-1.5c-1.874-.617-3.759-1.206-5.685-1.67-.949-.229-1.92-.433-2.862-.755a14.975,14.975,0,0,0-1.879-.363c-.584-.114-1.178-.175-1.759-.3a.7.7,0,0,1-.579-.69,8.846,8.846,0,0,0-2.848-5.759,20.85,20.85,0,0,0-1.876-1.36" transform="translate(-439.13 -85.148)" fill="#2a3454"/>
    <path id="パス_5953" data-name="パス 5953" d="M163.272,107.263c.94-1.618,2.432-2.736,3.677-4.075a25.391,25.391,0,0,1,4.255-3.364,29.38,29.38,0,0,1,4.477-2.462A29.024,29.024,0,0,1,180.6,95.6a23.327,23.327,0,0,1,5.183-.926,8.715,8.715,0,0,0-4.324,5.585,3.327,3.327,0,0,0-.3,1.474.576.576,0,0,1-.564.679c-.967.061-1.855.468-2.8.585-1.536.191-2.976.787-4.488,1.038-1.259.209-2.394.777-3.636,1.041a26.6,26.6,0,0,0-2.642.942c-1.184.39-2.334.885-3.5,1.324-.064.024-.166-.051-.256-.082" transform="translate(-148.165 -85.917)" fill="#2a3454"/>
    <path id="パス_5954" data-name="パス 5954" d="M612.271,505.315c1.034-.9,2.031-1.734,2.99-2.612a24.554,24.554,0,0,0,2.031-2.046,1.1,1.1,0,0,1,1.274-.375,12.12,12.12,0,0,1,4.093,2.308,10.687,10.687,0,0,1,2.469,3.16,7.559,7.559,0,0,1,.178,6.621c-.81.239-1.369-.373-1.943-.723-1.227-.748-2.541-1.336-3.741-2.126-1.237-.814-2.624-1.36-3.85-2.209a31.58,31.58,0,0,0-2.811-1.559c-.2-.11-.385-.244-.691-.439" transform="translate(-555.621 -453.923)" fill="#2a3454"/>
    <path id="パス_5955" data-name="パス 5955" d="M139.164,500.1l5.538,5.017c-.144.613-.91.786-1.446,1.1-2.084,1.217-4.234,2.321-6.337,3.5-1.443.812-2.829,1.728-4.34,2.418a5.352,5.352,0,0,1-.749.223c-1.283-2.867-.834-4.984.545-7.474a8.867,8.867,0,0,1,4.4-3.878c.822-.344,1.667-.636,2.391-.91" transform="translate(-118.943 -453.827)" fill="#2a3454"/>
    <path id="パス_5956" data-name="パス 5956" d="M174.517,670.284a11,11,0,0,0,3.466.582,11.857,11.857,0,0,0,4.068-.975,1.528,1.528,0,0,1,.942-.149c.333.045.5.3.6.677.075.283.433.492.67.729,1.565,1.567,3.094,3.174,4.708,4.69a32.852,32.852,0,0,0,7.53,5.525.542.542,0,0,1,.341.479c-.761-.083-1.526-.145-2.283-.255a22.051,22.051,0,0,1-2.284-.415,9.915,9.915,0,0,0-2.293-.683c-.856.01-1.407-.606-2.212-.683a6.5,6.5,0,0,1-2.079-.871,17.059,17.059,0,0,0-2.008-1.078,10.445,10.445,0,0,1-1.971-1.171c-.664-.395-1.235-.962-1.924-1.294-.8-.385-1.2-1.207-1.939-1.6a7.485,7.485,0,0,1-1.78-1.6c-.529-.547-1.284-.943-1.548-1.907" transform="translate(-158.37 -607.759)" fill="#2a3454"/>
    <path id="パス_5957" data-name="パス 5957" d="M498.185,670.376a33.154,33.154,0,0,1-12.58,9.167,27.3,27.3,0,0,1-10.027,2.221c.243-.133.5-.248.728-.4,1.207-.81,2.423-1.609,3.607-2.452,1.729-1.232,3.205-2.761,4.8-4.143,1.541-1.332,2.7-3,4.223-4.33.783-.686.77-.863,1.6-.325.546.355,1.236,0,1.668.525,1.17.006,2.3.524,3.481.3.568-.107,1.112-.338,1.675-.483a5.348,5.348,0,0,1,.824-.078" transform="translate(-431.576 -607.824)" fill="#2a3454"/>
    <path id="パス_5958" data-name="パス 5958" d="M726.113,361.914a9.843,9.843,0,0,0-.682-4.906,14.767,14.767,0,0,0-3.1-3.692c.823-1.651,1.722-3.3,2.477-5.007a35.918,35.918,0,0,0,2.5-6.908,16.334,16.334,0,0,0,.6-2.36,12.127,12.127,0,0,1,.71-2.451c.4,1.709.769,3.281,1.05,4.89a30.421,30.421,0,0,1,.216,4.224,28.207,28.207,0,0,1-.028,4.327,31.806,31.806,0,0,1-.556,3.66c-.269,1.126-.75,2.2-1,3.332-.289,1.28-1.069,2.357-1.363,3.63-.082.354-.412.651-.821,1.263" transform="translate(-655.496 -305.447)" fill="#2a3454"/>
    <path id="パス_5959" data-name="パス 5959" d="M91.246,363.067a29.559,29.559,0,0,1-2.394-5.693c-.305-1.086-.548-2.183-.811-3.277-.761-3.171-.539-6.383-.537-9.585a29.122,29.122,0,0,1,.473-2.959c.13-1.241.73-2.357.673-3.669.643.527.439,1.2.6,1.772.406,1.419.74,2.86,1.212,4.26.3.887.584,1.779.92,2.651a47.891,47.891,0,0,0,2.643,5.837,5.281,5.281,0,0,0,.808,1.4.614.614,0,0,1-.061.979c-.213.195-.395.425-.617.608a9.294,9.294,0,0,0-2.745,4.5,3.434,3.434,0,0,0-.157.944c-.024.657-.009,1.315-.011,2.232" transform="translate(-79.38 -306.623)" fill="#2a3454"/>
    <path id="パス_5960" data-name="パス 5960" d="M270.982,634.992a17.046,17.046,0,0,0,4.359-3.148,26.912,26.912,0,0,1,10.192,15.445,8.934,8.934,0,0,1-1.056-.452c-1.479-.886-2.922-1.823-4.317-2.843-3.052-2.232-5.553-5.047-8.224-7.681a9.549,9.549,0,0,1-.953-1.322" transform="translate(-245.91 -573.384)" fill="#2a3454"/>
    <path id="パス_5961" data-name="パス 5961" d="M474.748,632.06c1.076,1.3,2.54,1.955,3.783,2.9.453.345.532.551.2.912-.391.425-.813.821-1.221,1.229q-2.042,2.042-4.084,4.085a47.022,47.022,0,0,1-6.766,5.291,14.114,14.114,0,0,1-2.074.992c1.01-5.355,4.369-10.825,10.162-15.411" transform="translate(-421.601 -573.58)" fill="#2a3454"/>
    <path id="パス_5962" data-name="パス 5962" d="M106.494,327.62a15.194,15.194,0,0,1,2.229,1.062,20.316,20.316,0,0,1,4.98,5.268,2.483,2.483,0,0,1,.3,1.168,11.872,11.872,0,0,1,.007,1.731c-.121,1.919.776,3.5,1.652,5.093a14.317,14.317,0,0,0,.927,1.319,14.885,14.885,0,0,0-3.829,1.592,48.934,48.934,0,0,1-6.261-17.234" transform="translate(-96.641 -297.307)" fill="#2a3454"/>
    <path id="パス_5963" data-name="パス 5963" d="M414.268,231.261V215.671a1.4,1.4,0,0,1,.868,1.536,3.865,3.865,0,0,0,.687,2.453,3,3,0,0,1,.461,1.838,3.445,3.445,0,0,0,.275,1.477,4.216,4.216,0,0,1,.318,1.9,6.467,6.467,0,0,0,.452,2.122,3.062,3.062,0,0,1-.047,1.761,7.868,7.868,0,0,1-2.368,3.794,6.156,6.156,0,0,0-.493.512,6.15,6.15,0,0,1-3.391-4.216,4.26,4.26,0,0,1,.182-2.753,4.431,4.431,0,0,0,.15-1.238,3.251,3.251,0,0,1,.289-1.763,2.248,2.248,0,0,0,.187-.5c.276-.788-.2-1.754.427-2.415.591-.626.373-1.491.829-2.128a.616.616,0,0,0,.005-.426,2.59,2.59,0,0,1,.876-2.294v15.942l.295-.011" transform="translate(-372.86 -195.407)" fill="#2a3454"/>
    <path id="パス_5964" data-name="パス 5964" d="M685.775,325.808a46.071,46.071,0,0,1-6.254,17.383,13.911,13.911,0,0,0-3.846-1.573,9.31,9.31,0,0,0,2.606-5.465,1.622,1.622,0,0,1,.347-.732,3.588,3.588,0,0,0,.835-2.4,2.169,2.169,0,0,1,.646-1.593c1.072-1.239,1.831-2.746,3.138-3.777.747-.589,1.538-1.122,2.529-1.839" transform="translate(-613.159 -295.663)" fill="#2a3454"/>
    <path id="パス_5965" data-name="パス 5965" d="M167.672,189.1a17.864,17.864,0,0,1-8.637-1.54c.465-.58,3.309-1.756,5.692-2.482,1.967-.6,3.924-1.228,5.92-1.734,2.053-.521,4.125-.952,6.291-1.41a1.032,1.032,0,0,1-.331,1.406,40.905,40.905,0,0,0-3.267,2.938,3.828,3.828,0,0,1-1.8.859,6.318,6.318,0,0,0-3.866,1.965" transform="translate(-144.32 -165.096)" fill="#2a3454"/>
    <path id="パス_5966" data-name="パス 5966" d="M556.133,187.647a16.669,16.669,0,0,1-2.6.964,17.763,17.763,0,0,1-4.967.628,2.189,2.189,0,0,1-1.506-.553c-.9-.979-2.152-1.137-3.306-1.463a4.876,4.876,0,0,1-2.155-1.088c-1.044-1-2.044-2.05-3.081-3.059a.894.894,0,0,1-.3-1.057,83.824,83.824,0,0,1,17.911,5.32q0,.154,0,.308" transform="translate(-488.361 -165.177)" fill="#2a3454"/>
    <path id="パス_5967" data-name="パス 5967" d="M455.274,99.167a18.3,18.3,0,0,0-5.7-2.98,6.275,6.275,0,0,0-1.422-.063c-.515-.029-.774-.262-.781-.766-.017-1.349-.02-2.7,0-4.046a.661.661,0,0,1,.857-.672,11.8,11.8,0,0,1,3.471,1.408,8.623,8.623,0,0,1,3.18,4.812c.2.751.265,1.536.392,2.306" transform="translate(-405.968 -82.22)" fill="#2a3454"/>
    <path id="パス_5968" data-name="パス 5968" d="M367.474,90.176c0,1.673.008,3.164,0,4.655-.005.633-.227.911-.789.9a9.358,9.358,0,0,0-5.288,1.9c-.573.371-1.091.826-1.754,1.335a9.794,9.794,0,0,1,2.066-5.975,8.614,8.614,0,0,1,5.768-2.819" transform="translate(-326.365 -81.833)" fill="#2a3454"/>
    <path id="パス_5969" data-name="パス 5969" d="M403.922,153.5a15.309,15.309,0,0,0-1.477,4.092,20.2,20.2,0,0,0-.26,2.768,3.831,3.831,0,0,1-.293,1.314c-.258.58-.8.543-1.362.426a23.461,23.461,0,0,1-.358-4.3,3.009,3.009,0,0,1,.115-.817c.344-.831.022-1.834.726-2.594a2.154,2.154,0,0,1,.447-.368,3.561,3.561,0,0,1,2.462-.524" transform="translate(-363.115 -139.271)" fill="#2a3454"/>
    <path id="パス_5970" data-name="パス 5970" d="M450.635,153.345a3.21,3.21,0,0,1,2.3.357c.786.3.914,1.092,1.172,1.784a7.42,7.42,0,0,1,.273,2.908c-.037,1.157-.144,2.311-.225,3.549-.289,0-.47.017-.648,0-.657-.074-.848-.236-.848-.838,0-1.075-.5-2.1-.3-3.193-.544-1.5-.763-3.129-1.731-4.564" transform="translate(-408.941 -139.061)" fill="#2a3454"/>
    <path id="パス_5971" data-name="パス 5971" d="M482.994,590.452a19.542,19.542,0,0,1,1.715,4.353,8.978,8.978,0,0,1,.487,3.4,2.5,2.5,0,0,1-1.447,1.9c-.228.121-.468.221-.926.434a8.237,8.237,0,0,0,.364-3.322,13.535,13.535,0,0,0-.8-4.433c-.083-.261-.022-.563-.079-.836-.063-.3-.344-.678-.243-.872.138-.264.547-.385.926-.62" transform="translate(-437.446 -535.821)" fill="#2a3454"/>
    <path id="パス_5972" data-name="パス 5972" d="M376.969,590.97l.977.44a2.53,2.53,0,0,1-.243,1.236,8.528,8.528,0,0,0-.571,2.491,9.312,9.312,0,0,0-.343,3.191c.1.813.118,1.635.172,2.44a2.77,2.77,0,0,1-2.19-3.46c.577-.527.011-1.4.579-1.926a13.164,13.164,0,0,1,1.31-3.788c.078-.2.192-.391.309-.624" transform="translate(-340.031 -536.291)" fill="#2a3454"/>
    <path id="パス_5973" data-name="パス 5973" d="M545.774,247.2a16.492,16.492,0,0,0,4.294-5.435c1.854.415,1.854.415,2.6,1.053-.168.206-.331.42-.509.621-.81.912-1.615,1.83-2.444,2.726a9.1,9.1,0,0,1-1.067.854,1.513,1.513,0,0,1-2.01.2c-.159-.1-.44-.015-.864-.015" transform="translate(-495.277 -219.392)" fill="#2a3454"/>
    <path id="パス_5974" data-name="パス 5974" d="M566.86,261.443l-1.543-1.054a9.215,9.215,0,0,0,.87-.47,7.616,7.616,0,0,0,1.205-.924c1.216-1.269,2.4-2.573,3.518-3.785l1.405,1.4a5.174,5.174,0,0,1-1.764,2.1,20.04,20.04,0,0,1-1.79,1.247c-.635.465-1.245.964-1.9,1.477" transform="translate(-513.012 -231.597)" fill="#2a3454"/>
    <path id="パス_5975" data-name="パス 5975" d="M402.965,607.57a1.06,1.06,0,0,1-1.336.355,2.007,2.007,0,0,1-1.463-1.508c-.126-1.048-.842-2.112-.091-3.221.156-.231-.012-.662.029-.993a28.343,28.343,0,0,1,.88-4.1c.142-.51.579-.707,1.182-.388a5.546,5.546,0,0,0-.59,1.6,21.374,21.374,0,0,0-.326,3.771,8.067,8.067,0,0,0,1.714,4.487" transform="translate(-362.752 -542.269)" fill="#2a3454"/>
    <path id="パス_5976" data-name="パス 5976" d="M591.663,272.671l1.3,1.72a10.033,10.033,0,0,1-4.069,3.255c-.8.331-1.553,1-2.533.745l-.294-.707c-.008.02,0-.063.048-.111a12.185,12.185,0,0,1,2.3-1.763,11.27,11.27,0,0,0,1.724-1.417c.532-.517.989-1.112,1.523-1.723" transform="translate(-531.841 -247.442)" fill="#2a3454"/>
    <path id="パス_5977" data-name="パス 5977" d="M457.174,607.725a6.078,6.078,0,0,0,1.447-3.04,9.607,9.607,0,0,0-.018-4.239c-.168-.887-.194-1.8-.287-2.726a.752.752,0,0,1,.853.667,39.729,39.729,0,0,1,.923,4.105,13.991,13.991,0,0,1,.221,2.338,6.369,6.369,0,0,1-.3,1.891,2.561,2.561,0,0,1-1.517,1.352,1.022,1.022,0,0,1-1.321-.347" transform="translate(-414.875 -542.416)" fill="#2a3454"/>
    <path id="パス_5978" data-name="パス 5978" d="M488.2,160.694a13.385,13.385,0,0,1,2.064,1.312,2.073,2.073,0,0,1,.5,1.347c.02.578.3,1.237-.249,1.764-.072.069-.03.281-.007.422.2,1.236-.549,2.307-.606,3.508-.026.549-.767.715-1.193.312-.12-.114-.265-.383-.214-.467.6-.983.172-2.046.255-3.064a18.615,18.615,0,0,0,0-3.024,13.286,13.286,0,0,0-.55-2.11" transform="translate(-443.027 -145.826)" fill="#2a3454"/>
    <path id="パス_5979" data-name="パス 5979" d="M377.794,162.5a5.484,5.484,0,0,0-.661,3.352c.014.433,0,.866,0,1.3,0,.674-.044,1.351.013,2.02a17.452,17.452,0,0,0,.342,1.8h-1.168a14.851,14.851,0,0,1-.612-2.078,5.853,5.853,0,0,1-.328-2.189,1.112,1.112,0,0,0-.178-.638c-.436-.86.351-1.6.218-2.435-.009-.056.116-.152.2-.2.645-.383,1.295-.758,1.943-1.136l.233.2" transform="translate(-340.368 -147.284)" fill="#2a3454"/>
    <path id="パス_5980" data-name="パス 5980" d="M581.1,477.094c.328-.724.788-1.273.686-2.028-.02-.145.287-.334.51-.576a14.039,14.039,0,0,0,6.064,3.141l-.61.393c-.427.276-.584.95-1.206.909a5.006,5.006,0,0,1-1.46-.3c-1.036-.4-2.043-.878-3.069-1.306a7.118,7.118,0,0,0-.916-.233" transform="translate(-527.335 -430.588)" fill="#2a3454"/>
    <path id="パス_5981" data-name="パス 5981" d="M260.64,249.71a5.105,5.105,0,0,1,1.563,2.049,8.761,8.761,0,0,0,3.47,3.7l-1.58.825c-.584-.584-1.132-1.108-1.653-1.658a19.481,19.481,0,0,1-2.339-2.334,5.823,5.823,0,0,1-.506-.8c-.3-.666-.151-1.016.543-1.419.156-.09.3-.208.5-.355" transform="translate(-235.444 -226.606)" fill="#2a3454"/>
    <path id="パス_5982" data-name="パス 5982" d="M355.027,180.888a19.531,19.531,0,0,0,1.084,7.349l-.86.919a8.975,8.975,0,0,1-1.975-6.52l1.75-1.749" transform="translate(-320.535 -164.152)" fill="#2a3454"/>
    <path id="パス_5983" data-name="パス 5983" d="M509.831,179.549l1.7,1.7a8.406,8.406,0,0,1-1.847,6.673c-.8-.7-.9-.914-.668-1.664a17.069,17.069,0,0,0,.818-6.706" transform="translate(-461.818 -162.936)" fill="#2a3454"/>
    <path id="パス_5984" data-name="パス 5984" d="M239.511,485.563l2.73.643a.748.748,0,0,1-.428,1.036,16.356,16.356,0,0,1-3.251,1.2,12.3,12.3,0,0,0-2.051.646l-1.424-1.43c1.6-.491,3.277-.892,4.425-2.093" transform="translate(-213.335 -440.637)" fill="#2a3454"/>
    <path id="パス_5985" data-name="パス 5985" d="M278.281,241.312l1.945-.606a22.467,22.467,0,0,0,1.647,2.834,27.724,27.724,0,0,0,2.491,2.513l-1.414.705c-.445-.3-1.03-.644-1.559-1.06a8.514,8.514,0,0,1-1.945-2.783,17.419,17.419,0,0,0-1.165-1.6" transform="translate(-252.533 -218.435)" fill="#2a3454"/>
    <path id="パス_5986" data-name="パス 5986" d="M356.513,591.6c-.087-2.482.939-4.63,2.117-6.736l1.4.465c-1.094,2.434-2.168,4.874-2.079,7.817a4.435,4.435,0,0,1-.551-.435c-.274-.318-.525-.655-.886-1.112" transform="translate(-323.522 -530.753)" fill="#2a3454"/>
    <path id="パス_5987" data-name="パス 5987" d="M500.786,593.1c-.419-.9.039-1.848-.331-2.784-.3-.765-.456-1.629-.769-2.424-.325-.827-.621-1.665-.943-2.534l1.179-.429a6.644,6.644,0,0,1,.44.625,15.961,15.961,0,0,1,1.627,4.085,2.99,2.99,0,0,1-.806,3.323,1.337,1.337,0,0,1-.4.139" transform="translate(-452.597 -530.806)" fill="#2a3454"/>
    <path id="パス_5988" data-name="パス 5988" d="M607.518,463.481c-.283.207-.476.334-.653.48-.324.267-.616.73-.963.774a3.208,3.208,0,0,1-1.411-.357,16.466,16.466,0,0,1-3.212-1.628c-.336-.223-.635-.5-.919-.73l1.342-1.225a14.379,14.379,0,0,0,5.817,2.687" transform="translate(-544.812 -418.16)" fill="#2a3454"/>
    <path id="パス_5989" data-name="パス 5989" d="M311.3,230.656l-1.228,1.233c-.809-.929-1.727-1.946-2.594-3a5.609,5.609,0,0,1-.621-1.182c-.358-.755-.331-.834.27-1.244.382-.26.752-.537,1.184-.848.08,2.18,1.39,3.7,2.988,5.044" transform="translate(-278.258 -204.738)" fill="#2a3454"/>
    <path id="パス_5990" data-name="パス 5990" d="M537.127,225.5c.395.308.735.6,1.1.855.685.473.708.869.312,1.594a18.554,18.554,0,0,1-3.307,3.868c-.523-.149-.432-.973-1.149-.943a3.994,3.994,0,0,1,1.143-1.358,5.625,5.625,0,0,0,1.9-4.016" transform="translate(-484.668 -204.64)" fill="#2a3454"/>
    <path id="パス_5991" data-name="パス 5991" d="M523.051,211.7c.969-1.943,2.094-3.749,2-6.074a2.434,2.434,0,0,1,1.669,1.824,4.65,4.65,0,0,1-.44,1.8c-.335,1.2-1.323,1.884-2.137,2.7-.4.4-.77.108-1.09-.247" transform="translate(-474.656 -186.598)" fill="#2a3454"/>
    <path id="パス_5992" data-name="パス 5992" d="M331.672,208.363l1.367-1.255a11.287,11.287,0,0,0,2.23,5.863l-1.051.548a20.577,20.577,0,0,1-1.59-1.612c-.855-1.046-.957-1.574-.957-3.543" transform="translate(-300.984 -187.946)" fill="#2a3454"/>
    <path id="パス_5993" data-name="パス 5993" d="M573.043,505.432v-1.583l5.67,2.2-1.521,1.562-4.149-2.18" transform="translate(-520.023 -457.231)" fill="#2a3454"/>
    <path id="パス_5994" data-name="パス 5994" d="M259.514,511.059l-1.649-1.651c1.388-.5,2.916-.959,4.347-1.624.6-.277.915-.292,1.307.165.116.135.249.255.484.493-1.482,1.111-3.2,1.566-4.488,2.617" transform="translate(-234.006 -460.624)" fill="#2a3454"/>
    <path id="パス_5995" data-name="パス 5995" d="M518.146,582.029h-.709c-.277-2.036-1.551-3.721-2.183-5.742h1.5c1.036,1.708,2.549,3.337,1.393,5.742" transform="translate(-467.581 -522.968)" fill="#2a3454"/>
    <path id="パス_5996" data-name="パス 5996" d="M501.548,292.643c-.523-.07-.826-.308-.788-.732a3.788,3.788,0,0,1,.215-1.794c.247-.444.148-1.148.333-1.732a12.311,12.311,0,0,1,1.38-2.463c.141-.239.521-.337.786-.5l.958,1a8.492,8.492,0,0,0-2.884,6.216" transform="translate(-454.424 -259.015)" fill="#2a3454"/>
    <path id="パス_5997" data-name="パス 5997" d="M236.775,266.393a13.656,13.656,0,0,1,1.638-1.485,8.507,8.507,0,0,0,2.138,3.059c.709.6,1.446,1.176,2.227,1.807l-.559.828c-.355-.388-.651-.759-1-1.075a1.97,1.97,0,0,0-.9-.594c-1.523-.192-2.406-1.29-3.389-2.259a2.284,2.284,0,0,1-.163-.281" transform="translate(-214.868 -240.398)" fill="#2a3454"/>
    <path id="パス_5998" data-name="パス 5998" d="M340.993,580.779a4.764,4.764,0,0,1,1.136-3.866.94.94,0,0,0,.229-.474c.114-.749.613-.851,1.236-.783.141.015.285,0,.564,0a3.326,3.326,0,0,1-.169.88,29.312,29.312,0,0,0-2.018,5.054l-.978-.812" transform="translate(-309.42 -522.378)" fill="#2a3454"/>
    <path id="パス_5999" data-name="パス 5999" d="M356.358,292.563a4.426,4.426,0,0,1-.4-1.16,6.528,6.528,0,0,0-1.913-4.385c-.091-.11-.2-.2-.3-.306-.573-.6-.574-.748,0-1.387.1-.107.2-.2.3-.305a5.606,5.606,0,0,1,2.506,3.94,10.113,10.113,0,0,1,.246,2.469,5.517,5.517,0,0,1-.436,1.135" transform="translate(-320.62 -258.648)" fill="#2a3454"/>
    <path id="パス_6000" data-name="パス 6000" d="M590.239,305.125l-.957-.976c.877-.532,2.018-.635,3-1.208a9.2,9.2,0,0,0,2.451-1.69c.284-.323.843-.3.946-.88.035-.195.976-.041,1.219.289a2.376,2.376,0,0,1,.381.984c.061.357-.281.668-.7.683-.575.02-1.151.024-1.725,0a1.891,1.891,0,0,0-1.478.6,10.342,10.342,0,0,1-3.136,2.2" transform="translate(-534.759 -272.502)" fill="#2a3454"/>
    <path id="パス_6001" data-name="パス 6001" d="M335.575,308.951a7.285,7.285,0,0,0-.644-.456,1.9,1.9,0,0,0-.4-.108c-.163-2.115-1.656-3.267-3.3-4.438a5.234,5.234,0,0,1,.993-.63.967.967,0,0,1,1.163.144,6.962,6.962,0,0,1,2.19,5.487" transform="translate(-300.582 -275.142)" fill="#2a3454"/>
    <path id="パス_6002" data-name="パス 6002" d="M303.587,542.538c.867.1.773.8,1.013,1.239a16.931,16.931,0,0,0-1.493,1.259,12.217,12.217,0,0,0-1.012,1.364l-1.774-1.774a10.325,10.325,0,0,1,3.266-2.087" transform="translate(-272.534 -492.34)" fill="#2a3454"/>
    <path id="パス_6003" data-name="パス 6003" d="M551.45,545.069l-1.866,1.866c-.784-.863-1.591-1.706-2.333-2.6-.18-.218-.145-.616-.2-.892a1.019,1.019,0,0,1,1.408-.18c.969.571,1.927,1.163,2.992,1.809" transform="translate(-496.435 -492.813)" fill="#2a3454"/>
    <path id="パス_6004" data-name="パス 6004" d="M497.181,493.265c.315.144.553.178.593.285a11.6,11.6,0,0,1,.306,1.168c.365,1.437,1.479,2.319,2.474,3.281.1.1.371.013.663.013.018.35.036.706.052,1.026a1.369,1.369,0,0,1-1.943-.2,6.6,6.6,0,0,1-2-3.2,13.365,13.365,0,0,1-.147-2.371" transform="translate(-451.18 -447.626)" fill="#2a3454"/>
    <path id="パス_6005" data-name="パス 6005" d="M381.63,260.532c.283-.283.545-.567.831-.825a.618.618,0,0,1,.979.021c.294.349.723.715.773,1.114.181,1.453.711,2.9.06,4.4a7.748,7.748,0,0,0-.149,1.514c-.376-2.273-.5-4.62-2.493-6.221" transform="translate(-346.32 -235.469)" fill="#2a3454"/>
    <path id="パス_6006" data-name="パス 6006" d="M351.163,499.928c-.437-.451-1.041-.709-.78-1.433,1.823-.232,3.2-2.812,3.546-4.8l.745.473c-.11.427-.223.771-.282,1.123-.052.315-.158.625-.22.914a5.627,5.627,0,0,1-3.008,3.722" transform="translate(-317.907 -448.017)" fill="#2a3454"/>
    <path id="パス_6007" data-name="パス 6007" d="M629.257,457.821a11.158,11.158,0,0,0,3.258-.65.463.463,0,0,1,.381.018,2.942,2.942,0,0,0,2.275.5l-1.059,1.688c-1.931.377-3.372-.638-4.855-1.552" transform="translate(-571.036 -414.843)" fill="#2a3454"/>
    <path id="パス_6008" data-name="パス 6008" d="M222.038,476.627c-1.152.544-2.124,1.365-3.415,1.534a.8.8,0,0,0-.38.122c-.439.348-.77.185-1.1-.173-.292-.32-.611-.616-.93-.936a2.985,2.985,0,0,1,1.465-.494,4.241,4.241,0,0,0,1.633-.566,1.878,1.878,0,0,1,1.938.021c.238.122.456.283.787.492" transform="translate(-196.21 -431.826)" fill="#2a3454"/>
    <path id="パス_6009" data-name="パス 6009" d="M538.713,564.516c-.562.509-.661,1.441-1.453,1.96-.606-1.115-1.124-2.184-1.758-3.179a1.791,1.791,0,0,1-.187-1.174,1.074,1.074,0,0,1,1.5.147c.657.727,1.268,1.494,1.9,2.246" transform="translate(-485.77 -509.9)" fill="#2a3454"/>
    <path id="パス_6010" data-name="パス 6010" d="M520.288,304.066a7.819,7.819,0,0,0-2.531,2.371,15.663,15.663,0,0,0-1.335,3.275,6.743,6.743,0,0,1,1.609-5.934,1.033,1.033,0,0,1,1.363-.312,3.651,3.651,0,0,1,.591.3,2.008,2.008,0,0,1,.3.3" transform="translate(-468.491 -275.273)" fill="#2a3454"/>
    <path id="パス_6011" data-name="パス 6011" d="M285.186,526.373c-.156.156-.287.387-.48.465a9.628,9.628,0,0,0-2.781,1.635.612.612,0,0,1-.882-.021c-.323-.277-.658-.539-.991-.811,1.051-1.165,2.392-1.494,3.5-2.2.321-.2.979.214,1.632.928" transform="translate(-254.141 -476.782)" fill="#2a3454"/>
    <path id="パス_6012" data-name="パス 6012" d="M561.04,527.708l-1.266,1.264-3.763-2.114c.889-1.12,1.234-1.239,2.213-.726.95.5,1.872,1.046,2.815,1.577" transform="translate(-504.567 -477.187)" fill="#2a3454"/>
    <path id="パス_6013" data-name="パス 6013" d="M205.784,456.52a6.553,6.553,0,0,1-4.128.937l-.84-1.526,2.852-.921,2.116,1.511" transform="translate(-182.236 -412.91)" fill="#2a3454"/>
    <path id="パス_6014" data-name="パス 6014" d="M322.214,566.354l-1.236-1.991,2.725-2.725a1.517,1.517,0,0,1,.783.81l-2.271,3.906" transform="translate(-291.28 -509.674)" fill="#2a3454"/>
    <path id="パス_6015" data-name="パス 6015" d="M324.281,319.752c-.26.026-.306.034-.352.034h-1.682a5.074,5.074,0,0,0-2-3.21l.742-.885a6.1,6.1,0,0,1,3.293,4.06" transform="translate(-290.616 -286.483)" fill="#2a3454"/>
    <path id="パス_6016" data-name="パス 6016" d="M484.292,260.669a5.166,5.166,0,0,0-1.844,2.974c-.052.217-.2.443-.167.643a4.492,4.492,0,0,1-.536,2.285c-.019-.4-.052-.81-.054-1.214-.007-1.248.03-2.5-.019-3.744a2.191,2.191,0,0,1,.371-1.288c.237-.367.573-.865,1.127-.676.378.129.875.243.943.8.009.073.109.136.179.218" transform="translate(-437.106 -235.587)" fill="#2a3454"/>
    <path id="パス_6017" data-name="パス 6017" d="M368.013,282.444h-.619a7.364,7.364,0,0,0-.418-3.686c-.5-1.065-.892-2.31-2.3-2.865.254-.247.437-.571.686-.633a.973.973,0,0,1,1.038.239,5.7,5.7,0,0,1,1.342,2.473c.417,1.5.116,2.969.272,4.471" transform="translate(-330.933 -249.745)" fill="#2a3454"/>
    <path id="パス_6018" data-name="パス 6018" d="M493.922,276.143c-1.081.187-1.37,1.09-1.792,1.737a3.564,3.564,0,0,0-.655,2.3c-.653.725-.042,1.652-.388,2.448h-.481a16.358,16.358,0,0,1,.045-3.283c.261-1.242.344-2.622,1.455-3.559.657-.554,1.018-.537,1.815.352" transform="translate(-445.155 -249.934)" fill="#2a3454"/>
    <path id="パス_6019" data-name="パス 6019" d="M365.579,507.9c.24.417.508.666.477.868a9.2,9.2,0,0,1-.6,2.635,8.083,8.083,0,0,1-1.7,2.034,1.968,1.968,0,0,1-1.1.431c-.2.023-.44-.261-.719-.444a27.743,27.743,0,0,0,2.387-2.381,11.193,11.193,0,0,0,1.26-3.143" transform="translate(-328.445 -460.906)" fill="#2a3454"/>
    <path id="パス_6020" data-name="パス 6020" d="M542.375,332.228h-1.023c0-.164-.057-.35.009-.416a10.542,10.542,0,0,0,1.427-2.148,9.693,9.693,0,0,1,.949-1.166,6.354,6.354,0,0,0,.921-.009.636.636,0,0,1,.676.426.663.663,0,0,1-.226.875,12.7,12.7,0,0,0-1.2.919c-.532.484-1.024,1.012-1.53,1.518" transform="translate(-491.243 -298.089)" fill="#2a3454"/>
    <path id="パス_6021" data-name="パス 6021" d="M488.02,510.5c.714.266.628.978.77,1.462A5.453,5.453,0,0,0,492,515.493a2.731,2.731,0,0,1-.242.288c-.648.583-.645.574-1.406.186a4.351,4.351,0,0,1-1.543-1.523,5.25,5.25,0,0,1-.786-3.947" transform="translate(-442.795 -463.263)" fill="#2a3454"/>
    <path id="パス_6022" data-name="パス 6022" d="M521.551,485.705a7.027,7.027,0,0,1-2.531-3.87.627.627,0,0,1,1,.066,5.329,5.329,0,0,1,.61.9,2.788,2.788,0,0,0,2.693,1.778c0,.957-.1,1.1-.792,1.123-.336.013-.674,0-.981,0" transform="translate(-470.998 -437.057)" fill="#2a3454"/>
    <path id="パス_6023" data-name="パス 6023" d="M510.172,494.546h.735a5.661,5.661,0,0,0,3.388,3.648c-.237.257-.413.619-.643.657a1.611,1.611,0,0,1-1.2-.153,8.771,8.771,0,0,1-1.89-2.078,3.1,3.1,0,0,1-.392-2.075" transform="translate(-462.933 -448.789)" fill="#2a3454"/>
    <path id="パス_6024" data-name="パス 6024" d="M531.857,317.074c-2.062.886-2.428,3.083-3.739,4.482-.539-.138-.582-.287-.44-.84a7.769,7.769,0,0,1,2.657-3.948,1.09,1.09,0,0,1,.766-.092,3.051,3.051,0,0,1,.756.4" transform="translate(-478.793 -287.355)" fill="#2a3454"/>
    <path id="パス_6025" data-name="パス 6025" d="M325.94,487.455a2.294,2.294,0,0,0,2.02-.56c.176-.148.475-.262.516-.439.2-.872.991-.966,1.79-1.613a4.674,4.674,0,0,1-.189.894,16.245,16.245,0,0,1-1.115,1.97,2.272,2.272,0,0,1-2.186.931c-.708-.068-.788-.137-.835-1.184" transform="translate(-295.783 -439.984)" fill="#2a3454"/>
    <path id="パス_6026" data-name="パス 6026" d="M336.088,496.32c.267-.112.379-.172.5-.206a4.566,4.566,0,0,0,2.864-2.736,7.422,7.422,0,0,1,.654-.93c.53,1.264-.095,2.1-.643,2.889a14.294,14.294,0,0,1-1.4,1.443c-.367.394-.823.2-1.214.167-.235-.017-.447-.357-.756-.628" transform="translate(-304.992 -446.886)" fill="#2a3454"/>
    <path id="パス_6027" data-name="パス 6027" d="M384.342,529.6a7.326,7.326,0,0,1-1.274,4.55.94.94,0,0,1-.584.3,5.012,5.012,0,0,1-.872.013c-.323-.442-.113-.761.222-1.088a6.386,6.386,0,0,0,1.619-1.916,2.351,2.351,0,0,0,.361-1.3c-.016-.108.232-.254.528-.555" transform="translate(-346.158 -480.598)" fill="#2a3454"/>
    <path id="パス_6028" data-name="パス 6028" d="M478.626,531.984a1.916,1.916,0,0,1,.486.066,7.312,7.312,0,0,0,2.718,4.139c-1.022.756-1.55.648-2.1-.353a8.937,8.937,0,0,1-1.1-3.851" transform="translate(-434.342 -482.763)" fill="#2a3454"/>
    <path id="パス_6029" data-name="パス 6029" d="M400.4,553.376c1.039-.81.831-2.169,1.584-3.078.552.7,1.139,1.32.465,2.231-.092.124-.036.379-.008.567.064.419-.027.835-.419.963a1,1,0,0,1-1.271-.326,2.81,2.81,0,0,0-.351-.357" transform="translate(-363.358 -499.382)" fill="#2a3454"/>
    <path id="パス_6030" data-name="パス 6030" d="M470.423,549.838c.507,1.111.687,2.258,1.584,3.216-.217.161-.426.341-.658.484-.587.361-1.247.179-1.332-.484a18.584,18.584,0,0,1-.018-2.779c0-.1.189-.2.424-.437" transform="translate(-426.472 -498.965)" fill="#2a3454"/>
    <path id="パス_6031" data-name="パス 6031" d="M196.177,438.345l-2.553.754-.484-1.943c.569-.4,1.258.141,1.554-.294l1.483,1.483" transform="translate(-175.27 -396.442)" fill="#2a3454"/>
    <path id="パス_6032" data-name="パス 6032" d="M224.474,288.705l.912-.775a.867.867,0,0,1,.294.131c.758.683,1.507,1.377,2.27,2.079l-.461.812a5.019,5.019,0,0,0-.737-.931,3.092,3.092,0,0,0-1.173-.592c-.415-.092-.835-.068-1.105-.723" transform="translate(-203.705 -261.29)" fill="#2a3454"/>
    <path id="パス_6033" data-name="パス 6033" d="M423,633.983v-4.566c.276,1.218,1.481,2.143,1.019,3.679l-1.019.887" transform="translate(-383.867 -571.181)" fill="#2a3454"/>
    <path id="パス_6034" data-name="パス 6034" d="M457.247,628.109v4.416a1.511,1.511,0,0,1-.945-2.314c.281-.652.582-1.3.945-2.1" transform="translate(-413.876 -569.994)" fill="#2a3454"/>
    <path id="パス_6035" data-name="パス 6035" d="M319.969,495.032a13.967,13.967,0,0,1-1.715,1.251c-.921.466-1.608-.067-1.661-1.251Z" transform="translate(-287.301 -449.23)" fill="#2a3454"/>
    <path id="パス_6036" data-name="パス 6036" d="M424.976,198.264q.205-1.637.411-3.277c1.122-.014,1.451.573.891,1.7-.3.6-.7,1.156-1.047,1.732l-.254-.15" transform="translate(-385.656 -176.945)" fill="#2a3454"/>
    <path id="パス_6037" data-name="パス 6037" d="M451.128,194.1c.145,1.2.276,2.294.407,3.385a4.357,4.357,0,0,1-1.491-2.295c-.257-.694.067-.965,1.084-1.09" transform="translate(-408.328 -176.138)" fill="#2a3454"/>
    <path id="パス_6038" data-name="パス 6038" d="M547.915,481.708c.86,0,1.383.041,1.9-.012a15.366,15.366,0,0,0,1.58-.335c-.118.706-.333,1.167-.932,1.387-.125.046-.265.131-.381.108a3.981,3.981,0,0,1-1.025-.293,9.373,9.373,0,0,1-1.139-.855" transform="translate(-497.22 -436.824)" fill="#2a3454"/>
    <path id="パス_6039" data-name="パス 6039" d="M538.677,485.966c1.131.24,1.514,1.722,2.974,1.3-.6,1.077-.6,1.032-1.326.765-.972-.358-1.222-1.261-1.649-2.066" transform="translate(-488.837 -441.003)" fill="#2a3454"/>
    <path id="パス_6040" data-name="パス 6040" d="M397.478,430.116v.68c-1.121.354-2.083-.4-3.142-.357l1.857-.951,1.285.629" transform="translate(-357.851 -389.749)" fill="#2a3454"/>
    <path id="パス_6041" data-name="パス 6041" d="M560.575,349.507c.543-.5.863-.835,1.228-1.115a2.477,2.477,0,0,1,1.025-.584c.279-.039.607.262.991.45-.146.2-.219.413-.356.469-.689.283-1.392.534-2.1.772a3.489,3.489,0,0,1-.791.008" transform="translate(-508.709 -315.624)" fill="#2a3454"/>
    <path id="パス_6042" data-name="パス 6042" d="M472.823,254.144v-2.666l.653-.686.741.379-1.393,2.974" transform="translate(-429.076 -227.588)" fill="#2a3454"/>
    <path id="パス_6043" data-name="パス 6043" d="M453.237,421.881a3.543,3.543,0,0,1,2.191,1.6,1.64,1.64,0,0,1-1.823-.22c-.539-.3-.252-.82-.368-1.383" transform="translate(-411.302 -382.847)" fill="#2a3454"/>
    <path id="パス_6044" data-name="パス 6044" d="M402.666,250.744l.66.66v2.423a5.387,5.387,0,0,0-1.588-2.565l.928-.518" transform="translate(-364.568 -227.544)" fill="#2a3454"/>
    <path id="パス_6045" data-name="パス 6045" d="M447.719,165.459v-2.577c.9.457.845,1.377,1.079,2.064.127.372-.468.616-1.079.514" transform="translate(-406.294 -147.812)" fill="#2a3454"/>
    <path id="パス_6046" data-name="パス 6046" d="M433.622,162.759v2.789l-1.052-.674.8-2.2.252.088" transform="translate(-392.547 -147.621)" fill="#2a3454"/>
    <path id="パス_6047" data-name="パス 6047" d="M676.125,442.037c.354.592-.137,1.08-.343,1.755l-1.771-.476,2.114-1.279" transform="translate(-611.649 -401.138)" fill="#2a3454"/>
    <path id="パス_6048" data-name="パス 6048" d="M464.74,443.352c.09,1.386-.462,2.06-1.586,2.047-.263-1.3,1.151-1.209,1.586-2.047" transform="translate(-420.272 -402.331)" fill="#2a3454"/>
    <path id="パス_6049" data-name="パス 6049" d="M190.677,410.754l1.449,1.717c-.25.5-.615.676-1.044.479a.742.742,0,0,1-.415-.824,12.3,12.3,0,0,0,.01-1.371" transform="translate(-173.017 -372.749)" fill="#2a3454"/>
    <path id="パス_6050" data-name="パス 6050" d="M402.615,448.114c-.483.361-.648.835-1.219.826a1.981,1.981,0,0,1-1.584-.826Z" transform="translate(-362.821 -406.653)" fill="#2a3454"/>
    <path id="パス_6051" data-name="パス 6051" d="M350.82,400.088c.334.081.679.059.818.217.768.876.751.891,1.618.114l.364.422c-.857.929-1.051.964-2.439.417l-.362-1.171" transform="translate(-318.361 -363.07)" fill="#2a3454"/>
    <path id="パス_6052" data-name="パス 6052" d="M510.457,402.015l.358-.358c.067.046.154.1.232.16.7.573.885.552,1.4-.168.206-.29.206-.29.948-.174-.319.449-.3,1.173-.894,1.272-.754.125-1.623.233-2.041-.732" transform="translate(-463.228 -364.264)" fill="#2a3454"/>
  </g>
</svg>
