<svg id="グループ_7722" data-name="グループ 7722" xmlns="http://www.w3.org/2000/svg" width="97.725" height="70.244" viewBox="0 0 97.725 70.244">
  <path id="パス_5864" data-name="パス 5864" d="M778.41,974.993c-1.329.956-2.622,1.892-3.917,2.823l-14.738,10.59c-1.622,1.166-3.252,2.322-4.865,3.5a.511.511,0,0,1-.713-.007q-9.192-6.63-18.4-13.243-2.389-1.717-4.787-3.424c-.087-.063-.166-.138-.3-.249l23.853-17.145Z" transform="translate(-705.677 -957.838)" fill="#2a3454"/>
  <path id="パス_5865" data-name="パス 5865" d="M778.407,1000.558l-23.86,17.149-23.868-17.155c1.286-.927,2.518-1.816,3.753-2.7q7.631-5.488,15.266-10.974c1.5-1.081,3.013-2.157,4.51-3.249a.471.471,0,0,1,.663-.013q7.844,5.657,15.7,11.3,3.739,2.688,7.48,5.372C778.156,1000.359,778.254,1000.439,778.407,1000.558Z" transform="translate(-705.681 -947.463)" fill="#2a3454"/>
  <path id="パス_5866" data-name="パス 5866" d="M712.881,987.786l23.87-17.157,23.866,17.153c-1.2.867-2.329,1.684-3.459,2.5q-8.138,5.851-16.28,11.7c-1.253.9-2.514,1.792-3.757,2.707a.54.54,0,0,1-.757,0q-6.183-4.469-12.379-8.914C720.312,993.125,716.639,990.487,712.881,987.786Z" transform="translate(-712.881 -952.664)" fill="#2a3454"/>
  <path id="パス_5867" data-name="パス 5867" d="M748.485,987.775l23.854-17.146L796.2,987.782c-1.006.729-1.966,1.43-2.931,2.122q-8.958,6.44-17.919,12.876c-.885.635-1.782,1.254-2.653,1.909a.49.49,0,0,1-.7.01q-6.3-4.54-12.608-9.062-5.33-3.83-10.657-7.666C748.673,987.93,748.618,987.882,748.485,987.775Z" transform="translate(-698.479 -952.664)" fill="#2a3454"/>
</svg>
