<svg xmlns="http://www.w3.org/2000/svg" xmlns:xlink="http://www.w3.org/1999/xlink" width="161.393" height="59.21" viewBox="0 0 161.393 59.21">
  <defs>
    <linearGradient id="linear-gradient" x1="0.5" x2="0.5" y2="1" gradientUnits="objectBoundingBox">
      <stop offset="0" stop-color="#6a3434"/>
      <stop offset="1" stop-color="#26325c"/>
    </linearGradient>
    <clipPath id="clip-path">
      <rect id="長方形_23251" data-name="長方形 23251" width="161.393" height="28.482" fill="url(#linear-gradient)"/>
    </clipPath>
    <clipPath id="clip-path-2">
      <rect id="長方形_23252" data-name="長方形 23252" width="90.468" height="8.518" fill="url(#linear-gradient)"/>
    </clipPath>
    <clipPath id="clip-path-3">
      <rect id="長方形_23253" data-name="長方形 23253" width="69.988" height="15.553" fill="#2a3454"/>
    </clipPath>
  </defs>
  <g id="グループ_7598" data-name="グループ 7598" transform="translate(2797 204.855)">
    <g id="グループ_7598-2" data-name="グループ 7598" transform="translate(-2797 -204.855)">
      <g id="グループ_7596" data-name="グループ 7596" clip-path="url(#clip-path)">
        <path id="パス_5794" data-name="パス 5794" d="M384.261,17.479c-.668-.484-1.348-.955-2.045-1.395a1.43,1.43,0,0,0-2.27.466,1.16,1.16,0,0,1-1.2.662q-5.658-.028-11.315-.006c-1.535,0-1.407.041-1.426-1.383-.01-.733.176-.973.917-.884.614.073,1.2-.057,1.8-.017a13.192,13.192,0,0,1,2,.026,12.23,12.23,0,0,0,2.118-.024,13.377,13.377,0,0,1,1.6.11,11.5,11.5,0,0,1,1.476.051c.572-.013,1.261.1,1.857.058.816.006,1.247-.058,2.222-.025a3.889,3.889,0,0,0,.64,0c.444,0,.526-.059.97-.051.371.007.743.043,1.112.028.291-.012.645-.212.853-.1.628.333.653-.11.654-.466a1.224,1.224,0,0,0-.283-.808,27.315,27.315,0,0,0-2.228-1.981.813.813,0,0,0-1.182.086c-.391.453-.75.935-1.152,1.377-.59.649-1.129,1.315-2.229,1.116a14.134,14.134,0,0,0-2.487-.029h-2.491a20.2,20.2,0,0,1-2.489-.023,9.221,9.221,0,0,1-2.138.087,7.24,7.24,0,0,1-.906-.078c-.347-.111-.762-.186-.7-.749a6.986,6.986,0,0,0-.023-1.347c-.028-.334.105-.395.4-.389.9.018,1.8.006,2.7.006,1.7,0,3.391-.006,5.087.009.186,0,.584-.184.52.247-.091.606.388.685.71.956.7.589,1.38.19,1.956-.063a1.3,1.3,0,0,0,.89-1.343c-.1-1.311-.047-2.629-.111-3.943a2.206,2.206,0,0,1,.75-2.179c.411-.3.348-.728-.046-1.114a2.862,2.862,0,0,0-.649-.455,11.421,11.421,0,0,1-1.627-.856c-.442-.342-.759-.1-1.081.041a1.188,1.188,0,0,0-.521.584,1.02,1.02,0,0,1-1.109.653c-.968-.04-1.938,0-2.907-.018-.388-.008-.887.2-1.1-.282-.042-.1.449-.46.735-.635.6-.363.983-1.124,1.875-.966.1.018.333-.241.357-.4a.629.629,0,0,0-.217-.514c-.319-.214-.7-.335-1.035-.525a10.564,10.564,0,0,0-2.868-.893c-.784-.185-.73-.221-.673.554.069.932.056,1.868.067,2.8.01.832-.363,1.1-1.155.823-.181-.063-.333-.206-.51-.286-1.145-.519-2.287-1.046-3.446-1.529-.211-.088-.588-.124-.508.358a10.884,10.884,0,0,1,.233,1.678q.023,4.525-.018,9.049c-.009,1.114-.083,2.227-.139,3.34-.006.12-.1.231-.138.353-.333,1.208.505,1.936,1.6,2.02a3.039,3.039,0,0,0,1.731-.549c.251-.143.38-.091.386.205.025,1.107.044,2.215.069,3.322a.477.477,0,0,1-.549.559c-.8,0-1.592.008-2.388-.005a.6.6,0,0,1-.5-.8c.213-.464.122-1.095.82-1.318.342-.109.267-.6-.085-.834a2.846,2.846,0,0,0-.454-.16,24,24,0,0,0-2.844-.7c-.613-.182-.7.06-.681.427.046.767.142,1.452.208,2.314a7.862,7.862,0,0,1-.065,1.083c-.081.755-.18,1.507-.246,2.264a1.127,1.127,0,0,0,.14.46c.467,1.165,1.634,1.105,2.7.531a1.171,1.171,0,0,0,.684-1.354,3.721,3.721,0,0,1-.024-.725c-.016-.382.165-.581.544-.56,2.118.12,4.238-.245,6.357.191a2.3,2.3,0,0,0,1.43-.022c.7-.4,1.045-.031,1.478.388a2.044,2.044,0,0,0,2.246.351,1.693,1.693,0,0,0,.949-2.332c-.262-.814-.125-1.217.583-1.569.2-.1.3-.411.448-.626-.215-.148-.423-.31-.648-.44a1.287,1.287,0,0,0-.376-.1c-.991-.208-1.98-.426-2.974-.618-.369-.071-.659-.029-.592.5.119.937.212,1.879.265,2.82.042.737-.058.809-.783.826-.173,0-.346,0-.519,0-2,0-2,0-2.038-2.029-.015-.7.018-1.359.726-1.748.223-.123.265-.276.072-.53-.257-.339-.146-.482.306-.479,2.838.02,5.675.008,8.513.012.907,0,1.133.318.875,1.207-.035.122-.1.235-.13.358a14.893,14.893,0,0,1-.981,3.3,5.236,5.236,0,0,1-.937,1.545,4,4,0,0,1-2.525.847c-1.412.118-2.7-.5-4.033-.824-.24-.058-.483-.1-.725-.154.167.2.3.461.507.576a10.756,10.756,0,0,1,2.932,2.528,2.715,2.715,0,0,0,1.994.995c.178-.069.255-.2.324-.2a5.39,5.39,0,0,0,2.335-.608A5.7,5.7,0,0,0,381.927,24c.433-1.163.676-2.4,1.012-3.6.193-.691.394-1.33,1.244-1.559.491-.132.511-1.044.078-1.357m-9.682-8.57q-.019,1.021-.039,2.042c-.619.008-1.239.021-1.858.022-2.007,0-4.013-.011-6.019.011-.433,0-.6-.1-.574-.555.029-.516-.005-1.037-.025-1.556-.014-.366.139-.57.509-.6.737-.055,1.263.088,1.8.021.466-.058.985.176,1.431.076.7-.158,1.372.168,2.116-.036a7.39,7.39,0,0,1,2.494.155c.058.006.12.131.154.212a.533.533,0,0,1,.009.206m-8.456-3.088a1.19,1.19,0,0,1,1.235-.686c1.653.074,3.31.025,4.965.025h1.449a3.426,3.426,0,0,1,.413,0c.547.067.7.581.565,1.931-.047.486-.2.521-.816.474a14.25,14.25,0,0,0-2.289,0,3.561,3.561,0,0,1-1.08.009c-.054-.054-.2-.036-.3-.023a7.718,7.718,0,0,1-1.2.08,9.287,9.287,0,0,0-1.3-.037,14.514,14.514,0,0,1-1.58-.159c-.053-.008-.142-.079-.142-.118a4.151,4.151,0,0,1,.082-1.5" transform="translate(-304.5 0)" fill="url(#linear-gradient)"/>
        <path id="パス_5795" data-name="パス 5795" d="M212.276,12.209c-.59-.338-1.192-.656-1.8-.966-.877-.45-1-.361-1.646.427-.317.388-.57.954-1.235.95-1.522-.008-3.043-.012-4.564,0-.322,0-.4-.1-.4-.406,0-.864-.027-1.729-.047-2.593a2.325,2.325,0,0,1,.938-2.289c.711-.474.626-.623-.185-1.068a11.226,11.226,0,0,0-2.732-.7,7.375,7.375,0,0,0-1.576-.2c-.126-.005-.367.24-.369.376-.01,1.137.668,2.251.176,3.407.481.875.164,1.811.249,2.716.062.661-.059.739-.752.746-1.106.011-2.213-.007-3.319.007a2.713,2.713,0,0,1-1.332-.316,11.263,11.263,0,0,0-3.9-1.505c.109,1.1.379,2.15.4,3.2a22.482,22.482,0,0,1-.056,4.381,23.645,23.645,0,0,0-.157,3.849c-.008,1.311.019,1.312,1.28,1.709a2.621,2.621,0,0,0,2.251-1.057.94.94,0,0,0,0-.309c-.006-.379-.165-.919.022-1.1.23-.22.749-.133,1.141-.193.055-.008.117-.144.142-.134,1.065.439,2.158.1,3.236.177.825.059.852.015.843.8-.019,1.666-.068,3.331-.1,5-.012.615,0,1.232-.015,1.847-.025.912-.073,1.823-.09,2.736,0,.107.118.232.206.327a2.147,2.147,0,0,0,2.321.533,1.907,1.907,0,0,0,1.584-1.949c-.075-1.355-.023-2.7-.233-4.07a38.7,38.7,0,0,1-.15-4.765c-.014-.487.2-.658.668-.653,1.383.015,2.766.012,4.149,0,.934-.006,1.262-.222,1.225,1.168-.014.508.414,1.279.782,1.307a5.046,5.046,0,0,0,1.714-.1c.773-.218,1.493-1.268,1.175-1.8-.257-.427.1-.6.029-.893a4.519,4.519,0,0,1-.216-.953c-.052-1.521-.052-3.043-.111-4.564-.027-.684.027-1.216.774-1.541.524-.228.514-.641.129-1.12a1.725,1.725,0,0,0-.453-.428m-13.962,8.3c-1.173.012-2.346,0-3.519,0a1.735,1.735,0,0,1-.409-.014c-.84-.207-.93-.327-.949-1.233q-.044-2.07-.084-4.14c-.024-1.274.545-1.859,1.838-1.877.862-.012,1.725,0,2.587,0,1.116.047,1.137.052,1.155.8q.071,2.846.116,5.692c.011.692-.06.764-.735.771m10.1-.3c-.007.328-.175.3-.387.3-1.7,0-3.391-.006-5.086,0-.264,0-.354-.067-.359-.343q-.048-3.166-.126-6.332c-.013-.524.292-.6.718-.6,1.177.01,2.353,0,3.529,0a6.2,6.2,0,0,1,.933.007.894.894,0,0,1,.851,1.023c.031,1.176.075,2.354.065,3.529-.007.8-.121,1.6-.138,2.406" transform="translate(-160.821 -4.551)" fill="url(#linear-gradient)"/>
        <path id="パス_5796" data-name="パス 5796" d="M563.467,36.655A11.07,11.07,0,0,0,560.05,35.6a18.618,18.618,0,0,0-4.2.005,11.776,11.776,0,0,0-4.034,1.313,11.967,11.967,0,0,0-4.242,3.891,12.172,12.172,0,0,0-1.843,4.11,7.943,7.943,0,0,0-.058,3.876,18.616,18.616,0,0,0,1.123,2.551,9.482,9.482,0,0,0,.984,1.564,2.324,2.324,0,0,0,2.69,1,5.846,5.846,0,0,0,2.757-1.837,23.446,23.446,0,0,0,2.342-3.386,15.174,15.174,0,0,0,2.177-8.542,1.918,1.918,0,0,0,0-.207,4.454,4.454,0,0,0-1.069-2.778,1.105,1.105,0,0,1-.175-.34c.113-.046.231-.141.338-.13.858.09,1.716.185,2.569.313a4.408,4.408,0,0,1,.917.288,7.776,7.776,0,0,1,3.264,2.388,9.074,9.074,0,0,1,1.825,4.44,9.279,9.279,0,0,1-.774,4.446,11.938,11.938,0,0,1-2.168,3.43c-.513.444-.959.854-1.437,1.223a16.355,16.355,0,0,1-3.941,2.259,27.2,27.2,0,0,1-2.709.732c-.139.039-.241.207-.36.315a1.923,1.923,0,0,0,.4.288.747.747,0,0,0,.411.006c.919-.2,1.826-.479,2.755-.605a14.149,14.149,0,0,0,6-2.314,10.959,10.959,0,0,0,3.945-4.419,14.09,14.09,0,0,0,1.072-3.619,7.516,7.516,0,0,0-.3-3.48,8.475,8.475,0,0,0-4.838-5.724m-8.441,7.18a15.5,15.5,0,0,1-3.619,5.759,1.822,1.822,0,0,1-2.959-.472,6.687,6.687,0,0,1-.842-4.4,7.274,7.274,0,0,1,1.62-3.772c.479-.565.974-1.116,1.462-1.673a10.565,10.565,0,0,1,3.816-2.139c.8-.292,1.3.141,1.378,1.047a12.442,12.442,0,0,1-.857,5.653" transform="translate(-462.214 -30.066)" fill="url(#linear-gradient)"/>
        <path id="パス_5797" data-name="パス 5797" d="M138.51,11.662c-.885-.3-1.782-.574-2.681-.831a7.7,7.7,0,0,0-1.162-.21c-.563-.07-.645.089-.533.712.124.69.183,1.391.272,2.191-.037,3.706.3,7.309.045,10.915-.177,2.482-.067,4.99-.085,7.486a.689.689,0,0,1,0,.206c-.4,1.162-.057,2.367-.132,3.547-.025.39.171.536.528.727a2.927,2.927,0,0,0,1.495.154,1.8,1.8,0,0,0,1.891-1.933c-.032-.768-.234-1.536-.23-2.3.01-1.874-.056-3.745.027-5.624.171-3.9-.26-7.828-.011-11.742a2.854,2.854,0,0,1,.868-2.232c.488-.422.366-.84-.292-1.065" transform="translate(-113.625 -8.987)" fill="url(#linear-gradient)"/>
        <path id="パス_5798" data-name="パス 5798" d="M9.265,14.159c-.051,0-.1-.089-.162-.109a10.3,10.3,0,0,0-3.557-.725c-.319.009-.431.1-.381.408a9.747,9.747,0,0,1,.229,1.573c-.027,3.844.431,7.7.036,11.533-.1.982-.238,1.96-.352,2.941a16.693,16.693,0,0,1-1.751,5.762A8.6,8.6,0,0,1,.32,39.087c-.143.089-.349.314-.317.4.146.4.354.006.532-.01a2.309,2.309,0,0,0,.723-.235A12.94,12.94,0,0,0,5.8,35.641a17.417,17.417,0,0,0,1.272-2.115,27.371,27.371,0,0,0,1.2-3.7,25.991,25.991,0,0,0,.62-5.182c.1-2.7.054-5.4.06-8.108a1.189,1.189,0,0,1,.523-1.1.832.832,0,0,0,.464-.836c-.016-.385-.344-.45-.678-.437" transform="translate(0 -11.289)" fill="url(#linear-gradient)"/>
        <path id="パス_5799" data-name="パス 5799" d="M87.218,17.136c-.853-.3-1.725-.541-2.6-.773a7.084,7.084,0,0,0-1.264-.207c-.454-.035-.623.275-.526.66a16.043,16.043,0,0,1,.471,3.769c.02,2.321-.016,4.642-.059,6.962a34.674,34.674,0,0,1-.075,4.377,39.179,39.179,0,0,0-.152,4.572c.007.346.008.588.018.829a1.259,1.259,0,0,0,1.07,1.241,2.59,2.59,0,0,0,2.117-.6,1.024,1.024,0,0,0,.328-.675c.056-1.87.1-3.742.1-5.614,0-3.944-.324-7.895-.028-11.834a1.954,1.954,0,0,1,.733-1.632c.188-.131.478-.413.436-.516a1.084,1.084,0,0,0-.57-.565" transform="translate(-70.166 -13.689)" fill="url(#linear-gradient)"/>
        <path id="パス_5800" data-name="パス 5800" d="M925.922,55.2c-.56,1.082-1.14,2.154-1.654,3.258a4.077,4.077,0,0,1-1.17,1.685.9.9,0,0,1-.727.189,4.213,4.213,0,0,1-2.087-1.61,6.775,6.775,0,0,1-.532-4.417,25.385,25.385,0,0,0,.351-3.676,3.667,3.667,0,0,0-2.86-3.617.764.764,0,0,0-.243.005c0,.548,0,1.1.031,1.644a14.245,14.245,0,0,1,.131,2.622,17.9,17.9,0,0,0-.134,2.983c.01.422-.095.907-.041,1.33a16.08,16.08,0,0,0,.226,1.881,13.9,13.9,0,0,0,.913,2.834,7.838,7.838,0,0,0,3.468,3.477,5.176,5.176,0,0,0,3.1.5,1.568,1.568,0,0,0,1.214-1.6c-.048-1.321-.192-2.641-.178-3.96a16.525,16.525,0,0,1,.392-2.318c.069-.456.154-.806.2-1.16.011-.089-.11-.2-.171-.293a1.22,1.22,0,0,0-.23.244" transform="translate(-777.022 -39.829)" fill="url(#linear-gradient)"/>
        <path id="パス_5801" data-name="パス 5801" d="M1007.628,71.276a6.121,6.121,0,0,0-3.492-4.163,15.558,15.558,0,0,0-2.613-.853,14.112,14.112,0,0,0-2.481-.024.421.421,0,0,0-.24.111.713.713,0,0,0,.151.345.618.618,0,0,0,.344.157c1.792.206,2.746,1.515,3.629,2.844a8.52,8.52,0,0,1,1.061,3.494,1.94,1.94,0,0,0,1.7,1.764,1.714,1.714,0,0,0,1.919-1.473,4.469,4.469,0,0,0,.026-2.2" transform="translate(-846.363 -56.088)" fill="url(#linear-gradient)"/>
        <path id="パス_5802" data-name="パス 5802" d="M737.633,25.331a.41.41,0,0,0-.131.252c-.075.913-.781,1.539-1.076,2.36a3.433,3.433,0,0,1-.934,1.164c-.5.478-.892.455-1.419-.022a5.5,5.5,0,0,1-.943-.96,5.016,5.016,0,0,1-.91-1.785c-.063-.379.47-.842.693-1.289.6-1.2,1.119-2.452,1.788-3.615.42-.73.452-1.742,1.557-2.054.584-.165.532-.52-.041-.878a12.512,12.512,0,0,0-1.757-1.019,3.742,3.742,0,0,0-1.461-.2.694.694,0,0,0-.462.5c.021,1.386-.808,2.525-1.072,3.824-.035.175-.229.319-.353.474a1.893,1.893,0,0,1-.146.148.881.881,0,0,1-.109-.247c-.144-1.4-.3-2.789-.41-4.188-.062-.827.08-.92.878-.963a6.138,6.138,0,0,0,.953-.2,7.09,7.09,0,0,1,.952-.2c1.146-.087,2.295-.178,3.443-.2.437-.007.462-.2.4-.5a1.333,1.333,0,0,0-.262-.511,6.445,6.445,0,0,0-2.071-1.507c-.258-.146-.536-.3-.191-.692A1.841,1.841,0,0,0,733.516,10c-.606-.158-1.257-.129-1.88-.233a6.574,6.574,0,0,1-.991-.326,5.641,5.641,0,0,1,.464-.843c.526-.669.52-.741-.221-1.107a11.9,11.9,0,0,0-2.437-.632,4.044,4.044,0,0,0-.957-.185.539.539,0,0,0-.58.722,15.262,15.262,0,0,1,.395,1.908c.115,1.317.164,2.64.217,3.961.027.691,0,1.384,0,2.076,0,.823,0,.823-.868.872-.031,0-.062.02-.093.025-.425.061-.848.137-1.275.174a1.54,1.54,0,0,1-.464-.107c.076-.141.118-.329.235-.416.489-.367.395-.655-.017-1.032a11.579,11.579,0,0,0-2.223-1.4c-.211-.12-.26-.068-.378.053-.339.346-.708.666-1.02,1.034s-.7.163-1.058.2a.582.582,0,0,1-.056-.33c.049-.113.189-.188.29-.278a17.241,17.241,0,0,0,3.285-3.081,1.741,1.741,0,0,1,1.394-.877c.435-.017.529-.305.228-.644a2.876,2.876,0,0,0-.69-.582Q723.7,8.3,722.537,7.709c-.664-.339-.667-.32-.825.392-.041.185-.134.359-.2.641-.465,1.469-.913,2.839-1.4,4.2a9.149,9.149,0,0,1-.744,1.557.82.82,0,0,1-.6.258c-.795.029-1.593.044-2.387,0a4.41,4.41,0,0,1-2.061-.375c-.746-.411-1.658-.511-2.427-.891-.408-.2-.464-.014-.539.216a.855.855,0,0,0,0,.611,3.21,3.21,0,0,1,.183,1.79c-.039,1.7-.132,3.4-.194,5.1-.018.484,0,.969-.006,1.453a2.436,2.436,0,0,1-.08.589,1.542,1.542,0,0,0,.482,1.773,2.062,2.062,0,0,0,1.883-.21,1.124,1.124,0,0,0,.392-.751c-.055-.575.206-.623.653-.585.378.032.768-.036,1.138.024.188.03.489.238.5.377.044.932.041,1.868,0,2.8,0,.106-.35.284-.534.279-.612-.014-1.223-.1-1.835-.15a11.336,11.336,0,0,1-2.93-.191,3.342,3.342,0,0,0-1.135-.008.312.312,0,0,0-.048.224,1.556,1.556,0,0,0,1.941.994c1.355-.4,2.718-.074,4.072-.176.088-.007.279.188.273.278a26.672,26.672,0,0,1-.163,4.282c-.227.992.043,1.573,1,1.64a13.176,13.176,0,0,0,5.348-.6,18.805,18.805,0,0,0,5.352-2.644c.578-.441,1.175-.854,1.715-1.35.414-.38.731-.35,1.007.072.319.487.6,1,.915,1.488a7.84,7.84,0,0,0,3.95,3.136,1.659,1.659,0,0,0,2.041-.354,1.87,1.87,0,0,0,.467-2.149,5.313,5.313,0,0,1-.229-1.565,17.315,17.315,0,0,1,.419-3.771c.025-.219.157-.424.19-.643.015-.1-.09-.214-.141-.322a1.776,1.776,0,0,0-.336.186m-7.187-14.022c0-.095.118-.266.183-.268a.585.585,0,0,1,.42.14,2.994,2.994,0,0,1,.223.523,3.563,3.563,0,0,0,1.629,1.9c.192.081.095.24.071.435-.076.635-.643.98-.769,1.555-.447.616-.974.39-1.422.387-.115,0-.323-.346-.327-.536-.028-1.378-.019-2.757-.007-4.136m-14.127,10.2c0,1.147,0,1.147-1.194,1.144-.173,0-.346-.008-.518,0-.234.014-.379-.011-.372-.32.021-.9,0-1.795.015-2.692,0-.1.1-.3.156-.3a4.833,4.833,0,0,1,1.628.061c.429.15.367.612.39,1.171a3.19,3.19,0,0,0-.1.932m.2-3.334c-.017.389-.145.6-.637.437a4.28,4.28,0,0,0-1.3-.1c-.274,0-.354-.087-.344-.353.019-.483,0-.967.006-1.45.012-1.1.014-1.1,1.141-1.112.808.118,1.1.373,1.134.924a14.823,14.823,0,0,1,0,1.657m2.7-.294a2.217,2.217,0,0,1,.517-1.441c.244-.249.521-.472.216-.858a.2.2,0,0,1,.034-.188,1.166,1.166,0,0,1,1.733,1.144c0,.62,0,1.24,0,1.86-.687.556-1.358.27-1.978.265a.737.737,0,0,1-.522-.781m2.488,4.157c-.055.212-.195.58-.287.577-.7-.029-1.427.261-2.088-.169a22.655,22.655,0,0,1-.106-2.489c0-.413.156-.641.6-.628.345.01.691,0,1.037,0,.67.007.846.161.852.876,0,.477-.089.955-.113,1.434-.007.131.139.282.109.4m-2.462,1.633c.009-.207.184-.244.525-.2.108.1.4.05.6.007.764-.166.9-.12,1.349.528.04.637.425.618.7.721.569.216.592.225.3.768-.168.312-.43.578-.567.9-.147.344-.378.392-.7.424-.559.055-1.142-.189-1.692.15-.066.041-.493-.258-.5-.411-.048-.96-.046-1.923-.007-2.884m8.978,3c-.68.669-1.168,1.535-1.85,2.2a17.6,17.6,0,0,1-3.733,2.97,23.9,23.9,0,0,1-2.711,1.222c-.461.185-.67.1-.694-.369-.029-.551-.007-1.105-.007-1.658,0-.967.021-1.936-.01-2.9-.013-.406.095-.515.506-.509,1.762.025,3.524.011,5.286.011a2.214,2.214,0,0,0,.516-.008c.246-.061.58-.109.688-.281.087-.139-.045-.5-.189-.678-.327-.4-.72-.743-1.087-1.11a.905.905,0,0,1-.429-.218c-.234-.177-.475-.345-.713-.517a6.273,6.273,0,0,0,.509-.723,1.278,1.278,0,0,0,.109-.574c.007-2.038-.019-4.077.031-6.114.007-.3-.418-.664-.028-.843.315-.145.318.385.564.543.456.293.791.822,1.462.368a1.042,1.042,0,0,1,.808,0,.8.8,0,0,1,.47.511c.113.968.108,1.951.24,2.916a33.659,33.659,0,0,0,.684,3.759,1.8,1.8,0,0,1-.422,2" transform="translate(-601.474 -5.659)" fill="url(#linear-gradient)"/>
        <path id="パス_5803" data-name="パス 5803" d="M746.114,12.2c.229.947.476,1.894.613,2.856a1.308,1.308,0,0,0,.95,1.226c.635.14,1.435.23,1.859-.408a1.868,1.868,0,0,0,.439-1.81,4.888,4.888,0,0,0-2.867-2.673,4.152,4.152,0,0,0-.837-.407,1.66,1.66,0,0,0-.558.038,2.145,2.145,0,0,0,.069.486,6.345,6.345,0,0,1,.332.691" transform="translate(-631.901 -9.292)" fill="url(#linear-gradient)"/>
        <path id="パス_5804" data-name="パス 5804" d="M716.9,21.085c.317.89.361,1.972,1.415,2.552.345,0,.586,0,.827,0a1.6,1.6,0,0,0,1.383-2.053,3.7,3.7,0,0,0-1.907-2.055,11.615,11.615,0,0,0-2.51-.66c-.079-.019-.18.054-.271.084.04.118.046.268.125.348a4.522,4.522,0,0,1,.939,1.785" transform="translate(-606.58 -15.986)" fill="url(#linear-gradient)"/>
      </g>
    </g>
    <g id="グループ_7599" data-name="グループ 7599" transform="translate(-2761.626 -172.644)">
      <g id="グループ_7597" data-name="グループ 7597" transform="translate(0 0)" clip-path="url(#clip-path-2)">
        <path id="パス_5805" data-name="パス 5805" d="M0,6.961a2.759,2.759,0,0,0,.5-.08.532.532,0,0,0,.279-.168A.611.611,0,0,0,.9,6.408,3.718,3.718,0,0,0,.93,5.917V2.623A2.058,2.058,0,0,0,.89,2.2a.819.819,0,0,0-.142-.328.656.656,0,0,0-.283-.213A1.352,1.352,0,0,0,0,1.578V1.383q.814,0,1.638-.026T3.294,1.33a2.506,2.506,0,0,1,.7.1,2.075,2.075,0,0,1,.633.306,1.651,1.651,0,0,1,.461.5,1.357,1.357,0,0,1,.177.7,1.073,1.073,0,0,1-.274.735,1.542,1.542,0,0,1-.655.442v.018a1.837,1.837,0,0,1,.518.191,1.875,1.875,0,0,1,.447.336,1.587,1.587,0,0,1,.31.452,1.3,1.3,0,0,1,.115.545,1.539,1.539,0,0,1-.164.744,1.276,1.276,0,0,1-.456.482,2.05,2.05,0,0,1-.686.261,4.3,4.3,0,0,1-.855.08q-.284,0-.792-.044T1.425,7.139c-.183,0-.344,0-.483,0l-.372.009-.3.009c-.091,0-.182.007-.27.013ZM2.116,4a2.5,2.5,0,0,0,.323.089,1.96,1.96,0,0,0,.385.035,1.239,1.239,0,0,0,.492-.093,1.06,1.06,0,0,0,.367-.257,1.123,1.123,0,0,0,.23-.385,1.37,1.37,0,0,0,.08-.469,1.165,1.165,0,0,0-.354-.939,1.444,1.444,0,0,0-.965-.3q-.142,0-.274.009l-.284.018Zm0,2.683a1.947,1.947,0,0,0,.434.142A2.273,2.273,0,0,0,3,6.873a1.5,1.5,0,0,0,1.009-.332,1.2,1.2,0,0,0,.39-.969,1.418,1.418,0,0,0-.173-.678,1.814,1.814,0,0,0-.438-.545,3.083,3.083,0,0,1-.752.1,3.765,3.765,0,0,1-.527-.031,1.709,1.709,0,0,1-.394-.1Z" transform="translate(0 -0.834)" fill="url(#linear-gradient)"/>
        <path id="パス_5806" data-name="パス 5806" d="M18.636,8.582q0-.6-.425-.6a.492.492,0,0,0-.244.053.373.373,0,0,0-.142.138.562.562,0,0,0-.066.19,1.227,1.227,0,0,0-.017.2c0,.059,0,.108,0,.146a.939.939,0,0,0,.013.1l-.611-.133q-.284-.062-.576-.106a.928.928,0,0,1,.177-.465.983.983,0,0,1,.35-.284,1.61,1.61,0,0,1,.456-.142,3.074,3.074,0,0,1,.487-.04,3.5,3.5,0,0,1,.576.048,1.8,1.8,0,0,1,.527.169,1.1,1.1,0,0,1,.385.319.807.807,0,0,1,.151.5c0,.106,0,.224-.009.354s-.01.258-.013.385-.007.248-.013.363-.009.211-.009.288a.863.863,0,0,0,.071.355.294.294,0,0,0,.3.159.475.475,0,0,0,.27-.079,1.811,1.811,0,0,0,.226-.177l.142.16a2.94,2.94,0,0,0-.235.221,3.433,3.433,0,0,1-.266.248,1.859,1.859,0,0,1-.288.2.628.628,0,0,1-.31.084.715.715,0,0,1-.434-.16,3.349,3.349,0,0,1-.363-.31,3.717,3.717,0,0,1-.69.336,2.178,2.178,0,0,1-.752.133,1.128,1.128,0,0,1-.368-.062A1.082,1.082,0,0,1,16.617,11a.866.866,0,0,1-.226-.261.645.645,0,0,1-.084-.319.9.9,0,0,1,.23-.66,1.455,1.455,0,0,1,.58-.354,2.908,2.908,0,0,1,.757-.146q.407-.027.762-.026Zm-1.2,1.541a.57.57,0,0,0,.16.429.605.605,0,0,0,.442.155.963.963,0,0,0,.314-.053.789.789,0,0,0,.279-.168c-.006-.083-.01-.16-.013-.231s0-.144,0-.221,0-.162,0-.239.007-.156.013-.239c-.083-.012-.161-.021-.235-.026s-.152-.009-.235-.009a.889.889,0,0,0-.5.151.5.5,0,0,0-.23.451" transform="translate(-10.224 -4.792)" fill="url(#linear-gradient)"/>
        <path id="パス_5807" data-name="パス 5807" d="M27.368,6.315v-.2a1.284,1.284,0,0,0,.509-.133,1.5,1.5,0,0,0,.4-.292,2.089,2.089,0,0,0,.306-.4,3.635,3.635,0,0,0,.23-.465h.177v1.2H30.21v.3H28.988V8.192a.9.9,0,0,0,.119.54.508.508,0,0,0,.421.151.683.683,0,0,0,.341-.106,1.644,1.644,0,0,0,.332-.257l.186.2c-.089.077-.189.16-.3.248a3.027,3.027,0,0,1-.359.243,2.4,2.4,0,0,1-.381.182,1.047,1.047,0,0,1-.367.071,1.067,1.067,0,0,1-.721-.226A.846.846,0,0,1,28,8.564V6.315Z" transform="translate(-17.159 -3.021)" fill="url(#linear-gradient)"/>
        <path id="パス_5808" data-name="パス 5808" d="M35.248,6.315v-.2a1.284,1.284,0,0,0,.509-.133,1.5,1.5,0,0,0,.4-.292,2.087,2.087,0,0,0,.305-.4,3.586,3.586,0,0,0,.23-.465h.177v1.2h1.222v.3H36.868V8.192a.9.9,0,0,0,.12.54.507.507,0,0,0,.42.151.683.683,0,0,0,.341-.106,1.632,1.632,0,0,0,.332-.257l.186.2q-.133.115-.3.248a3.053,3.053,0,0,1-.358.243,2.431,2.431,0,0,1-.381.182,1.05,1.05,0,0,1-.368.071,1.068,1.068,0,0,1-.721-.226.847.847,0,0,1-.261-.677V6.315Z" transform="translate(-22.099 -3.021)" fill="url(#linear-gradient)"/>
        <path id="パス_5809" data-name="パス 5809" d="M44.787,5.64a.43.43,0,0,0,.195.421.96.96,0,0,0,.451.1V6.34c-.077-.006-.153-.01-.23-.013l-.248-.009-.3-.009q-.168,0-.4,0-.434,0-.69.009c-.172.006-.325.015-.461.026V6.163a.942.942,0,0,0,.443-.1.431.431,0,0,0,.195-.421V.921A.532.532,0,0,0,43.6.491a.749.749,0,0,0-.474-.119V.194q.461-.017.9-.062A4.838,4.838,0,0,0,44.787,0Z" transform="translate(-27.025 0)" fill="url(#linear-gradient)"/>
        <path id="パス_5810" data-name="パス 5810" d="M50.386,9.431a1.339,1.339,0,0,0,.314.917,1.12,1.12,0,0,0,.89.359,1.472,1.472,0,0,0,.607-.133,1.355,1.355,0,0,0,.5-.381l.212.231a2.428,2.428,0,0,1-.806.6,2.282,2.282,0,0,1-.965.212,2.22,2.22,0,0,1-.779-.129,1.724,1.724,0,0,1-.594-.363,1.57,1.57,0,0,1-.381-.567,2.125,2.125,0,0,1,0-1.479,1.575,1.575,0,0,1,.381-.567,1.737,1.737,0,0,1,.594-.363,2.229,2.229,0,0,1,.779-.129,1.9,1.9,0,0,1,.748.138,1.588,1.588,0,0,1,.549.381,1.736,1.736,0,0,1,.35.571,2.694,2.694,0,0,1,.159.7Zm1.125-.336a.448.448,0,0,0,.239-.044c.041-.029.062-.1.062-.2a1.12,1.12,0,0,0-.159-.629.612.612,0,0,0-.549-.239.523.523,0,0,0-.341.111.829.829,0,0,0-.222.279,1.358,1.358,0,0,0-.119.363,2.053,2.053,0,0,0-.035.363Z" transform="translate(-30.88 -4.791)" fill="url(#linear-gradient)"/>
        <path id="パス_5811" data-name="パス 5811" d="M68.486,7.643a2.494,2.494,0,0,1,.77.12,2.035,2.035,0,0,1,.66.35,1.771,1.771,0,0,1,.465.566,1.725,1.725,0,0,1,0,1.523,1.77,1.77,0,0,1-.465.567,2.049,2.049,0,0,1-.66.35,2.536,2.536,0,0,1-1.54,0,2.056,2.056,0,0,1-.66-.35,1.77,1.77,0,0,1-.465-.567,1.725,1.725,0,0,1,0-1.523,1.771,1.771,0,0,1,.465-.566,2.043,2.043,0,0,1,.66-.35,2.5,2.5,0,0,1,.77-.12M67.6,9.272a2.922,2.922,0,0,0,.08.726,1.6,1.6,0,0,0,.217.51.928.928,0,0,0,.314.3.745.745,0,0,0,.363.1.662.662,0,0,0,.585-.328,1.786,1.786,0,0,0,.212-.965,2.947,2.947,0,0,0-.079-.726,1.586,1.586,0,0,0-.217-.509.93.93,0,0,0-.314-.3.743.743,0,0,0-.363-.1.663.663,0,0,0-.585.328,1.79,1.79,0,0,0-.212.965" transform="translate(-41.639 -4.792)" fill="url(#linear-gradient)"/>
        <path id="パス_5812" data-name="パス 5812" d="M80.285,3.259v2.2a.886.886,0,0,0,.04.279.423.423,0,0,0,.151.2.953.953,0,0,0,.306.142,2.659,2.659,0,0,0,.514.084V6.34q-.355-.017-.7-.027t-.7-.009q-.354,0-.7.009t-.7.027V6.163a1.483,1.483,0,0,0,.425-.049.524.524,0,0,0,.244-.141.439.439,0,0,0,.106-.226,1.872,1.872,0,0,0,.022-.3V3.259h-.531l.07-.266h.461V2.019a2.52,2.52,0,0,1,.111-.744,2.079,2.079,0,0,1,.323-.647,1.628,1.628,0,0,1,.527-.455A1.453,1.453,0,0,1,80.966,0a1.578,1.578,0,0,1,.872.221.724.724,0,0,1,.341.647.411.411,0,0,1-.128.336.515.515,0,0,1-.341.106.837.837,0,0,1-.2-.022,1.3,1.3,0,0,1-.177-.058,2.578,2.578,0,0,0-.089-.739.342.342,0,0,0-.363-.226.433.433,0,0,0-.27.084.654.654,0,0,0-.181.217,1.115,1.115,0,0,0-.106.3,1.57,1.57,0,0,0-.035.328v1.8h1.133v.266Z" transform="translate(-49.214 0)" fill="url(#linear-gradient)"/>
        <path id="パス_5813" data-name="パス 5813" d="M94.465,2.428a1.255,1.255,0,0,0-.044-.336.69.69,0,0,0-.15-.279.786.786,0,0,0-.284-.2,1.135,1.135,0,0,0-.443-.075V1.33q.735.053,1.453.053.4,0,.8-.018l.8-.035v.212a1.22,1.22,0,0,0-.465.075.777.777,0,0,0-.288.2.691.691,0,0,0-.15.279,1.255,1.255,0,0,0-.044.336V4.217q.071-.053.252-.208t.412-.363q.231-.208.483-.443t.46-.46a4.581,4.581,0,0,0,.345-.416.587.587,0,0,0,.137-.306.313.313,0,0,0-.062-.191.618.618,0,0,0-.155-.146.85.85,0,0,0-.2-.1.941.941,0,0,0-.194-.044V1.33a5.966,5.966,0,0,0,.691.048q.345,0,.7,0,.372,0,.717-.009t.717-.044v.212a2.413,2.413,0,0,0-.837.253,4.647,4.647,0,0,0-.73.469q-.346.27-.668.576t-.66.571l1.815,2.6q.142.2.279.368a1.763,1.763,0,0,0,.3.283,1.479,1.479,0,0,0,.354.195,1.772,1.772,0,0,0,.461.1v.213q-.4-.018-.8-.027t-.8-.009q-.4,0-.788.009t-.788.027V7c.047-.012.112-.026.2-.044a1.245,1.245,0,0,0,.243-.08.847.847,0,0,0,.208-.129.238.238,0,0,0,.089-.19.686.686,0,0,0-.1-.244q-.1-.181-.262-.425t-.35-.523q-.191-.279-.372-.532t-.323-.447c-.095-.13-.163-.224-.2-.284l-.558.443V6.058a2.4,2.4,0,0,0,.026.376.558.558,0,0,0,.119.275.6.6,0,0,0,.279.172,1.973,1.973,0,0,0,.505.08v.213q-.408-.018-.806-.027t-.8-.009q-.363,0-.717.009t-.717.027V6.961a1.912,1.912,0,0,0,.5-.08.6.6,0,0,0,.274-.172.555.555,0,0,0,.12-.275,2.354,2.354,0,0,0,.026-.376Z" transform="translate(-58.648 -0.834)" fill="url(#linear-gradient)"/>
        <path id="パス_5814" data-name="パス 5814" d="M113.439,8.582q0-.6-.425-.6a.492.492,0,0,0-.244.053.373.373,0,0,0-.142.138.562.562,0,0,0-.066.19,1.229,1.229,0,0,0-.018.2c0,.059,0,.108,0,.146a.933.933,0,0,0,.013.1l-.611-.133q-.284-.062-.576-.106a.925.925,0,0,1,.177-.465.983.983,0,0,1,.35-.284,1.61,1.61,0,0,1,.456-.142,3.07,3.07,0,0,1,.487-.04,3.5,3.5,0,0,1,.576.048,1.807,1.807,0,0,1,.527.169,1.1,1.1,0,0,1,.385.319.807.807,0,0,1,.15.5c0,.106,0,.224-.009.354s-.01.258-.013.385-.007.248-.013.363-.009.211-.009.288a.863.863,0,0,0,.07.355.3.3,0,0,0,.3.159.476.476,0,0,0,.27-.079,1.839,1.839,0,0,0,.226-.177l.142.16a2.817,2.817,0,0,0-.235.221,3.431,3.431,0,0,1-.266.248,1.86,1.86,0,0,1-.288.2.628.628,0,0,1-.31.084.715.715,0,0,1-.434-.16,3.349,3.349,0,0,1-.363-.31,3.709,3.709,0,0,1-.691.336,2.175,2.175,0,0,1-.752.133,1.126,1.126,0,0,1-.367-.062A1.084,1.084,0,0,1,111.42,11a.864.864,0,0,1-.226-.261.641.641,0,0,1-.084-.319.9.9,0,0,1,.23-.66,1.452,1.452,0,0,1,.58-.354,2.9,2.9,0,0,1,.757-.146q.407-.027.761-.026Zm-1.2,1.541a.571.571,0,0,0,.159.429.607.607,0,0,0,.443.155.965.965,0,0,0,.314-.053.784.784,0,0,0,.279-.168c-.006-.083-.01-.16-.013-.231s0-.144,0-.221,0-.162,0-.239.007-.156.013-.239c-.083-.012-.161-.021-.235-.026s-.152-.009-.235-.009a.889.889,0,0,0-.5.151.5.5,0,0,0-.23.451" transform="translate(-69.661 -4.792)" fill="url(#linear-gradient)"/>
        <path id="パス_5815" data-name="パス 5815" d="M120.724,7.928q.318.018.633.026c.21.006.421.009.633.009q.275,0,.54-.009t.54-.026v.177a1.166,1.166,0,0,0-.164.031.655.655,0,0,0-.155.062.376.376,0,0,0-.12.106.267.267,0,0,0-.049.164,1.3,1.3,0,0,0,.1.35q.1.261.217.562t.239.576q.12.275.155.381l.779-1.611a1.914,1.914,0,0,0-.279-.4.611.611,0,0,0-.43-.2V7.928q.283.018.562.026t.563.009c.171,0,.342,0,.514-.009s.342-.015.513-.026v.177a1.553,1.553,0,0,0-.164.009.437.437,0,0,0-.159.048.319.319,0,0,0-.12.106.323.323,0,0,0-.044.181,1.14,1.14,0,0,0,.079.341q.08.226.195.5t.235.553q.12.284.2.514c.047-.088.112-.217.195-.385s.165-.342.248-.523.154-.351.213-.514a1.189,1.189,0,0,0,.089-.359.412.412,0,0,0-.155-.332.588.588,0,0,0-.359-.137V7.928c.136.012.271.021.407.026s.271.009.407.009.272,0,.407-.009.272-.015.408-.026v.177a1.138,1.138,0,0,0-.253.075.686.686,0,0,0-.226.177,2.4,2.4,0,0,0-.248.345q-.133.217-.31.576t-.407.877q-.231.518-.549,1.244h-.434l-.956-2.338L123.1,11.4h-.39q-.425-1.081-.69-1.713a7.459,7.459,0,0,0-.469-.965,1.1,1.1,0,0,0-.823-.616Z" transform="translate(-75.689 -4.971)" fill="url(#linear-gradient)"/>
        <path id="パス_5816" data-name="パス 5816" d="M140.547,8.582q0-.6-.425-.6a.492.492,0,0,0-.244.053.373.373,0,0,0-.142.138.562.562,0,0,0-.066.19,1.229,1.229,0,0,0-.018.2c0,.059,0,.108,0,.146a.934.934,0,0,0,.013.1l-.611-.133q-.284-.062-.576-.106a.925.925,0,0,1,.177-.465.983.983,0,0,1,.35-.284,1.609,1.609,0,0,1,.456-.142,3.07,3.07,0,0,1,.487-.04,3.5,3.5,0,0,1,.576.048,1.807,1.807,0,0,1,.527.169,1.1,1.1,0,0,1,.385.319.807.807,0,0,1,.15.5c0,.106,0,.224-.009.354s-.01.258-.013.385-.007.248-.013.363-.009.211-.009.288a.863.863,0,0,0,.071.355.3.3,0,0,0,.3.159.476.476,0,0,0,.27-.079,1.837,1.837,0,0,0,.226-.177l.142.16a2.824,2.824,0,0,0-.235.221,3.431,3.431,0,0,1-.266.248,1.859,1.859,0,0,1-.288.2.628.628,0,0,1-.31.084.715.715,0,0,1-.434-.16,3.352,3.352,0,0,1-.363-.31,3.708,3.708,0,0,1-.691.336,2.175,2.175,0,0,1-.752.133,1.126,1.126,0,0,1-.367-.062,1.085,1.085,0,0,1-.323-.173.865.865,0,0,1-.226-.261.641.641,0,0,1-.084-.319.9.9,0,0,1,.23-.66,1.452,1.452,0,0,1,.58-.354,2.9,2.9,0,0,1,.757-.146q.407-.027.761-.026Zm-1.2,1.541a.571.571,0,0,0,.159.429.607.607,0,0,0,.443.155.965.965,0,0,0,.314-.053.784.784,0,0,0,.279-.168c-.006-.083-.01-.16-.013-.231s0-.144,0-.221,0-.162,0-.239.007-.156.013-.239c-.083-.012-.161-.021-.235-.026s-.152-.009-.235-.009a.889.889,0,0,0-.5.151.5.5,0,0,0-.23.451" transform="translate(-86.657 -4.792)" fill="url(#linear-gradient)"/>
        <path id="パス_5817" data-name="パス 5817" d="M151.149,8.209a2.9,2.9,0,0,1,.62-.416,1.576,1.576,0,0,1,.7-.151,1.173,1.173,0,0,1,.854.306,1.089,1.089,0,0,1,.314.819v1.665a.566.566,0,0,0,.053.261.429.429,0,0,0,.138.16.522.522,0,0,0,.186.079.964.964,0,0,0,.208.022v.177c-.124-.006-.264-.013-.421-.022s-.388-.013-.695-.013q-.434,0-.682.009c-.165.006-.3.015-.4.026v-.177a.926.926,0,0,0,.2-.022.484.484,0,0,0,.182-.079.45.45,0,0,0,.133-.16.566.566,0,0,0,.053-.261V8.785a.511.511,0,0,0-.195-.416.771.771,0,0,0-.5-.16.872.872,0,0,0-.4.1,1.351,1.351,0,0,0-.341.248v1.877a.561.561,0,0,0,.053.261.425.425,0,0,0,.137.16.522.522,0,0,0,.186.079.923.923,0,0,0,.2.022v.177c-.059-.006-.121-.01-.186-.013l-.226-.009-.3-.009q-.169,0-.4,0-.434,0-.686.009c-.168.006-.314.015-.438.026v-.177a1.138,1.138,0,0,0,.226-.022.523.523,0,0,0,.194-.079.429.429,0,0,0,.138-.16.566.566,0,0,0,.053-.261V8.4q0-.443-.584-.443V7.784c.289-.012.579-.025.868-.04a4.105,4.105,0,0,0,.761-.1Z" transform="translate(-93.726 -4.791)" fill="url(#linear-gradient)"/>
        <path id="パス_5818" data-name="パス 5818" d="M165.161,8.582q0-.6-.425-.6a.492.492,0,0,0-.244.053.373.373,0,0,0-.142.138.562.562,0,0,0-.066.19,1.228,1.228,0,0,0-.018.2c0,.059,0,.108,0,.146a.926.926,0,0,0,.013.1l-.611-.133q-.284-.062-.576-.106a.925.925,0,0,1,.177-.465.983.983,0,0,1,.35-.284,1.61,1.61,0,0,1,.456-.142,3.07,3.07,0,0,1,.487-.04,3.5,3.5,0,0,1,.576.048,1.807,1.807,0,0,1,.527.169,1.1,1.1,0,0,1,.385.319.807.807,0,0,1,.15.5c0,.106,0,.224-.009.354s-.01.258-.013.385-.007.248-.013.363-.009.211-.009.288a.863.863,0,0,0,.07.355.3.3,0,0,0,.3.159.476.476,0,0,0,.27-.079,1.838,1.838,0,0,0,.226-.177l.142.16a2.817,2.817,0,0,0-.235.221,3.428,3.428,0,0,1-.266.248,1.86,1.86,0,0,1-.288.2.628.628,0,0,1-.31.084.715.715,0,0,1-.434-.16,3.352,3.352,0,0,1-.363-.31,3.709,3.709,0,0,1-.691.336,2.175,2.175,0,0,1-.752.133,1.126,1.126,0,0,1-.367-.062,1.085,1.085,0,0,1-.323-.173.865.865,0,0,1-.226-.261.641.641,0,0,1-.084-.319.9.9,0,0,1,.23-.66,1.452,1.452,0,0,1,.58-.354,2.9,2.9,0,0,1,.757-.146q.407-.027.761-.026Zm-1.2,1.541a.571.571,0,0,0,.159.429.607.607,0,0,0,.443.155.965.965,0,0,0,.314-.053.784.784,0,0,0,.279-.168c-.006-.083-.01-.16-.013-.231s0-.144,0-.221,0-.162,0-.239.007-.156.013-.239c-.083-.012-.161-.021-.235-.026s-.152-.009-.235-.009a.889.889,0,0,0-.5.151.5.5,0,0,0-.23.451" transform="translate(-102.089 -4.792)" fill="url(#linear-gradient)"/>
        <path id="パス_5819" data-name="パス 5819" d="M175.527,4.684a2.7,2.7,0,0,1,.337-.261,4.709,4.709,0,0,0,.394-.3,2.664,2.664,0,0,0,.332-.328.534.534,0,0,0,.141-.345.235.235,0,0,0-.12-.23,1.02,1.02,0,0,0-.235-.088V2.957c.178.012.353.021.527.026s.35.009.527.009.352,0,.527-.009.35-.015.526-.026v.177a1.648,1.648,0,0,0-.469.106,2.827,2.827,0,0,0-.456.226,4.829,4.829,0,0,0-.438.3q-.212.164-.425.341.2.266.448.607a7.839,7.839,0,0,0,.518.651,3.975,3.975,0,0,0,.571.536,1.23,1.23,0,0,0,.606.261V6.34c-.207-.012-.414-.021-.624-.026S177.8,6.3,177.59,6.3s-.423,0-.633.009-.417.015-.624.026V6.163a1.88,1.88,0,0,0,.319-.093.173.173,0,0,0,.115-.173.345.345,0,0,0-.035-.146,1.22,1.22,0,0,0-.088-.155c-.035-.053-.074-.1-.115-.155l-.115-.137-.46-.584L175.527,5V5.64a.43.43,0,0,0,.194.421.962.962,0,0,0,.452.1V6.34c-.076-.006-.153-.01-.23-.013l-.248-.009-.3-.009c-.112,0-.245,0-.4,0q-.433,0-.69.009c-.171.006-.324.015-.461.026V6.163a.944.944,0,0,0,.444-.1.43.43,0,0,0,.194-.421V.815a.389.389,0,0,0-.145-.336.821.821,0,0,0-.474-.106V.195q.459-.017.9-.062A4.777,4.777,0,0,0,175.527,0Z" transform="translate(-108.993 0)" fill="url(#linear-gradient)"/>
        <path id="パス_5820" data-name="パス 5820" d="M189.776,8.582q0-.6-.425-.6a.492.492,0,0,0-.244.053.373.373,0,0,0-.142.138.562.562,0,0,0-.066.19,1.229,1.229,0,0,0-.018.2c0,.059,0,.108,0,.146a.933.933,0,0,0,.013.1l-.611-.133q-.284-.062-.576-.106a.925.925,0,0,1,.177-.465.983.983,0,0,1,.35-.284,1.61,1.61,0,0,1,.456-.142,3.07,3.07,0,0,1,.487-.04,3.5,3.5,0,0,1,.576.048,1.807,1.807,0,0,1,.527.169,1.1,1.1,0,0,1,.385.319.807.807,0,0,1,.15.5c0,.106,0,.224-.009.354s-.01.258-.013.385-.007.248-.013.363-.009.211-.009.288a.863.863,0,0,0,.071.355.3.3,0,0,0,.3.159.476.476,0,0,0,.27-.079,1.838,1.838,0,0,0,.226-.177l.142.16a2.82,2.82,0,0,0-.235.221,3.431,3.431,0,0,1-.266.248,1.859,1.859,0,0,1-.288.2.628.628,0,0,1-.31.084.715.715,0,0,1-.434-.16,3.349,3.349,0,0,1-.363-.31,3.709,3.709,0,0,1-.691.336,2.175,2.175,0,0,1-.752.133,1.126,1.126,0,0,1-.367-.062,1.084,1.084,0,0,1-.323-.173.865.865,0,0,1-.226-.261.641.641,0,0,1-.084-.319.9.9,0,0,1,.23-.66,1.452,1.452,0,0,1,.58-.354,2.9,2.9,0,0,1,.757-.146q.407-.027.761-.026Zm-1.2,1.541a.571.571,0,0,0,.159.429.607.607,0,0,0,.443.155.965.965,0,0,0,.314-.053.784.784,0,0,0,.279-.168c-.006-.083-.01-.16-.013-.231s0-.144,0-.221,0-.162,0-.239.007-.156.013-.239c-.083-.012-.161-.021-.235-.026s-.152-.009-.235-.009a.889.889,0,0,0-.5.151.5.5,0,0,0-.23.451" transform="translate(-117.522 -4.792)" fill="url(#linear-gradient)"/>
        <path id="パス_5821" data-name="パス 5821" d="M197.873,3.618q.434-.017.868-.062a4.836,4.836,0,0,0,.762-.132V6.646a1.689,1.689,0,0,1-.137.69,2.216,2.216,0,0,1-.407.6,4.674,4.674,0,0,1-.668.585q-.4.292-.93.62l-.062-.222a3.506,3.506,0,0,0,.58-.594,2.866,2.866,0,0,0,.354-.607,2.687,2.687,0,0,0,.177-.607,3.705,3.705,0,0,0,.049-.593V4.415a.656.656,0,0,0-.142-.491.645.645,0,0,0-.443-.129ZM198.926,1a.667.667,0,0,1,.483.194.655.655,0,0,1,.2.487.654.654,0,0,1-.2.487.7.7,0,0,1-.965,0,.653.653,0,0,1-.2-.487.654.654,0,0,1,.2-.487A.667.667,0,0,1,198.926,1" transform="translate(-123.697 -0.625)" fill="url(#linear-gradient)"/>
        <path id="パス_5822" data-name="パス 5822" d="M206.267,6.265a.43.43,0,0,0,.195.421.96.96,0,0,0,.451.1v.177c-.077-.006-.153-.01-.23-.013l-.248-.009-.3-.009q-.168,0-.4,0-.434,0-.691.009c-.171.006-.325.015-.46.026V6.788a.943.943,0,0,0,.443-.1.431.431,0,0,0,.195-.421V4.238a.384.384,0,0,0-.151-.337.865.865,0,0,0-.487-.106V3.618q.478-.017.921-.062a5.331,5.331,0,0,0,.788-.132q-.009.221-.018.434c-.006.142-.009.28-.009.416ZM205.692,1a.667.667,0,0,1,.483.194.655.655,0,0,1,.2.487.654.654,0,0,1-.2.487.7.7,0,0,1-.965,0,.655.655,0,0,1-.2-.487.656.656,0,0,1,.2-.487A.667.667,0,0,1,205.692,1" transform="translate(-128.266 -0.625)" fill="url(#linear-gradient)"/>
        <path id="パス_5823" data-name="パス 5823" d="M213.034,8.2a2.686,2.686,0,0,1,.58-.394,1.458,1.458,0,0,1,.668-.164,1.661,1.661,0,0,1,.637.111.843.843,0,0,1,.425.474q.168-.133.314-.244a1.764,1.764,0,0,1,.306-.186,1.624,1.624,0,0,1,.337-.115,1.822,1.822,0,0,1,.4-.04,1.189,1.189,0,0,1,.532.106.94.94,0,0,1,.341.279,1.142,1.142,0,0,1,.186.385,1.619,1.619,0,0,1,.057.425v1.594a.563.563,0,0,0,.053.262.427.427,0,0,0,.137.159.519.519,0,0,0,.186.079.927.927,0,0,0,.2.022v.177c-.059-.006-.121-.01-.186-.013l-.226-.009-.3-.009c-.112,0-.245,0-.4,0q-.434,0-.673.009t-.363.026v-.177a.739.739,0,0,0,.173-.022.44.44,0,0,0,.168-.079.472.472,0,0,0,.128-.159.563.563,0,0,0,.053-.262v-1.5a.617.617,0,0,0-.682-.708.885.885,0,0,0-.345.071,1.46,1.46,0,0,0-.319.186v1.948a.563.563,0,0,0,.053.262.468.468,0,0,0,.128.159.439.439,0,0,0,.164.079.688.688,0,0,0,.168.022v.177q-.133-.017-.358-.026t-.686-.009q-.434,0-.677.009c-.162.006-.288.015-.376.026v-.177a.775.775,0,0,0,.182-.022.478.478,0,0,0,.173-.079.445.445,0,0,0,.133-.159.563.563,0,0,0,.053-.262V8.856a.676.676,0,0,0-.159-.429.557.557,0,0,0-.461-.2.835.835,0,0,0-.39.1,1.522,1.522,0,0,0-.337.235v1.868a.563.563,0,0,0,.053.262.471.471,0,0,0,.128.159.439.439,0,0,0,.164.079.657.657,0,0,0,.16.022v.177q-.124-.017-.35-.026c-.15-.006-.38-.009-.686-.009q-.434,0-.682.009t-.425.026v-.177a1.03,1.03,0,0,0,.213-.022.515.515,0,0,0,.19-.079.427.427,0,0,0,.137-.159.563.563,0,0,0,.053-.262V8.4q0-.443-.584-.443V7.785q.434-.017.868-.04a4.135,4.135,0,0,0,.761-.1Z" transform="translate(-132.537 -4.792)" fill="url(#linear-gradient)"/>
        <path id="パス_5824" data-name="パス 5824" d="M233.214,8.582q0-.6-.425-.6a.492.492,0,0,0-.244.053.373.373,0,0,0-.142.138.562.562,0,0,0-.066.19,1.229,1.229,0,0,0-.018.2c0,.059,0,.108,0,.146a.937.937,0,0,0,.013.1l-.611-.133q-.284-.062-.576-.106a.925.925,0,0,1,.177-.465.983.983,0,0,1,.35-.284,1.61,1.61,0,0,1,.456-.142,3.07,3.07,0,0,1,.487-.04,3.5,3.5,0,0,1,.576.048,1.807,1.807,0,0,1,.527.169,1.1,1.1,0,0,1,.385.319.807.807,0,0,1,.15.5c0,.106,0,.224-.009.354s-.01.258-.013.385-.007.248-.013.363-.009.211-.009.288a.863.863,0,0,0,.07.355.3.3,0,0,0,.3.159.476.476,0,0,0,.27-.079,1.844,1.844,0,0,0,.226-.177l.142.16a2.812,2.812,0,0,0-.235.221,3.434,3.434,0,0,1-.266.248,1.86,1.86,0,0,1-.288.2.628.628,0,0,1-.31.084.715.715,0,0,1-.434-.16,3.349,3.349,0,0,1-.363-.31,3.71,3.71,0,0,1-.691.336,2.175,2.175,0,0,1-.752.133,1.126,1.126,0,0,1-.367-.062,1.084,1.084,0,0,1-.323-.173.864.864,0,0,1-.226-.261.64.64,0,0,1-.084-.319.9.9,0,0,1,.23-.66,1.452,1.452,0,0,1,.58-.354,2.9,2.9,0,0,1,.757-.146q.407-.027.761-.026Zm-1.2,1.541a.571.571,0,0,0,.159.429.607.607,0,0,0,.443.155.965.965,0,0,0,.314-.053.784.784,0,0,0,.279-.168c-.006-.083-.01-.16-.013-.231s0-.144,0-.221,0-.162,0-.239.007-.156.013-.239c-.083-.012-.161-.021-.235-.026s-.152-.009-.235-.009a.889.889,0,0,0-.5.151.5.5,0,0,0-.23.451" transform="translate(-144.755 -4.792)" fill="url(#linear-gradient)"/>
      </g>
    </g>
    <g id="グループ_7601" data-name="グループ 7601" transform="translate(-2751.297 -161.198)">
      <g id="グループ_7600" data-name="グループ 7600" transform="translate(0 0)" clip-path="url(#clip-path-3)">
        <path id="パス_5825" data-name="パス 5825" d="M4.671,7.869c.152.034.389.1.389.254,0,.068-.068.152-.22.236a.324.324,0,0,0-.2.288c-.017.237-.017.525-.017.829,0,1.642.135,4.147.186,5.247v.034c0,.474-.559.779-1.1.779-.423,0-.812-.2-.812-.678v-.1c.118-1.252.152-2.285.152-3.013,0-.474-.017-.8-.017-.948v-.169c-.017,0-.034.017-.068.017-.254.051-.288.135-.389.372-1.32,2.809-2.5,3.689-2.556,3.689-.017,0-.017,0-.017-.016a.67.67,0,0,1,.085-.254A14.613,14.613,0,0,0,1.2,9.578c0-.169.034-.169.034-.169a11.4,11.4,0,0,1,1.811.609c0-.491,0-1.032-.034-1.557L1.676,8.9c-.169.068-.237.237-.372.237C.914,9.139.186,7.26.186,7.176c0-.034,0-.034.034-.034a.33.33,0,0,1,.118.017,10.979,10.979,0,0,0,1.439.152H2.42C2.589,7.023,4.553,3.6,4.654,2.081c.017-.135,0-.186.051-.186.169,0,2.318,1.015,2.318,1.4,0,.135-.152.237-.491.254-.169,0-.27.1-.406.254a46.464,46.464,0,0,1-3.1,3.486c.694-.017,1.456-.051,2.065-.085A4.822,4.822,0,0,0,4.6,6.075a.542.542,0,0,1-.118-.22.036.036,0,0,1,.034-.034,4.539,4.539,0,0,1,1.15.389C5.957,5.923,7.819,3.334,7.9,1.946c0-.1,0-.118.085-.118a5.039,5.039,0,0,1,2.183,1.235c0,.1-.118.169-.423.186-.2,0-.22.034-.389.237a12.428,12.428,0,0,1-3.47,2.86,1.724,1.724,0,0,1,.965,1.438.852.852,0,0,1-.778.931c-.322,0-.661-.236-.8-.846l-.051-.2Zm-1.3-2.945a.885.885,0,0,1-.829.914.964.964,0,0,1-.846-.626,5.507,5.507,0,0,0-1-1.54c-.135-.1-.2-.186-.2-.22S.542,3.4.66,3.4a4.951,4.951,0,0,1,1.422.2A18.719,18.719,0,0,0,2.725.44,1.118,1.118,0,0,0,2.708.186a.619.619,0,0,0-.017-.1c0-.068.017-.084.068-.084C3.03,0,5.077.71,5.077,1.167c0,.136-.135.254-.473.288a.424.424,0,0,0-.406.253A20.923,20.923,0,0,1,2.556,3.791a1.28,1.28,0,0,1,.812,1.134m3.52,6.211a.9.9,0,0,1-.846.965c-.339,0-.66-.237-.779-.812a8.584,8.584,0,0,0-.474-1.9,1.154,1.154,0,0,1-.135-.305c0-.016,0-.016.017-.016.068,0,2.217.676,2.217,2.064M8,11.626c0,2.454-1.286,2.64-1.591,2.64a.823.823,0,0,1-.829-.846,1.076,1.076,0,0,1,.779-.982,2.836,2.836,0,0,0,1.489-1.371c.051-.118.085-.169.1-.169A3.128,3.128,0,0,1,8,11.626M8.5,8.546c-.152.034-.3.271-.474.271C7.734,8.817,6.9,7.226,6.9,6.989a.045.045,0,0,1,.051-.051c.051,0,.135.017.254.034.525.051,1.168.068,1.54.068a15.4,15.4,0,0,0,.592-2.86,1.945,1.945,0,0,0-.034-.355.3.3,0,0,1-.017-.1c0-.051.017-.068.051-.068.542,0,2.166.728,2.166,1,0,.1-.135.22-.441.254a.4.4,0,0,0-.372.254A17.954,17.954,0,0,1,9.24,7.023c.9-.034,2.014-.1,2.86-.187a5.252,5.252,0,0,0-1.049-1.218c-.1-.068-.152-.118-.152-.135s.034-.017.068-.017c.186,0,3.4.423,3.4,2.065a.9.9,0,0,1-.863.93.981.981,0,0,1-.863-.66c-.085-.17-.186-.372-.322-.609A36.394,36.394,0,0,1,8.5,8.546M16.382,4.5c0,.118-1.3.423-1.9,1.066a1.011,1.011,0,0,1-.609.2c-.373,0-1.9-1.743-2.3-3.91-.034-.2-.05-.27-.3-.27h-.592a6.791,6.791,0,0,0-1.523.135H9.139c-.169,0-.626-.592-.626-.762a12.481,12.481,0,0,0,2.183.22h.389c.085,0,.118-.033.186-.135.017-.017.44-.677.609-.677.135,0,1,.643,1,.981,0,.1-.084.186-.288.254-.372.1-.542.136-.542.254,0,.559,1.98,2.285,4.248,2.606.068.017.085.017.085.034m-5.4,10.7c-2.1,0-2.369-.66-2.369-1.659v-.068c0-.406.017-1.963.017-2.217-.017-.491-.085-.694-.1-.965a.935.935,0,0,0-.017-.152c0-.034.017-.034.068-.034.186,0,2.149.271,2.149.66,0,.1-.068.2-.322.338-.068.034-.118.085-.118.423,0,.135-.017,1.388-.017,1.489v.118c0,.457.186.525.931.525,1.3,0,1.591-.626,1.709-1.709.017-.135.017-.186.034-.186.068,0,.186.982.61,1.269a.9.9,0,0,1,.456.762c0,1.133-1.726,1.4-3.029,1.4M12.4,9.867a.93.93,0,0,1-.846.947.885.885,0,0,1-.762-.575A6.11,6.11,0,0,0,9.613,8.766c-.1-.085-.152-.118-.152-.152a2.384,2.384,0,0,1,.677-.05c.745,0,2.267.135,2.267,1.3m3.368,2.623a.924.924,0,0,1-.846,1c-.3,0-.626-.2-.88-.694a13.149,13.149,0,0,0-1.015-1.862,1.793,1.793,0,0,1-.254-.355c0-.017.017-.017.034-.017,0,0,2.962.118,2.962,1.929" transform="translate(0 0)" fill="#2a3454"/>
        <path id="パス_5826" data-name="パス 5826" d="M38.245,1.74a.618.618,0,0,0-.389.322A15.106,15.106,0,0,1,30.054,9a1.925,1.925,0,0,1-.525.169c-.034,0-.051,0-.051-.017,0-.051.135-.152.423-.355A16.67,16.67,0,0,0,35.944.25c.017-.118,0-.186.1-.186.44,0,2.877.914,2.877,1.337,0,.118-.136.22-.372.288a15.086,15.086,0,0,0,7.328,5.06c.085.034.118.05.118.084,0,.2-1.9.474-2.606,1.066a.858.858,0,0,1-.491.22.723.723,0,0,1-.44-.169A11.869,11.869,0,0,1,38.313,1.74Zm3.876,12.929c0,.39-.372.779-1.151.779-.474,0-.914-.2-.914-.676v-.017c0-.152.017-.288.017-.44H35.131c0,.17.017.322.017.457v.016c0,.491-.626.8-1.2.8-.491,0-.947-.22-.947-.711v-.085a28.16,28.16,0,0,0,.186-3.181,18.359,18.359,0,0,0-.169-2.539C33.016,9.034,33,9.017,33,9a.062.062,0,0,1,.067-.068,12.892,12.892,0,0,1,2.336.914.132.132,0,0,1,.068.068H39.8a.239.239,0,0,0,.22-.118c.085-.135.559-.762.779-.762.254,0,1.912.863,1.912,1.269,0,.118-.1.254-.355.44-.389.271-.389.322-.389.525v.271c0,.694.051,2.014.152,3.08ZM37.755,7.443a27.076,27.076,0,0,0-3.046.152h-.017c-.237,0-.728-.626-.728-.812a32.773,32.773,0,0,0,3.825.236h.372a.317.317,0,0,0,.22-.135c.727-1.134.931-1.4,1.133-1.4A.133.133,0,0,1,39.6,5.5a4.231,4.231,0,0,1,1.709,1.777c0,.085-.068.169-.322.169Zm-2.386,2.911a.663.663,0,0,1-.169.135c-.034.017-.051.118-.051.152-.017.559-.034,1.219-.034,1.879,0,.456.017.93.017,1.353h4.942c.016-.829.033-1.692.033-2.42,0-.322,0-.609-.017-.846,0-.237-.135-.254-.3-.254Z" transform="translate(-13.888 -0.03)" fill="#2a3454"/>
        <path id="パス_5827" data-name="パス 5827" d="M77.331,7.577c0,.389-.44.677-1.032.677a1.951,1.951,0,0,1-.44-.051,13,13,0,0,0-2.776-.322c-.169,0-.338.017-.508.017l-.016.2a8.007,8.007,0,0,1-5.264,7.869,5.923,5.923,0,0,1-1.235.406c-.051,0-.067-.017-.067-.034,0-.068.254-.271.88-.66a9.224,9.224,0,0,0,4.011-7.649c-.626.068-1.269.135-1.9.22.051.762.118,1.489.118,1.523.017.2.034.338.034.474,0,.389-.237,1.523-.9,1.523-.406,0-.812-.474-.812-1.422,0-.085.017-.169.017-.254.051-.694.068-1.151.068-1.642l-.3.051a11.2,11.2,0,0,1-1.963.389c-.795,0-2.386-.626-2.386-1.54,0-.152.085-.423.135-.423a2.491,2.491,0,0,1,.355.152,5.794,5.794,0,0,0,2.267.372,6.325,6.325,0,0,0,.847-.051l1-.118-.034-.406c-.068-.914-.372-1.3-.524-1.32-.542-.051-.813-.068-.813-.236a1.294,1.294,0,0,1,1.151-.9c.66,0,1.912.644,1.912,1.456a1.22,1.22,0,0,1-.118.508,2.5,2.5,0,0,0-.085.66V7.12c.66-.085,1.32-.152,1.946-.22,0-.288.034-.592.051-.948a3.97,3.97,0,0,0,.017-.44c0-1.151-.355-1.371-.423-1.387-.457-.068-.626-.1-.626-.254a1,1,0,0,1,.982-.863c.863,0,2.251.863,2.251,1.591a1.131,1.131,0,0,1-.136.49A3.168,3.168,0,0,0,72.609,6.7l.9-.1c.694-.085.9-.3,1.387-.3.677,0,2.437.508,2.437,1.286" transform="translate(-29.614 -1.417)" fill="#2a3454"/>
        <path id="パス_5828" data-name="パス 5828" d="M99.423,5.306c0,.423-.525.609-.948,1.269a14.025,14.025,0,0,1-1.185,1.557,1.209,1.209,0,0,1,.66,1,1.137,1.137,0,0,1-.135.508,3.294,3.294,0,0,0-.2,1.371c0,.846.1,1.929.1,3.063,0,1.032-.068,2.691-.965,2.691-.559,0-1.015-1-1.015-2.133a2.513,2.513,0,0,1,.2-1.1,5.76,5.76,0,0,0,.254-2.183c0-.626-.017-1.218-.017-1.54,0-.118,0-.322-.017-.491a16.387,16.387,0,0,1-6.786,4.1c-.051,0-.085-.017-.085-.051,0-.085.322-.322.846-.609,3.283-1.777,6.9-7.091,6.9-7.886a.265.265,0,0,0-.2-.254c-.457-.135-.643-.254-.643-.389a.975.975,0,0,1,1-.575,2.3,2.3,0,0,1,2.234,1.659" transform="translate(-42.063 -1.718)" fill="#2a3454"/>
        <path id="パス_5829" data-name="パス 5829" d="M125.921,10.1a1.08,1.08,0,0,1-1.083,1.083,1.459,1.459,0,0,1-1.032-.508,13.494,13.494,0,0,0-2.454-1.946l-.016-.017v.66c0,2.031.118,4.231.2,5.094a2.32,2.32,0,0,1,.017.339c0,1.032-.424,1.793-1,1.793-.93,0-1.2-1.4-1.2-2.2a1.953,1.953,0,0,1,.017-.338c.1-.626.288-1.117.338-1.76.1-1.168.135-2.725.135-3.96,0-3.486-.169-4.011-.491-4.1-.474-.135-.626-.169-.626-.254a.907.907,0,0,1,.88-.626c.779,0,2.25.846,2.25,1.709,0,.406-.288.728-.372,1.286a17.1,17.1,0,0,0-.136,2.047l.051-.017a4.888,4.888,0,0,1,1.168-.1c2.623,0,3.351,1.1,3.351,1.811" transform="translate(-55.934 -1.583)" fill="#2a3454"/>
      </g>
    </g>
  </g>
</svg>
