<svg xmlns="http://www.w3.org/2000/svg" xmlns:xlink="http://www.w3.org/1999/xlink" width="1120" height="209" viewBox="0 0 1120 209">
  <defs>
    <clipPath id="clip-path">
      <rect id="長方形_23627" data-name="長方形 23627" width="208.959" height="208.931" fill="#2a3454"/>
    </clipPath>
  </defs>
  <g id="グループ_8690" data-name="グループ 8690" transform="translate(-224 -323)">
    <g id="グループ_8554" data-name="グループ 8554" transform="translate(369.98 331)" opacity="0.08">
      <path id="パス_5864" data-name="パス 5864" d="M861.555,1004.882c-3.644,2.623-7.191,5.188-10.743,7.742q-20.2,14.518-40.416,29.042c-4.449,3.2-8.917,6.367-13.342,9.6a1.4,1.4,0,0,1-1.956-.019q-25.207-18.182-50.457-36.318-6.552-4.709-13.127-9.391c-.239-.173-.454-.377-.824-.682q32.782-23.56,65.413-47.017Z" transform="translate(-662.095 -957.838)" fill="#2a3454"/>
      <path id="パス_5865" data-name="パス 5865" d="M861.567,1030.305l-65.432,47.029q-32.649-23.463-65.456-47.044c3.528-2.542,6.906-4.98,10.292-7.411q20.926-15.051,41.864-30.093c4.125-2.966,8.262-5.916,12.368-8.909a1.291,1.291,0,0,1,1.818-.035q21.51,15.513,43.062,30.979,10.255,7.372,20.514,14.733C860.878,1029.759,861.147,1029.979,861.567,1030.305Z" transform="translate(-662.126 -884.7)" fill="#2a3454"/>
      <path id="パス_5866" data-name="パス 5866" d="M712.881,1017.68l65.46-47.051,65.448,47.04c-3.293,2.376-6.386,4.619-9.487,6.844q-22.319,16.044-44.645,32.084c-3.436,2.473-6.895,4.915-10.3,7.422a1.481,1.481,0,0,1-2.076-.011q-16.957-12.255-33.949-24.447C733.26,1032.321,723.188,1025.088,712.881,1017.68Z" transform="translate(-712.881 -921.362)" fill="#2a3454"/>
      <path id="パス_5867" data-name="パス 5867" d="M748.485,1017.65,813.9,970.629c21.8,15.668,43.543,31.3,65.444,47.04-2.758,2-5.392,3.921-8.039,5.82q-24.566,17.661-49.14,35.312c-2.427,1.741-4.888,3.439-7.276,5.234a1.342,1.342,0,0,1-1.926.027q-17.269-12.451-34.577-24.851-14.617-10.5-29.227-21.022C749,1018.073,748.851,1017.943,748.485,1017.65Z" transform="translate(-611.349 -921.362)" fill="#2a3454"/>
    </g>
    <g id="グループ_8555" data-name="グループ 8555" transform="translate(960 323)" opacity="0.08">
      <g id="グループ_8010" data-name="グループ 8010" clip-path="url(#clip-path)">
        <path id="パス_5947" data-name="パス 5947" d="M0,112.908V96.05c.244-.317.677-.62.7-.953.168-2.23.282-4.438.61-6.679.539-3.676,1.536-7.2,2.31-10.8A79.734,79.734,0,0,1,8.865,62.194a98.009,98.009,0,0,1,8-14.641A106.314,106.314,0,0,1,28.346,32.888,98.513,98.513,0,0,1,41.464,21.221a91.545,91.545,0,0,1,12.7-8.279A108.082,108.082,0,0,1,68.372,6.547C73.687,4.773,78.888,2.721,84.53,2.226c1.193-1.2,2.826-.306,4.063-.808A7.228,7.228,0,0,1,92.707.812c1.545.3,2.672-.82,4.1-.8,3.786.049,7.575-.079,11.358.044,3.689.119,7.371.462,11.056.7a1.252,1.252,0,0,1,.364.007c3.73,1.536,7.78,1.771,11.646,2.8a142.908,142.908,0,0,1,15.749,5.374c3.353,1.324,6.417,3.366,9.653,5a66.77,66.77,0,0,1,9.266,5.91,92.372,92.372,0,0,1,8.484,6.925A104.255,104.255,0,0,1,188.4,42.2a101.973,101.973,0,0,1,7.371,11.6A135.811,135.811,0,0,1,203.4,70.431a40.5,40.5,0,0,1,2.468,8.477c.405,3.121,2.061,6.022,1.566,9.273,1.2,1.194.557,2.715.745,4.092a40.939,40.939,0,0,1,.687,4.1c.1,3.172.129,6.354.007,9.525-.123,3.2.537,6.432-.652,9.611-.6,1.608.129,3.4-.631,5.237-.608,1.469-.585,3.408-.815,5.138-.489,3.67-1.826,7.077-2.784,10.6a42.227,42.227,0,0,1-2.486,7.39c-1.335,2.75-2.259,5.759-3.85,8.271-1.408,2.223-2.7,4.566-4.031,6.81a89.654,89.654,0,0,1-12.158,16.189c-2.522,2.656-5.075,5.3-7.787,7.755a65.4,65.4,0,0,1-8.494,6.916c-5.458,3.479-10.9,7.04-16.895,9.6a116.138,116.138,0,0,1-14.634,5.4,83.976,83.976,0,0,1-18,3.395c-.531.028-1.3-.285-1.314.726H94.556c-.193-.244-.4-.709-.578-.7-3.8.173-7.445-.7-11.1-1.5-2.121-.464-4.247-.913-6.342-1.476a62.605,62.605,0,0,1-7.7-2.6c-1.666-.69-3.469-1.064-5.1-1.814-3.59-1.648-7.2-3.285-10.637-5.227a113.021,113.021,0,0,1-10.107-6.51,74.168,74.168,0,0,1-8.2-6.673c-4.837-4.638-9.729-9.248-13.5-14.873-2.379-3.547-5.2-6.831-7.271-10.542a109.513,109.513,0,0,1-7.079-14.983c-1.333-3.579-3.069-7.141-3.26-11.1-1.615-2.378-1.511-5.285-2.031-7.9-.563-2.836-1.4-5.8-.924-8.815.08-.5.3-1.3-.71-1.308m190.579-8.281c0-1.832.016-3.665,0-5.5a17.953,17.953,0,0,0-.631-5.592c-.525-1.6-.375-3.434-.707-5.185-.579-3.057-1.557-5.979-2.24-8.98-.492-2.163-1.611-4.006-2.24-6.047-1.694-5.493-4.542-10.381-7.552-15.2-2.179-3.488-4.965-6.527-7.393-9.8-3.567-4.815-8.156-8.462-12.615-12.185-3.275-2.734-6.769-5.532-11.037-6.862-2.519-2.755-6.367-2.953-9.369-4.849a19.046,19.046,0,0,0-6.329-2.346c-3.723-.751-7.276-2.377-11.171-2.26-1.069-1.125-2.463-.583-3.726-.748-1.373-.179-2.724-.6-4.1-.687-1.947-.121-3.907-.031-5.862-.031-1.833,0-3.668-.065-5.5.018-1.867.085-3.687-.121-5.607.59-1.661.616-3.662.2-5.537.785-2.516.783-5.209.976-7.793,1.568-1.423.326-2.761,1.007-4.167,1.425a51.642,51.642,0,0,0-10.052,4.005c-4.388,2.4-8.977,4.584-12.937,7.739-2.855,2.274-5.776,4.481-8.482,6.923a77.455,77.455,0,0,0-9.393,10.738A76.115,76.115,0,0,0,28.932,63.1c-1.621,3.111-3.612,6.126-4.622,9.432C23.218,76.108,21.989,79.666,21,83.288c-1.392,5.079-1.9,10.231-2.615,15.372a35.826,35.826,0,0,0-.019,7.319c.164,2.368-.5,4.728.436,7.134.84,2.159.289,4.6.852,6.954.637,2.664,1.088,5.461,1.912,8.038a92.737,92.737,0,0,0,7.33,17.857A97.15,97.15,0,0,0,40.7,162.65a133.784,133.784,0,0,0,10.532,9.887,28.116,28.116,0,0,0,3.654,2.665c5.067,3.273,10.154,6.536,15.8,8.735a99.465,99.465,0,0,0,14.25,4.579c1.64.368,3.459.089,4.78.765,1.229.629,2.305.382,3.433.594a19.449,19.449,0,0,0,3.728.694c7.88-.118,15.773.542,23.612-1.3a76.789,76.789,0,0,1,8.135-1.759,32.868,32.868,0,0,0,4.491-1.452,42.123,42.123,0,0,0,4.645-2.044c1.45-.626,2.972-1.1,4.377-1.815,2.026-1.027,3.953-2.247,5.96-3.315a73.461,73.461,0,0,0,13.808-9.944,75.338,75.338,0,0,0,11.523-12.758,83.451,83.451,0,0,0,10.127-17.449,101.057,101.057,0,0,0,4.223-12.2,72.6,72.6,0,0,0,1.956-8.668c.417-3.158,1.288-6.318.864-9.581a28.651,28.651,0,0,1-.025-3.662" transform="translate(0 0)" fill="#2a3454"/>
        <path id="パス_5948" data-name="パス 5948" d="M176.749,297.609l6.085,4.668c-2.14,2.4-5.327,3.253-8.2,4.628-4.853,2.32-10.064,1.275-15.142,1.48-3.99-1.572-8.171-2.4-11.981-4.767a50.286,50.286,0,0,1-11.112-9.273,53.621,53.621,0,0,1-5.466-7.973,31.21,31.21,0,0,0-4.962-6.729c-2.348-2.22-4.322-4.857-7.2-6.484a11.972,11.972,0,0,0-1.777-1.016c-1.96-.691-2.836-2.144-3.349-4.067-.549-2.055.7-3.941,2.783-3.617a5.515,5.515,0,0,1,3.032,1.422c2.2,2.361,4.9,4.225,6.6,7.12.96,1.63,2.728,2.771,4.055,4.2.87.939,2.151,1.572,2.387,3.045.023.14.616.19.944.281.085-.412.184-.821.24-1.237.01-.073-.161-.169-.245-.258q-6.478-6.843-12.966-13.677c-.6-.629-1.412-1.055-2.021-1.678a4.9,4.9,0,0,1-1.4-4.876c1.518-.721,2.521,0,3.793.93a32.967,32.967,0,0,1,6.584,6.072c2.449,3.123,5.481,5.8,7.345,9.391a2.916,2.916,0,0,0,2.1,1.345,25.3,25.3,0,0,0-2-3.358c-3.4-4.149-6.524-8.551-10.613-12.092-.781-.676-1.185-1.882-2.534-1.867-.256,0-.542-.461-.773-.743-1.167-1.426-1.42-3.583-.541-4.483.849-.869,2.666-.883,4.206.156a26.85,26.85,0,0,1,10.223,12.478c5.574-1.341,6.708-2.01,12.628,4.289.934-1.767,1.14-4.4,4.691-3.375L157,273.321c.715-1.227-.469-3.193,1.672-3.769,4.018,2.059,6.9,5.128,7.642,10.246,2.115,0,4.4.028,6.684-.006,4.856-.071,10.135,4.075,10.69,9.1.147,1.33,1.5,2.715.4,3.934a12.167,12.167,0,0,1-3.484,2.116c-1.284.673-2.811.97-3.853,2.665m-38.9-24.815c1.1,3.212,2.458,5.027,5.142,5.541a3.245,3.245,0,0,1,.982.263c4.084,2.311,8.729,2.736,13.151,4.217-.055-2.466-1.045-3.91-3.28-4.45-2.866-.692-5.587-1.823-8.533-2.35-2.341-.418-4.493-1.889-7.463-3.221m23.608,25.263c.124-.252.245-.389.213-.45-1.46-2.853-3.1-3.5-6.139-2.514-1.082.351-2.268.422-3.308.857-2.558,1.071-5,1.243-7.606-.862,1.09,2.14,1.1,2.339,2.48,2.683a6.328,6.328,0,0,0,3.4.043,2.005,2.005,0,0,1,1.832.018,5.543,5.543,0,0,1,3.19,3.573c.887-2.341-.7-3.031-1.572-4.064a1.443,1.443,0,0,1-.171-.482l2.488-1.077,2.576,4.444c-.248-1.422-.387-2.15-.5-2.881-.07-.462-.1-.93-.215-2.035l3.329,2.745m4.761-12.216c.982.757,2.1,1.087,2.143,2.85.043,1.856.691,3.749,3.254,3.608,1.527,1.705,2.812.162,3.974-.472a2.755,2.755,0,0,0,1.117-4.028c-3.729.781-6.8-1.845-10.488-1.958M141.44,291.5c2.2.113,4.318.246,5.98-1.412.745.745,1.4,1.473,2.148,2.1.183.154.644-.021.968-.045.013-1.12-1.933-1.276-1.119-2.647,1.8-.063,1.993,1.983,3.812,3.2l-1.17-3.139c2.1-.151,2.242,1.963,3.8,2.883-.119-2.169-1.216-3.546-2.686-3.738-2.048-.267-4.267-.58-6.286.6-.866.506-1.938.663-2.8,1.177-.642.384-1,.035-1.541-.051-1.949-.306-1.954-2.43-3.439-3.4-.746,2.491,1.5,3.141,2.328,4.473" transform="translate(-86.917 -194.01)" fill="#2a3454"/>
        <path id="パス_5949" data-name="パス 5949" d="M515.859,276.192c2.3-1.71,3.495-3.991,5.051-5.951,3.55-4.47,7.12-8.914,11.854-12.232a1.288,1.288,0,0,1,.625-.246c.608-.033,1.219-.012,1.827-.012.557,3.4.189,3.688-2.288,6.052-2.5,2.388-5.2,4.6-7.112,7.627-1.079,1.712-2.9,2.944-4.319,4.459a11.9,11.9,0,0,0-2.539,3.889c.538-.263,1.387-.4,1.558-.813.62-1.51,1.867-2.432,2.9-3.561,2.511-2.74,4.959-5.54,7.536-8.217a27.929,27.929,0,0,1,3.563-2.863c1.309-.974,2.458-.98,3.486-.118a2.764,2.764,0,0,1,.933,3.754,7.95,7.95,0,0,1-3.173,3.7,23.658,23.658,0,0,0-6.061,5.959c-2.01,2.706-4.116,5.341-6.165,7.987-2.511-1.183-2.962-.976-6.3,2.92,2.3.142,2.891-3.538,5.724-1.81.165.368.983,1.3.8,1.956a13.973,13.973,0,0,1-2.15,4.572,18.972,18.972,0,0,1-4.161,4.041c-2.132,1.5-4.865,1.755-7.2,2.927-.683.342-1.683.052-2.537.052h-8.391c-1.611,1.438-2.9,3.176-4.9,4.167a18.032,18.032,0,0,1-11.879,1.161,51.323,51.323,0,0,1-6.316-1.574,19.408,19.408,0,0,1-3.4-1.539c-2.824-1.608-3-2-1.85-5.612-1.215-1.215-2.548-2.526-3.855-3.862a3.527,3.527,0,0,1-.785-4.473c1.887-3.729,4.335-6.526,8.88-7.476a40.075,40.075,0,0,1,8.882-.528,25.527,25.527,0,0,0,13.866-3.719c2.481-1.5,5.087-2.845,7.064-5.028a7.282,7.282,0,0,1,5.646-2.3c2.074-.03,4.148-.006,6.348-.006,2.405-6.46,7.135-11.231,12.081-15.8.772-.714,2.044-.886,3.177-1.345.438,1.113,1.152,2.029,1,2.772a5.456,5.456,0,0,1-1.7,2.559c-1.721,1.635-3.643,3.058-5.355,4.7-3.934,3.779-6.851,8.412-10.35,12.558-.163.192-.021.641-.021,1.27m-29.093,7.865c-3.938,1.719-7.3,3.41-11.136,3-.269,1.469-.345,2.576.736,3.516.99.86,2,1.762,3.338,1.584a5.848,5.848,0,0,0,3.1-1.191,5.154,5.154,0,0,0,1.389-3.009c.155-1.376.482-2.26,1.971-2.46.164-.022.257-.587.6-1.435" transform="translate(-356.727 -193.22)" fill="#2a3454"/>
        <path id="パス_5950" data-name="パス 5950" d="M143.1,578.861c1.158-.72,2.007-1.332,2.928-1.806,5.343-2.749,10.511-5.832,15.734-8.78,4.449-2.51,9.136-4.686,13.3-7.726a2.034,2.034,0,0,1,1.912.2,42.252,42.252,0,0,1,8.515,10,2.939,2.939,0,0,1,0,2.632,25.441,25.441,0,0,1-5.72,6.156c-1.884,1.335-3.824,2.67-5.777,3.85a38.462,38.462,0,0,1-8.471,3.363c-3.389,1.063-6.877.874-10.306.651a11.765,11.765,0,0,1-7.422-3.181c-1.62-1.552-2.98-3.373-4.7-5.354" transform="translate(-109.574 -429.113)" fill="#2a3454"/>
        <path id="パス_5951" data-name="パス 5951" d="M608.689,577.71c-2.639,4.137-5.639,7.268-10.315,8.276a12.817,12.817,0,0,1-2,.457c-1.46.071-2.928-.029-4.389.032-3.677.155-7.039-1.017-10.371-2.356a44.92,44.92,0,0,1-11.315-7.062c-1.835-1.482-3.016-3.774-4.4-5.578,1.974-5.171,5.7-8.623,9.561-12.4,5.632,2.755,11.056,6.058,16.6,9.124,5.581,3.087,11.078,6.325,16.625,9.5" transform="translate(-433.335 -428.111)" fill="#2a3454"/>
        <path id="パス_5952" data-name="パス 5952" d="M483.9,93.867h2.018a3.761,3.761,0,0,1,1.095.014c4.263,1.361,8.795,1.615,13.02,3.071a98.34,98.34,0,0,1,15.527,6.737c3.2,1.764,6.337,3.658,9.351,5.717a42.32,42.32,0,0,1,5.409,4.639c3.423,3.312,6.772,6.7,10.1,10.112a6.983,6.983,0,0,1,.864,2,15.021,15.021,0,0,1-3.322-.9,57.573,57.573,0,0,0-9.786-3.8c-4.746-1.561-9.517-3.053-14.393-4.228-2.4-.579-4.862-1.1-7.245-1.912a37.913,37.913,0,0,0-4.757-.919c-1.478-.29-2.983-.444-4.454-.764a1.779,1.779,0,0,1-1.467-1.747,22.4,22.4,0,0,0-7.21-14.581,52.793,52.793,0,0,0-4.75-3.442" transform="translate(-370.543 -71.849)" fill="#2a3454"/>
        <path id="パス_5953" data-name="パス 5953" d="M163.272,126.543c2.38-4.1,6.157-6.927,9.31-10.318s7.019-5.9,10.773-8.518a74.387,74.387,0,0,1,11.335-6.233,73.486,73.486,0,0,1,12.451-4.453,59.061,59.061,0,0,1,13.123-2.344,22.064,22.064,0,0,0-10.949,14.14c-.34,1.225-.977,2.363-.754,3.732a1.458,1.458,0,0,1-1.427,1.72c-2.447.155-4.7,1.184-7.089,1.481-3.89.483-7.535,1.993-11.363,2.628-3.188.529-6.062,1.967-9.207,2.635-2.263.48-4.428,1.64-6.689,2.384-3,.988-5.91,2.241-8.869,3.352-.163.061-.421-.13-.647-.207" transform="translate(-125.024 -72.498)" fill="#2a3454"/>
        <path id="パス_5954" data-name="パス 5954" d="M612.271,513.145c2.617-2.278,5.144-4.392,7.57-6.615a62.178,62.178,0,0,0,5.143-5.181,2.787,2.787,0,0,1,3.226-.949c3.647,1.575,7.469,2.91,10.364,5.842,2.391,2.422,4.817,4.723,6.25,8,2.337,5.344,3.256,10.811.45,16.764-2.052.6-3.465-.944-4.919-1.83-3.106-1.893-6.432-3.383-9.471-5.383-3.131-2.061-6.644-3.442-9.748-5.592a79.962,79.962,0,0,0-7.116-3.947c-.5-.278-.976-.617-1.748-1.11" transform="translate(-468.84 -383.026)" fill="#2a3454"/>
        <path id="パス_5955" data-name="パス 5955" d="M151.565,500.1l14.023,12.7c-.364,1.553-2.3,1.991-3.662,2.784-5.276,3.082-10.719,5.876-16.046,8.874-3.654,2.057-7.163,4.375-10.989,6.121a13.55,13.55,0,0,1-1.9.565c-3.249-7.258-2.112-12.62,1.38-18.923A22.45,22.45,0,0,1,145.51,502.4c2.082-.872,4.22-1.611,6.054-2.3" transform="translate(-100.365 -382.945)" fill="#2a3454"/>
        <path id="パス_5956" data-name="パス 5956" d="M174.517,671.141c3.144.68,5.9,1.8,8.776,1.474,3.518-.4,7.089-.847,10.3-2.468a3.868,3.868,0,0,1,2.384-.376c.844.114,1.258.769,1.508,1.713.19.716,1.1,1.246,1.7,1.846,3.964,3.968,7.833,8.037,11.92,11.874a83.176,83.176,0,0,0,19.065,13.989,1.371,1.371,0,0,1,.865,1.214c-1.928-.21-3.863-.368-5.781-.645a55.842,55.842,0,0,1-5.784-1.051c-1.966-.5-3.879-1.752-5.8-1.729-2.167.025-3.563-1.534-5.6-1.729-1.81-.173-3.551-1.352-5.263-2.205s-3.288-2.124-5.084-2.728c-1.925-.649-3.334-1.979-4.991-2.964-1.681-1-3.126-2.436-4.87-3.275-2.026-.975-3.042-3.055-4.909-4.048s-3.112-2.619-4.508-4.062c-1.339-1.384-3.25-2.388-3.919-4.828" transform="translate(-133.635 -512.835)" fill="#2a3454"/>
        <path id="パス_5957" data-name="パス 5957" d="M532.817,671.264a83.943,83.943,0,0,1-31.851,23.211,69.112,69.112,0,0,1-25.387,5.622c.616-.336,1.264-.627,1.844-1.017,3.056-2.052,6.135-4.074,9.132-6.209,4.378-3.12,8.116-6.991,12.163-10.491,3.9-3.373,6.837-7.587,10.693-10.963,1.984-1.736,1.948-2.184,4.042-.823,1.382.9,3.128-.011,4.224,1.329,2.962.015,5.824,1.326,8.814.762,1.439-.272,2.815-.857,4.24-1.223a13.551,13.551,0,0,1,2.087-.2" transform="translate(-364.169 -512.89)" fill="#2a3454"/>
        <path id="パス_5958" data-name="パス 5958" d="M731.911,400.709c.288-4.815-.018-8.739-1.725-12.422-1.752-3.777-4.976-6.307-7.858-9.348,2.084-4.181,4.359-8.349,6.272-12.678,2.507-5.675,5.021-11.361,6.339-17.491.43-2,1.37-3.827,1.522-5.976.138-1.978,1.093-3.9,1.8-6.205,1.022,4.327,1.948,8.306,2.66,12.38.63,3.607.417,7.135.547,10.694a71.4,71.4,0,0,1-.07,10.956,80.521,80.521,0,0,1-1.408,9.266c-.682,2.852-1.9,5.578-2.544,8.436-.732,3.241-2.707,5.968-3.452,9.192-.207.9-1.043,1.649-2.08,3.2" transform="translate(-553.116 -257.74)" fill="#2a3454"/>
        <path id="パス_5959" data-name="パス 5959" d="M97.026,401.644a74.839,74.839,0,0,1-6.06-14.413c-.773-2.75-1.387-5.526-2.053-8.3-1.927-8.028-1.364-16.162-1.359-24.269,0-2.519.938-5.009,1.2-7.491.328-3.142,1.848-5.968,1.7-9.289,1.627,1.333,1.111,3.043,1.524,4.487,1.028,3.592,1.873,7.241,3.069,10.785.757,2.245,1.477,4.5,2.33,6.713a121.258,121.258,0,0,0,6.692,14.778c.657,1.2,1.009,2.54,2.047,3.553a1.556,1.556,0,0,1-.155,2.479c-.539.493-1,1.077-1.562,1.539-3.636,2.993-5.514,7.059-6.95,11.384a8.7,8.7,0,0,0-.4,2.39c-.061,1.662-.023,3.328-.027,5.65" transform="translate(-66.982 -258.732)" fill="#2a3454"/>
        <path id="パス_5960" data-name="パス 5960" d="M270.982,639.815a43.163,43.163,0,0,0,11.036-7.97c13.006,10.013,21.872,22.73,25.805,39.106a22.6,22.6,0,0,1-2.675-1.145c-3.745-2.243-7.4-4.615-10.93-7.2-7.728-5.652-14.06-12.777-20.823-19.447a24.174,24.174,0,0,1-2.414-3.347" transform="translate(-207.502 -483.829)" fill="#2a3454"/>
        <path id="パス_5961" data-name="パス 5961" d="M490.314,632.06c2.723,3.293,6.432,4.949,9.579,7.347,1.148.874,1.346,1.395.505,2.309-.99,1.075-2.058,2.078-3.092,3.112q-5.171,5.17-10.34,10.342c-5.151,5.18-11.167,9.265-17.131,13.4a35.732,35.732,0,0,1-5.25,2.512c2.557-13.559,11.062-27.408,25.728-39.018" transform="translate(-355.752 -483.994)" fill="#2a3454"/>
        <path id="パス_5962" data-name="パス 5962" d="M106.494,327.62a38.466,38.466,0,0,1,5.644,2.689,51.437,51.437,0,0,1,12.609,13.339,6.288,6.288,0,0,1,.748,2.958,30.061,30.061,0,0,1,.017,4.384c-.306,4.859,1.965,8.874,4.182,12.9a36.248,36.248,0,0,0,2.347,3.341c-3.549.642-6.564,2.5-9.7,4.03a123.9,123.9,0,0,1-15.851-43.636" transform="translate(-81.547 -250.872)" fill="#2a3454"/>
        <path id="パス_5963" data-name="パス 5963" d="M419.464,255.665v-39.47c1.748.94,2.415,2.128,2.2,3.889a9.784,9.784,0,0,0,1.739,6.21,7.588,7.588,0,0,1,1.166,4.653,8.722,8.722,0,0,0,.7,3.74,10.673,10.673,0,0,1,.8,4.808c-.176,1.877.707,3.592,1.144,5.372a7.753,7.753,0,0,1-.12,4.458,19.921,19.921,0,0,1-6,9.607,15.569,15.569,0,0,0-1.248,1.3c-4.425-1.852-7.285-5.951-8.587-10.673a10.786,10.786,0,0,1,.462-6.97,11.22,11.22,0,0,0,.38-3.135c.082-1.517-.186-3.073.731-4.464a5.69,5.69,0,0,0,.474-1.265c.7-1.994-.5-4.441,1.082-6.115,1.5-1.585.944-3.775,2.1-5.389a1.561,1.561,0,0,0,.013-1.078c-.527-2.272.656-3.915,2.218-5.809v40.364l.746-.029" transform="translate(-314.624 -164.887)" fill="#2a3454"/>
        <path id="パス_5964" data-name="パス 5964" d="M701.247,325.808c-.784,9.366-6.858,30.3-15.836,44.012-3.112-1.573-6.16-3.356-9.737-3.981a23.573,23.573,0,0,0,6.6-13.836,4.107,4.107,0,0,1,.878-1.853c1.172-1.849,2.417-3.687,2.114-6.088a5.491,5.491,0,0,1,1.635-4.034c2.715-3.138,4.636-6.951,7.946-9.564,1.891-1.492,3.9-2.842,6.4-4.656" transform="translate(-517.392 -249.484)" fill="#2a3454"/>
        <path id="パス_5965" data-name="パス 5965" d="M180.9,200.074c-7.737.723-14.867-1-21.867-3.9,1.178-1.469,8.377-4.447,14.412-6.285,4.981-1.518,9.936-3.109,14.989-4.391,5.2-1.318,10.445-2.409,15.929-3.569.545,1.293.586,2.567-.838,3.559-3.072,2.139-5.474,5.011-8.271,7.438a9.693,9.693,0,0,1-4.566,2.174c-3.767.715-7.328,2.018-9.788,4.974" transform="translate(-121.779 -139.31)" fill="#2a3454"/>
        <path id="パス_5966" data-name="パス 5966" d="M583.677,196.269c-2.191.837-4.319,1.991-6.587,2.44-4.136.818-8.251,1.953-12.575,1.589a5.542,5.542,0,0,1-3.812-1.4c-2.28-2.477-5.45-2.878-8.37-3.7a12.344,12.344,0,0,1-5.457-2.754c-2.642-2.538-5.175-5.189-7.8-7.744a2.263,2.263,0,0,1-.75-2.677c15.552,3.01,30.8,7.079,45.349,13.47q0,.39,0,.781" transform="translate(-412.085 -139.378)" fill="#2a3454"/>
        <path id="パス_5967" data-name="パス 5967" d="M467.4,112.286a46.328,46.328,0,0,0-14.428-7.545,15.886,15.886,0,0,0-3.6-.158c-1.3-.073-1.961-.664-1.976-1.939-.043-3.415-.051-6.831,0-10.244a1.673,1.673,0,0,1,2.169-1.7c2.966,1.073,6.108,1.518,8.789,3.565a21.832,21.832,0,0,1,8.051,12.184c.5,1.9.671,3.89.992,5.839" transform="translate(-342.561 -69.378)" fill="#2a3454"/>
        <path id="パス_5968" data-name="パス 5968" d="M379.476,90.176c0,4.236.02,8.012-.009,11.787-.013,1.6-.575,2.306-2,2.279-5.088-.093-9.312,2.176-13.39,4.818-1.45.94-2.762,2.092-4.44,3.379.286-5.726,1.7-10.848,5.232-15.127,3.647-4.423,8.714-6.279,14.6-7.137" transform="translate(-275.391 -69.051)" fill="#2a3454"/>
        <path id="パス_5969" data-name="パス 5969" d="M409.72,153.543a38.761,38.761,0,0,0-3.738,10.362,51.135,51.135,0,0,0-.658,7.009,9.7,9.7,0,0,1-.743,3.328c-.652,1.468-2.035,1.375-3.449,1.078-.27-3.615-1.3-7.184-.907-10.882a7.619,7.619,0,0,1,.29-2.068c.871-2.105.057-4.645,1.838-6.568a5.452,5.452,0,0,1,1.132-.932,9.016,9.016,0,0,1,6.234-1.327" transform="translate(-306.401 -117.519)" fill="#2a3454"/>
        <path id="パス_5970" data-name="パス 5970" d="M450.635,153.507c2.223-.738,4.036.213,5.832.9,1.989.766,2.313,2.764,2.967,4.517.9,2.407.77,4.892.691,7.362-.094,2.928-.364,5.851-.571,8.987-.731,0-1.19.043-1.64-.007-1.664-.186-2.147-.6-2.147-2.121,0-2.723-1.267-5.321-.75-8.085-1.379-3.8-1.931-7.922-4.384-11.555" transform="translate(-345.069 -117.341)" fill="#2a3454"/>
        <path id="パス_5971" data-name="パス 5971" d="M484.446,590.452a49.471,49.471,0,0,1,4.343,11.022c.755,2.835,1.592,5.66,1.234,8.6a6.341,6.341,0,0,1-3.664,4.808c-.578.307-1.186.559-2.344,1.1,1.267-3.056.857-5.747.921-8.411a34.275,34.275,0,0,0-2.018-11.224c-.21-.66-.057-1.426-.2-2.116-.161-.769-.872-1.718-.615-2.208.349-.667,1.386-.974,2.345-1.57" transform="translate(-369.122 -452.133)" fill="#2a3454"/>
        <path id="パス_5972" data-name="パス 5972" d="M380.446,590.97l2.475,1.114c-.126.954.109,1.906-.615,3.129-1.089,1.843-.963,4.2-1.447,6.308a23.576,23.576,0,0,0-.868,8.079c.246,2.058.3,4.139.435,6.178-4.048-.737-6.425-4.4-5.545-8.761,1.462-1.333.027-3.536,1.466-4.876.242-3.5,2.1-6.435,3.317-9.591.2-.512.487-.99.781-1.58" transform="translate(-286.922 -452.53)" fill="#2a3454"/>
        <path id="パス_5973" data-name="パス 5973" d="M545.774,255.521c4.572-4.306,8.6-8.36,10.873-13.76,4.694,1.051,4.694,1.051,6.583,2.667-.426.522-.838,1.065-1.289,1.572-2.052,2.31-4.09,4.633-6.188,6.9a23.051,23.051,0,0,1-2.7,2.162c-1.746,1.393-3.208,1.71-5.09.5-.4-.259-1.114-.038-2.187-.038" transform="translate(-417.921 -185.126)" fill="#2a3454"/>
        <path id="パス_5974" data-name="パス 5974" d="M569.223,270.991l-3.906-2.668a23.323,23.323,0,0,0,2.2-1.19,19.286,19.286,0,0,0,3.052-2.34c3.08-3.213,6.067-6.513,8.907-9.584l3.558,3.557c-.578,2.135-2.655,3.666-4.466,5.327a50.747,50.747,0,0,1-4.531,3.158c-1.608,1.177-3.151,2.44-4.816,3.738" transform="translate(-432.886 -195.424)" fill="#2a3454"/>
        <path id="パス_5975" data-name="パス 5975" d="M407.909,622.909a2.685,2.685,0,0,1-3.382.9c-1.89-.607-3.494-2.072-3.7-3.819-.318-2.653-2.131-5.347-.23-8.155.4-.584-.03-1.675.073-2.514a71.769,71.769,0,0,1,2.229-10.389c.358-1.291,1.467-1.79,2.992-.983-.525,1.353-1.439,2.687-1.494,4.055-.129,3.2-1.261,6.3-.825,9.547.555,4.138,1.48,8.108,4.34,11.359" transform="translate(-306.095 -457.574)" fill="#2a3454"/>
        <path id="パス_5976" data-name="パス 5976" d="M600.238,272.671l3.293,4.355a25.4,25.4,0,0,1-10.3,8.242c-2.032.838-3.933,2.521-6.414,1.886l-.745-1.79c-.02.05,0-.159.121-.28a30.854,30.854,0,0,1,5.825-4.465,28.528,28.528,0,0,0,4.365-3.587c1.347-1.309,2.5-2.815,3.855-4.361" transform="translate(-448.774 -208.795)" fill="#2a3454"/>
        <path id="パス_5977" data-name="パス 5977" d="M457.174,623.052a15.389,15.389,0,0,0,3.665-7.7c.7-4.913.846-6.006-.046-10.732-.424-2.245-.491-4.556-.726-6.9a1.9,1.9,0,0,1,2.16,1.689,100.555,100.555,0,0,1,2.336,10.394,35.42,35.42,0,0,1,.56,5.921,16.126,16.126,0,0,1-.763,4.787,6.484,6.484,0,0,1-3.841,3.422,2.587,2.587,0,0,1-3.344-.88" transform="translate(-350.076 -457.698)" fill="#2a3454"/>
        <path id="パス_5978" data-name="パス 5978" d="M488.2,160.694c2.06,1.263,3.862,2.056,5.225,3.322a5.249,5.249,0,0,1,1.276,3.411c.049,1.464.754,3.133-.63,4.465-.183.175-.075.712-.018,1.068.508,3.13-1.39,5.841-1.533,8.882-.065,1.391-1.943,1.811-3.022.79-.3-.288-.672-.969-.541-1.181,1.53-2.488.435-5.18.646-7.757a47.125,47.125,0,0,0-.01-7.657,33.65,33.65,0,0,0-1.393-5.342" transform="translate(-373.832 -123.05)" fill="#2a3454"/>
        <path id="パス_5979" data-name="パス 5979" d="M381.965,162.811c-1.723,2.63-1.766,5.544-1.674,8.486.034,1.1.006,2.193.006,3.289,0,1.705-.112,3.421.033,5.114a44.184,44.184,0,0,0,.867,4.567h-2.956a37.6,37.6,0,0,1-1.55-5.261c-.285-1.836-1.248-3.575-.831-5.543a2.816,2.816,0,0,0-.452-1.614c-1.105-2.176.889-4.063.551-6.165-.022-.141.293-.385.5-.506,1.634-.969,3.278-1.92,4.92-2.876l.59.51" transform="translate(-287.207 -124.28)" fill="#2a3454"/>
        <path id="パス_5980" data-name="パス 5980" d="M581.1,481.083c.829-1.834,2-3.224,1.738-5.134-.05-.367.726-.846,1.292-1.459,4.226,4.054,9.358,6.186,15.352,7.952l-1.543.995c-1.08.7-1.479,2.4-3.053,2.3a12.672,12.672,0,0,1-3.7-.759c-2.624-1.014-5.172-2.223-7.771-3.307a18.026,18.026,0,0,0-2.318-.591" transform="translate(-444.972 -363.336)" fill="#2a3454"/>
        <path id="パス_5981" data-name="パス 5981" d="M262.465,249.71a12.927,12.927,0,0,1,3.957,5.188,22.182,22.182,0,0,0,8.787,9.356l-4,2.089c-1.479-1.478-2.866-2.805-4.185-4.2-1.919-2.027-4.339-3.551-5.921-5.91a14.748,14.748,0,0,1-1.28-2.035c-.764-1.685-.382-2.572,1.374-3.592.394-.229.748-.526,1.268-.9" transform="translate(-198.671 -191.213)" fill="#2a3454"/>
        <path id="パス_5982" data-name="パス 5982" d="M357.8,180.888c-.679,6.716,1.1,12.63,2.745,18.607l-2.177,2.327c-3.666-5.067-5.753-10.393-5-16.507l4.432-4.427" transform="translate(-270.472 -138.513)" fill="#2a3454"/>
        <path id="パス_5983" data-name="パス 5983" d="M511.251,179.549l4.3,4.3c1.187,6.438-1.015,11.822-4.676,16.9-2.019-1.782-2.278-2.315-1.69-4.212a43.219,43.219,0,0,0,2.072-16.978" transform="translate(-389.688 -137.488)" fill="#2a3454"/>
        <path id="パス_5984" data-name="パス 5984" d="M246.29,485.563l6.911,1.628a1.894,1.894,0,0,1-1.085,2.624c-2.738,1.01-5.242,2.592-8.231,3.032a31.131,31.131,0,0,0-5.193,1.636l-3.606-3.62c4.059-1.242,8.3-2.257,11.2-5.3" transform="translate(-180.015 -371.815)" fill="#2a3454"/>
        <path id="パス_5985" data-name="パス 5985" d="M278.281,242.242l4.925-1.536c1.336,2.354,2.465,4.989,4.171,7.175a70.181,70.181,0,0,0,6.306,6.364L290.1,256.03c-1.128-.758-2.608-1.631-3.948-2.683-2.343-1.837-3.513-4.525-4.926-7.047a44.109,44.109,0,0,0-2.949-4.059" transform="translate(-213.091 -184.318)" fill="#2a3454"/>
        <path id="パス_5986" data-name="パス 5986" d="M356.521,601.922c-.221-6.284,2.376-11.721,5.359-17.055l3.544,1.177c-2.77,6.161-5.488,12.341-5.264,19.793a11.214,11.214,0,0,1-1.4-1.1c-.694-.8-1.33-1.659-2.243-2.815" transform="translate(-272.992 -447.856)" fill="#2a3454"/>
        <path id="パス_5987" data-name="パス 5987" d="M503.917,605.615c-1.062-2.287.1-4.68-.839-7.049-.766-1.936-1.155-4.124-1.946-6.138-.823-2.094-1.573-4.215-2.389-6.416l2.985-1.087a16.838,16.838,0,0,1,1.115,1.582,40.409,40.409,0,0,1,4.12,10.342c.719,3.074.778,6.14-2.041,8.414a3.389,3.389,0,0,1-1,.352" transform="translate(-381.907 -447.901)" fill="#2a3454"/>
        <path id="パス_5988" data-name="パス 5988" d="M618.484,467.6c-.718.524-1.206.846-1.653,1.215-.82.677-1.558,1.849-2.438,1.959a8.12,8.12,0,0,1-3.573-.9,41.688,41.688,0,0,1-8.133-4.122c-.851-.564-1.608-1.272-2.328-1.849l3.4-3.1c3.927,3.251,8.9,5.357,14.728,6.8" transform="translate(-459.719 -352.848)" fill="#2a3454"/>
        <path id="パス_5989" data-name="パス 5989" d="M318.468,238.384l-3.11,3.122c-2.048-2.353-4.372-4.926-6.567-7.6a14.2,14.2,0,0,1-1.571-2.993c-.907-1.911-.839-2.111.683-3.15.967-.659,1.9-1.361,3-2.146.2,5.519,3.519,9.361,7.567,12.772" transform="translate(-234.798 -172.76)" fill="#2a3454"/>
        <path id="パス_5990" data-name="パス 5990" d="M541.788,225.5c1,.781,1.86,1.523,2.79,2.166,1.733,1.2,1.793,2.2.79,4.035-2.1,3.844-5.33,6.671-8.374,9.793-1.324-.376-1.095-2.464-2.91-2.389.661-1.619,1.89-2.456,2.894-3.438,2.843-2.78,4.723-6,4.81-10.168" transform="translate(-408.969 -172.678)" fill="#2a3454"/>
        <path id="パス_5991" data-name="パス 5991" d="M523.051,221c2.453-4.92,5.3-9.492,5.057-15.378a6.163,6.163,0,0,1,4.225,4.618c.247,1.41-.687,3.031-1.113,4.553-.848,3.027-3.35,4.771-5.41,6.832-1.019,1.019-1.949.274-2.759-.624" transform="translate(-400.521 -157.454)" fill="#2a3454"/>
        <path id="パス_5992" data-name="パス 5992" d="M331.672,210.287l3.461-3.179a28.577,28.577,0,0,0,5.647,14.844l-2.661,1.387a52.089,52.089,0,0,1-4.025-4.081c-2.166-2.647-2.422-3.985-2.422-8.97" transform="translate(-253.975 -158.591)" fill="#2a3454"/>
        <path id="パス_5993" data-name="パス 5993" d="M573.043,507.858v-4.009l14.356,5.574-3.852,3.955-10.5-5.52" transform="translate(-438.802 -385.818)" fill="#2a3454"/>
        <path id="パス_5994" data-name="パス 5994" d="M262.041,516.376l-4.176-4.18c3.515-1.276,7.384-2.428,11.005-4.113,1.511-.7,2.316-.739,3.308.418.293.341.63.645,1.225,1.249-3.753,2.813-8.107,3.966-11.362,6.626" transform="translate(-197.458 -388.681)" fill="#2a3454"/>
        <path id="パス_5995" data-name="パス 5995" d="M522.577,590.825h-1.8c-.7-5.154-3.927-9.422-5.527-14.537h3.795c2.624,4.324,6.454,8.45,3.528,14.537" transform="translate(-394.551 -441.287)" fill="#2a3454"/>
        <path id="パス_5996" data-name="パス 5996" d="M502.763,303.7c-1.325-.177-2.092-.78-2-1.854.135-1.492-.347-2.937.544-4.543.624-1.125.374-2.906.842-4.386.741-2.341,2.289-4.188,3.494-6.237.356-.606,1.32-.854,1.991-1.258l2.425,2.54c-5.589,5.689-6.573,8.968-7.3,15.738" transform="translate(-383.448 -218.561)" fill="#2a3454"/>
        <path id="パス_5997" data-name="パス 5997" d="M236.775,268.669c1.436-1.224,2.446-2.7,4.148-3.761a21.54,21.54,0,0,0,5.412,7.744c1.794,1.532,3.662,2.978,5.639,4.576l-1.417,2.1c-.9-.982-1.648-1.921-2.525-2.722a4.988,4.988,0,0,0-2.266-1.5c-3.856-.487-6.091-3.267-8.58-5.72a5.782,5.782,0,0,1-.412-.712" transform="translate(-181.308 -202.851)" fill="#2a3454"/>
        <path id="パス_5998" data-name="パス 5998" d="M341.032,588.656c-.276-3.7.286-7.038,2.876-9.789a2.38,2.38,0,0,0,.579-1.2c.289-1.9,1.553-2.155,3.13-1.984.357.039.722.006,1.428.006a8.42,8.42,0,0,1-.428,2.229,74.219,74.219,0,0,0-5.109,12.8l-2.476-2.056" transform="translate(-261.093 -440.789)" fill="#2a3454"/>
        <path id="パス_5999" data-name="パス 5999" d="M361.028,304.119c-.531-1.471-1.04-2.211-1.02-2.937.125-4.483-2.168-7.867-4.843-11.1-.231-.279-.516-.512-.767-.775-1.451-1.518-1.453-1.895,0-3.513.242-.27.512-.516.769-.773A14.193,14.193,0,0,1,361.51,295a25.6,25.6,0,0,1,.622,6.251,13.971,13.971,0,0,1-1.1,2.873" transform="translate(-270.543 -218.251)" fill="#2a3454"/>
        <path id="パス_6000" data-name="パス 6000" d="M591.7,312.539l-2.423-2.47c2.22-1.347,5.11-1.607,7.594-3.06,2.194-1.284,4.51-2.346,6.2-4.279.718-.819,2.133-.762,2.394-2.227.088-.492,2.47-.1,3.086.731a6.015,6.015,0,0,1,.966,2.491c.156.9-.711,1.692-1.771,1.729-1.455.051-2.915.061-4.369,0a4.787,4.787,0,0,0-3.743,1.516,26.183,26.183,0,0,1-7.939,5.569" transform="translate(-451.237 -229.941)" fill="#2a3454"/>
        <path id="パス_6001" data-name="パス 6001" d="M342.232,317.771a18.424,18.424,0,0,0-1.631-1.154,4.816,4.816,0,0,0-1.02-.273c-.412-5.356-4.192-8.271-8.352-11.236a13.253,13.253,0,0,1,2.514-1.6c.953-.339,2.055-.632,2.944.365,3.361,3.765,6.032,7.805,5.545,13.893" transform="translate(-253.635 -232.168)" fill="#2a3454"/>
        <path id="パス_6002" data-name="パス 6002" d="M308.59,542.538c2.2.25,1.958,2.017,2.566,3.136a42.863,42.863,0,0,0-3.781,3.187,30.92,30.92,0,0,0-2.563,3.453l-4.491-4.491c2.119-2.557,5.427-3.736,8.269-5.285" transform="translate(-229.968 -415.443)" fill="#2a3454"/>
        <path id="パス_6003" data-name="パス 6003" d="M558.191,548.15l-4.725,4.725c-1.985-2.186-4.029-4.321-5.908-6.593-.457-.553-.367-1.558-.509-2.257a2.58,2.58,0,0,1,3.566-.455c2.454,1.446,4.878,2.945,7.575,4.581" transform="translate(-418.898 -415.842)" fill="#2a3454"/>
        <path id="パス_6004" data-name="パス 6004" d="M497.181,493.265c.8.366,1.4.451,1.5.721a29.341,29.341,0,0,1,.776,2.957c.925,3.639,3.744,5.871,6.263,8.306.251.242.939.033,1.679.033.045.886.09,1.787.131,2.6-1.922,1.333-3.431.887-4.919-.517a16.721,16.721,0,0,1-5.059-8.095c-.444-1.788-.255-3.732-.372-6" transform="translate(-380.711 -377.713)" fill="#2a3454"/>
        <path id="パス_6005" data-name="パス 6005" d="M381.63,262.149c.716-.715,1.379-1.436,2.1-2.089a1.565,1.565,0,0,1,2.479.053c.744.883,1.831,1.811,1.956,2.821.457,3.678,1.8,7.351.151,11.131-.475,1.09-.135,2.537-.377,3.834-.952-5.754-1.257-11.7-6.312-15.75" transform="translate(-292.229 -198.692)" fill="#2a3454"/>
        <path id="パス_6006" data-name="パス 6006" d="M352.454,509.474c-1.106-1.143-2.635-1.794-1.975-3.627,4.615-.586,8.091-7.12,8.978-12.151l1.885,1.2c-.279,1.082-.565,1.951-.714,2.844-.133.8-.4,1.583-.558,2.315-.946,4.365-3.7,7.122-7.616,9.423" transform="translate(-268.254 -378.043)" fill="#2a3454"/>
        <path id="パス_6007" data-name="パス 6007" d="M629.257,458.866a28.248,28.248,0,0,0,8.249-1.647,1.174,1.174,0,0,1,.964.045c1.51,1.35,3.379,1.37,5.76,1.258l-2.681,4.273c-4.889.954-8.538-1.616-12.292-3.93" transform="translate(-481.847 -350.05)" fill="#2a3454"/>
        <path id="パス_6008" data-name="パス 6008" d="M230.958,477.811c-2.918,1.377-5.378,3.456-8.647,3.884a2.021,2.021,0,0,0-.963.309c-1.111.881-1.95.469-2.778-.439-.74-.811-1.546-1.561-2.354-2.369a7.56,7.56,0,0,1,3.708-1.251,10.734,10.734,0,0,0,4.135-1.433,4.756,4.756,0,0,1,4.906.053c.6.309,1.156.717,1.993,1.245" transform="translate(-165.564 -364.381)" fill="#2a3454"/>
        <path id="パス_6009" data-name="パス 6009" d="M543.945,568.541c-1.422,1.289-1.674,3.649-3.68,4.963-1.534-2.822-2.846-5.529-4.452-8.048a4.534,4.534,0,0,1-.474-2.973,2.72,2.72,0,0,1,3.795.371c1.663,1.84,3.211,3.784,4.812,5.688" transform="translate(-409.899 -430.26)" fill="#2a3454"/>
        <path id="パス_6010" data-name="パス 6010" d="M526.464,305.179a19.8,19.8,0,0,0-6.409,6c-1.569,2.209-2.146,5.122-3.379,8.293-1.377-6.239.815-10.8,4.074-15.025a2.616,2.616,0,0,1,3.451-.789,9.243,9.243,0,0,1,1.5.772,5.073,5.073,0,0,1,.768.748" transform="translate(-395.319 -232.279)" fill="#2a3454"/>
        <path id="パス_6011" data-name="パス 6011" d="M293.052,527.873c-.394.395-.727.981-1.216,1.176a24.378,24.378,0,0,0-7.042,4.14,1.549,1.549,0,0,1-2.233-.054c-.818-.7-1.666-1.365-2.509-2.053,2.66-2.951,6.055-3.783,8.867-5.56.814-.514,2.479.541,4.133,2.35" transform="translate(-214.447 -402.315)" fill="#2a3454"/>
        <path id="パス_6012" data-name="パス 6012" d="M568.743,530.569l-3.206,3.2-9.527-5.354c2.252-2.835,3.126-3.137,5.6-1.839,2.4,1.259,4.74,2.648,7.128,3.993" transform="translate(-425.76 -402.657)" fill="#2a3454"/>
        <path id="パス_6013" data-name="パス 6013" d="M213.394,458.834c-3.421,1.742-6.6,2.963-10.451,2.371l-2.126-3.864,7.221-2.332,5.357,3.825" transform="translate(-153.773 -348.419)" fill="#2a3454"/>
        <path id="パス_6014" data-name="パス 6014" d="M324.108,573.578l-3.13-5.041,6.9-6.9a3.841,3.841,0,0,1,1.983,2.05l-5.751,9.889" transform="translate(-245.786 -430.069)" fill="#2a3454"/>
        <path id="パス_6015" data-name="パス 6015" d="M330.461,325.972c-.657.065-.774.087-.89.087-1.337,0-2.675,0-4.259,0-.428-3.505-2.605-6.026-5.066-8.127l1.879-2.242c4.017,2.233,7.149,5.235,8.337,10.28" transform="translate(-245.225 -241.738)" fill="#2a3454"/>
        <path id="パス_6016" data-name="パス 6016" d="M488.307,262.3a13.081,13.081,0,0,0-4.668,7.529c-.132.549-.5,1.121-.422,1.628.328,2.075-.641,3.864-1.358,5.785-.048-1.025-.13-2.05-.136-3.075-.018-3.161.076-6.324-.047-9.48a5.547,5.547,0,0,1,.94-3.262c.6-.929,1.451-2.191,2.853-1.71.956.328,2.217.616,2.387,2.034.023.185.275.344.452.551" transform="translate(-368.835 -198.791)" fill="#2a3454"/>
        <path id="パス_6017" data-name="パス 6017" d="M373.127,293.528H371.56c.231-3.218.281-6.487-1.057-9.331-1.269-2.7-2.258-5.848-5.828-7.253.642-.626,1.106-1.445,1.736-1.6a2.464,2.464,0,0,1,2.629.606,14.423,14.423,0,0,1,3.4,6.261c1.057,3.8.294,7.516.689,11.319" transform="translate(-279.245 -210.738)" fill="#2a3454"/>
        <path id="パス_6018" data-name="パス 6018" d="M499.1,277.256c-2.737.474-3.469,2.761-4.538,4.4a9.024,9.024,0,0,0-1.658,5.835c-1.653,1.837-.107,4.182-.982,6.2h-1.217c0-2.818-.441-5.67.114-8.312.661-3.146.872-6.638,3.685-9.012,1.663-1.4,2.577-1.36,4.6.892" transform="translate(-375.627 -210.898)" fill="#2a3454"/>
        <path id="パス_6019" data-name="パス 6019" d="M371.167,507.9c.607,1.056,1.287,1.686,1.208,2.2-.349,2.26-.535,4.674-1.514,6.671a20.465,20.465,0,0,1-4.314,5.15,4.983,4.983,0,0,1-2.794,1.092c-.512.059-1.115-.661-1.82-1.123a70.239,70.239,0,0,0,6.045-6.03c1.682-2.12,2.095-4.97,3.19-7.957" transform="translate(-277.146 -388.919)" fill="#2a3454"/>
        <path id="パス_6020" data-name="パス 6020" d="M543.977,337.966h-2.591c0-.416-.143-.886.022-1.052a26.688,26.688,0,0,0,3.613-5.438,24.535,24.535,0,0,1,2.4-2.952,16.089,16.089,0,0,0,2.331-.022,1.611,1.611,0,0,1,1.71,1.08,1.678,1.678,0,0,1-.573,2.215,32.163,32.163,0,0,0-3.042,2.327c-1.347,1.226-2.593,2.562-3.874,3.843" transform="translate(-414.517 -251.531)" fill="#2a3454"/>
        <path id="パス_6021" data-name="パス 6021" d="M488.142,510.5c1.806.673,1.589,2.476,1.95,3.7a13.806,13.806,0,0,0,8.121,8.949,6.933,6.933,0,0,1-.612.728c-1.641,1.477-1.634,1.454-3.561.471a11.015,11.015,0,0,1-3.907-3.856c-2.161-3.081-2.486-6.389-1.991-9.994" transform="translate(-373.636 -390.907)" fill="#2a3454"/>
        <path id="パス_6022" data-name="パス 6022" d="M525.427,491.965a17.791,17.791,0,0,1-6.407-9.8,1.588,1.588,0,0,1,2.535.168,13.494,13.494,0,0,1,1.544,2.281c1.425,2.819,3.51,4.6,6.818,4.5-.005,2.422-.251,2.774-2.007,2.843-.851.034-1.705.006-2.483.006" transform="translate(-397.434 -368.795)" fill="#2a3454"/>
        <path id="パス_6023" data-name="パス 6023" d="M510.233,494.546h1.86a14.333,14.333,0,0,0,8.579,9.237c-.6.651-1.045,1.567-1.627,1.665-.989.166-2.426.195-3.036-.388-1.7-1.623-3.6-3.063-4.785-5.261a7.843,7.843,0,0,1-.992-5.253" transform="translate(-390.629 -378.694)" fill="#2a3454"/>
        <path id="パス_6024" data-name="パス 6024" d="M538.366,317.72c-5.22,2.244-6.148,7.8-9.466,11.347-1.364-.349-1.474-.726-1.115-2.126,1.078-4.2,3.608-7.276,6.727-9.995a2.759,2.759,0,0,1,1.94-.232,7.723,7.723,0,0,1,1.915,1.006" transform="translate(-404.011 -242.474)" fill="#2a3454"/>
        <path id="パス_6025" data-name="パス 6025" d="M325.94,491.456a5.808,5.808,0,0,0,5.115-1.417c.445-.376,1.2-.664,1.307-1.111.513-2.209,2.51-2.446,4.532-4.084a11.83,11.83,0,0,1-.479,2.265,41.132,41.132,0,0,1-2.824,4.987,5.751,5.751,0,0,1-5.536,2.358c-1.792-.172-1.995-.348-2.114-3" transform="translate(-249.585 -371.265)" fill="#2a3454"/>
        <path id="パス_6026" data-name="パス 6026" d="M336.088,502.251c.677-.282.96-.437,1.263-.522,3.65-1.023,5.7-3.691,7.251-6.927a18.8,18.8,0,0,1,1.657-2.354c1.341,3.2-.239,5.31-1.628,7.314a36.2,36.2,0,0,1-3.553,3.654c-.929,1-2.083.494-3.074.423-.6-.043-1.132-.9-1.915-1.59" transform="translate(-257.356 -377.088)" fill="#2a3454"/>
        <path id="パス_6027" data-name="パス 6027" d="M388.772,529.6a18.548,18.548,0,0,1-3.227,11.519,2.38,2.38,0,0,1-1.479.75,12.684,12.684,0,0,1-2.207.032c-.819-1.118-.287-1.927.561-2.754,1.52-1.485,3.235-2.839,4.1-4.85.444-1.031,1.1-2.028.914-3.291-.04-.273.587-.644,1.338-1.406" transform="translate(-292.092 -405.535)" fill="#2a3454"/>
        <path id="パス_6028" data-name="パス 6028" d="M478.626,531.984a4.853,4.853,0,0,1,1.231.166c.724,4.513,3.713,7.557,6.881,10.48-2.588,1.915-3.924,1.641-5.327-.895a22.626,22.626,0,0,1-2.785-9.751" transform="translate(-366.503 -407.362)" fill="#2a3454"/>
        <path id="パス_6029" data-name="パス 6029" d="M400.4,558.091c2.63-2.05,2.1-5.492,4.01-7.794,1.4,1.761,2.884,3.342,1.177,5.648-.233.315-.092.959-.02,1.435.161,1.062-.068,2.115-1.061,2.439a2.541,2.541,0,0,1-3.217-.824,7.121,7.121,0,0,0-.889-.9" transform="translate(-306.606 -421.385)" fill="#2a3454"/>
        <path id="パス_6030" data-name="パス 6030" d="M471.141,549.838c1.284,2.814,1.739,5.717,4.01,8.144-.549.408-1.078.865-1.665,1.226-1.486.914-3.158.454-3.372-1.225a47.071,47.071,0,0,1-.045-7.037c.006-.261.478-.512,1.073-1.107" transform="translate(-359.862 -421.033)" fill="#2a3454"/>
        <path id="パス_6031" data-name="パス 6031" d="M200.828,440.618l-6.463,1.908-1.225-4.919c1.442-1.015,3.186.356,3.933-.745l3.755,3.756" transform="translate(-147.895 -334.523)" fill="#2a3454"/>
        <path id="パス_6032" data-name="パス 6032" d="M224.474,289.893l2.31-1.963a2.194,2.194,0,0,1,.745.333c1.92,1.729,3.815,3.487,5.748,5.264l-1.168,2.055a12.707,12.707,0,0,0-1.866-2.358,7.829,7.829,0,0,0-2.969-1.5c-1.05-.234-2.114-.173-2.8-1.831" transform="translate(-171.889 -220.479)" fill="#2a3454"/>
        <path id="パス_6033" data-name="パス 6033" d="M423,640.977v-11.56c.7,3.083,3.751,5.426,2.581,9.314L423,640.977" transform="translate(-323.912 -481.97)" fill="#2a3454"/>
        <path id="パス_6034" data-name="パス 6034" d="M459.044,628.109V639.29c-2.91-1.186-3.627-3-2.394-5.858.713-1.651,1.473-3.282,2.394-5.324" transform="translate(-349.233 -480.968)" fill="#2a3454"/>
        <path id="パス_6035" data-name="パス 6035" d="M325.141,495.032A35.369,35.369,0,0,1,320.8,498.2c-2.333,1.181-4.071-.17-4.206-3.167Z" transform="translate(-242.428 -379.066)" fill="#2a3454"/>
        <path id="パス_6036" data-name="パス 6036" d="M424.976,203.285q.519-4.145,1.04-8.3c2.841-.036,3.674,1.45,2.255,4.294-.759,1.524-1.76,2.927-2.652,4.385l-.643-.381" transform="translate(-325.421 -149.309)" fill="#2a3454"/>
        <path id="パス_6037" data-name="パス 6037" d="M452.917,194.1c.366,3.047.7,5.808,1.03,8.569-2.168-1.512-2.995-3.705-3.775-5.81-.651-1.757.169-2.444,2.745-2.759" transform="translate(-344.552 -148.627)" fill="#2a3454"/>
        <path id="パス_6038" data-name="パス 6038" d="M547.915,482.239c2.176,0,3.5.1,4.8-.03a38.945,38.945,0,0,0,4-.849c-.3,1.787-.844,2.954-2.361,3.512-.317.117-.672.331-.964.273a10.081,10.081,0,0,1-2.6-.742,23.734,23.734,0,0,1-2.884-2.165" transform="translate(-419.56 -368.598)" fill="#2a3454"/>
        <path id="パス_6039" data-name="パス 6039" d="M538.677,485.966c2.863.607,3.832,4.36,7.531,3.3-1.527,2.727-1.516,2.613-3.356,1.936-2.462-.906-3.094-3.192-4.174-5.232" transform="translate(-412.486 -372.124)" fill="#2a3454"/>
        <path id="パス_6040" data-name="パス 6040" d="M402.291,431.078V432.8c-2.839.9-5.275-1.022-7.955-.905l4.7-2.409,3.253,1.591" transform="translate(-301.959 -328.876)" fill="#2a3454"/>
        <path id="パス_6041" data-name="パス 6041" d="M560.575,352.116c1.374-1.261,2.185-2.115,3.11-2.823a6.271,6.271,0,0,1,2.6-1.479c.708-.1,1.537.663,2.509,1.139-.369.507-.553,1.046-.9,1.188-1.745.715-3.525,1.352-5.312,1.956a8.837,8.837,0,0,1-2,.019" transform="translate(-429.255 -266.328)" fill="#2a3454"/>
        <path id="パス_6042" data-name="パス 6042" d="M472.823,259.28v-6.751l1.652-1.737,1.876.959-3.528,7.529" transform="translate(-362.059 -192.042)" fill="#2a3454"/>
        <path id="パス_6043" data-name="パス 6043" d="M453.237,421.881a8.971,8.971,0,0,1,5.547,4.059c-1.891,1.1-3.286.177-4.615-.557-1.365-.754-.637-2.076-.932-3.5" transform="translate(-347.062 -323.051)" fill="#2a3454"/>
        <path id="パス_6044" data-name="パス 6044" d="M404.088,250.744l1.671,1.671v6.135c-1.041-2.291-1.623-4.775-4.021-6.495l2.35-1.312" transform="translate(-307.627 -192.005)" fill="#2a3454"/>
        <path id="パス_6045" data-name="パス 6045" d="M447.719,169.408v-6.526c2.269,1.157,2.139,3.487,2.732,5.225.321.941-1.185,1.559-2.732,1.3" transform="translate(-342.836 -124.725)" fill="#2a3454"/>
        <path id="パス_6046" data-name="パス 6046" d="M435.233,162.894v7.062l-2.663-1.707,2.025-5.576.638.222" transform="translate(-331.236 -124.565)" fill="#2a3454"/>
        <path id="パス_6047" data-name="パス 6047" d="M679.364,442.037c.9,1.5-.348,2.734-.869,4.444l-4.484-1.206,5.353-3.238" transform="translate(-516.117 -338.485)" fill="#2a3454"/>
        <path id="パス_6048" data-name="パス 6048" d="M467.22,443.352c.229,3.51-1.169,5.216-4.016,5.183-.665-3.3,2.915-3.06,4.016-5.183" transform="translate(-354.631 -339.492)" fill="#2a3454"/>
        <path id="パス_6049" data-name="パス 6049" d="M190.707,410.754l3.668,4.346c-.633,1.26-1.558,1.711-2.642,1.212a1.878,1.878,0,0,1-1.051-2.087,31.155,31.155,0,0,0,.026-3.471" transform="translate(-145.994 -314.531)" fill="#2a3454"/>
        <path id="パス_6050" data-name="パス 6050" d="M406.908,448.114c-1.223.913-1.64,2.114-3.085,2.09a5.016,5.016,0,0,1-4.009-2.09Z" transform="translate(-306.153 -343.139)" fill="#2a3454"/>
        <path id="パス_6051" data-name="パス 6051" d="M350.82,400.088c.845.206,1.719.149,2.071.55,1.945,2.218,1.9,2.256,4.1.289L357.91,402c-2.169,2.352-2.66,2.44-6.174,1.055l-.916-2.964" transform="translate(-268.637 -306.363)" fill="#2a3454"/>
        <path id="パス_6052" data-name="パス 6052" d="M510.457,402.952l.905-.906c.169.116.39.245.586.4,1.777,1.452,2.241,1.4,3.538-.425.521-.733.521-.733,2.4-.44-.809,1.136-.759,2.97-2.263,3.22-1.908.317-4.11.59-5.167-1.854" transform="translate(-390.877 -307.37)" fill="#2a3454"/>
      </g>
    </g>
    <rect id="長方形_23932" data-name="長方形 23932" width="1120" height="209" transform="translate(224 323)" fill="none"/>
  </g>
</svg>
