<svg xmlns="http://www.w3.org/2000/svg" xmlns:xlink="http://www.w3.org/1999/xlink" width="1177.408" height="110.863" viewBox="0 0 1177.408 110.863">
  <defs>
    <clipPath id="clip-path">
      <rect id="長方形_23252" data-name="長方形 23252" width="1177.408" height="110.863" fill="#fff"/>
    </clipPath>
  </defs>
  <g id="グループ_7604" data-name="グループ 7604" opacity="0.314">
    <g id="グループ_7597" data-name="グループ 7597" transform="translate(0 0)" clip-path="url(#clip-path)">
      <path id="パス_5805" data-name="パス 5805" d="M0,74.621a35.908,35.908,0,0,0,6.569-1.039,6.929,6.929,0,0,0,3.632-2.19,7.956,7.956,0,0,0,1.554-3.971,48.385,48.385,0,0,0,.345-6.394V18.152a26.787,26.787,0,0,0-.519-5.472A10.657,10.657,0,0,0,9.734,8.418,8.535,8.535,0,0,0,6.049,5.646,17.6,17.6,0,0,0,0,4.554V2.019q10.6,0,21.318-.345T42.869,1.33a32.612,32.612,0,0,1,9.161,1.321A27,27,0,0,1,60.27,6.627a21.484,21.484,0,0,1,6,6.569,17.658,17.658,0,0,1,2.3,9.108A13.963,13.963,0,0,1,65,31.868a20.07,20.07,0,0,1-8.53,5.758v.233a23.912,23.912,0,0,1,6.744,2.481,24.406,24.406,0,0,1,5.816,4.374,20.657,20.657,0,0,1,4.034,5.879,16.936,16.936,0,0,1,1.5,7.088,20.032,20.032,0,0,1-2.136,9.681,16.6,16.6,0,0,1-5.938,6.277,26.682,26.682,0,0,1-8.923,3.4,55.947,55.947,0,0,1-11.123,1.039q-3.692,0-10.312-.573t-17.58-.578c-2.384,0-4.471.019-6.282.058s-3.418.073-4.84.112-2.724.078-3.913.121-2.364.092-3.515.17ZM27.542,36.13a32.467,32.467,0,0,0,4.2,1.155,25.51,25.51,0,0,0,5.01.461,16.119,16.119,0,0,0,6.4-1.209,13.791,13.791,0,0,0,4.782-3.345,14.621,14.621,0,0,0,3-5.015,17.836,17.836,0,0,0,1.039-6.108q0-8.3-4.607-12.215T34.8,5.937q-1.842,0-3.568.112t-3.69.233Zm0,34.917a25.343,25.343,0,0,0,5.646,1.845,29.59,29.59,0,0,0,5.879.578q8.062,0,13.133-4.326t5.073-12.613a18.461,18.461,0,0,0-2.248-8.821,23.611,23.611,0,0,0-5.7-7.088,40.129,40.129,0,0,1-9.792,1.272,48.994,48.994,0,0,1-6.86-.4,22.241,22.241,0,0,1-5.127-1.325Z" transform="translate(0 5.127)" fill="#fff"/>
      <path id="パス_5806" data-name="パス 5806" d="M46.617,19.858q0-7.836-5.535-7.836a6.407,6.407,0,0,0-3.17.689A4.853,4.853,0,0,0,36.067,14.5a7.317,7.317,0,0,0-.864,2.471,15.968,15.968,0,0,0-.223,2.651c0,.767.015,1.4.053,1.9a12.23,12.23,0,0,0,.17,1.325q-4.26-.925-7.948-1.728t-7.491-1.379a12.079,12.079,0,0,1,2.3-6.049,12.8,12.8,0,0,1,4.554-3.69,20.947,20.947,0,0,1,5.938-1.845,40,40,0,0,1,6.336-.519,45.536,45.536,0,0,1,7.491.631,23.419,23.419,0,0,1,6.855,2.194,14.312,14.312,0,0,1,5.015,4.146,10.5,10.5,0,0,1,1.961,6.511c0,1.384-.044,2.918-.121,4.612s-.131,3.36-.17,5.01-.1,3.224-.175,4.724-.112,2.748-.112,3.743a11.235,11.235,0,0,0,.922,4.617q.918,2.068,3.918,2.068a6.184,6.184,0,0,0,3.51-1.034A23.566,23.566,0,0,0,70.93,42.56l1.845,2.078a38.271,38.271,0,0,0-3.054,2.879,44.664,44.664,0,0,1-3.457,3.224,24.2,24.2,0,0,1-3.748,2.6,8.171,8.171,0,0,1-4.034,1.092,9.311,9.311,0,0,1-5.646-2.078,43.582,43.582,0,0,1-4.724-4.03A48.38,48.38,0,0,1,39.125,52.7a28.344,28.344,0,0,1-9.792,1.728,14.682,14.682,0,0,1-4.787-.806,14.087,14.087,0,0,1-4.2-2.248,11.269,11.269,0,0,1-2.942-3.4,8.391,8.391,0,0,1-1.092-4.146q0-5.535,3-8.588a18.936,18.936,0,0,1,7.549-4.607,37.844,37.844,0,0,1,9.851-1.9q5.3-.35,9.914-.345ZM31.056,39.909A7.42,7.42,0,0,0,33.134,45.5a7.876,7.876,0,0,0,5.758,2.02,12.534,12.534,0,0,0,4.093-.689,10.265,10.265,0,0,0,3.632-2.19c-.083-1.078-.136-2.078-.175-3s-.058-1.879-.058-2.879c0-1.078.019-2.112.058-3.112s.092-2.034.175-3.112c-1.083-.155-2.1-.267-3.059-.345s-1.976-.117-3.054-.117a11.576,11.576,0,0,0-6.452,1.961,6.559,6.559,0,0,0-3,5.875" transform="translate(62.863 29.464)" fill="#fff"/>
      <path id="パス_5807" data-name="パス 5807" d="M27.368,24.3V21.645a16.708,16.708,0,0,0,6.622-1.728,19.469,19.469,0,0,0,5.19-3.806,27.185,27.185,0,0,0,3.976-5.243,47.312,47.312,0,0,0,3-6.049h2.306V20.373h15.9V24.3h-15.9v24.43q0,5.076,1.554,7.025c1.039,1.311,2.86,1.966,5.476,1.966a8.893,8.893,0,0,0,4.433-1.384,21.4,21.4,0,0,0,4.326-3.345l2.418,2.651c-1.156,1-2.457,2.078-3.918,3.229a39.394,39.394,0,0,1-4.67,3.165A31.23,31.23,0,0,1,53.124,64.4a13.626,13.626,0,0,1-4.782.922q-5.993,0-9.39-2.937t-3.4-8.817V24.3Z" transform="translate(105.503 18.573)" fill="#fff"/>
      <path id="パス_5808" data-name="パス 5808" d="M35.248,24.3V21.645a16.71,16.71,0,0,0,6.627-1.728,19.547,19.547,0,0,0,5.19-3.806,27.165,27.165,0,0,0,3.971-5.243,46.679,46.679,0,0,0,3-6.049h2.306V20.373h15.9V24.3h-15.9v24.43q0,5.076,1.558,7.025,1.551,1.966,5.472,1.966a8.9,8.9,0,0,0,4.437-1.384,21.239,21.239,0,0,0,4.321-3.345l2.423,2.651q-1.733,1.5-3.923,3.229a39.731,39.731,0,0,1-4.666,3.165A31.636,31.636,0,0,1,61.008,64.4a13.672,13.672,0,0,1-4.787.922q-5.993,0-9.39-2.937t-3.4-8.817V24.3Z" transform="translate(135.88 18.573)" fill="#fff"/>
      <path id="パス_5809" data-name="パス 5809" d="M65,73.407q0,4.144,2.534,5.476A12.491,12.491,0,0,0,73.41,80.2V82.51c-1-.078-2-.131-3-.17s-2.073-.083-3.224-.121-2.462-.073-3.918-.112-3.19-.058-5.19-.058q-5.644,0-8.982.117c-2.233.073-4.229.194-6,.345V80.2a12.265,12.265,0,0,0,5.763-1.321C50.553,78,51.4,76.17,51.4,73.407V11.987c0-2.69-.636-4.559-1.9-5.593S46.178,4.84,43.333,4.84V2.529q5.993-.226,11.7-.806A62.957,62.957,0,0,0,65,0Z" transform="translate(166.169 0)" fill="#fff"/>
      <path id="パス_5810" data-name="パス 5810" d="M64,30.922A17.424,17.424,0,0,0,68.1,42.85q4.093,4.668,11.579,4.67a19.16,19.16,0,0,0,7.894-1.728,17.628,17.628,0,0,0,6.515-4.957l2.762,3A31.6,31.6,0,0,1,86.36,51.672,29.7,29.7,0,0,1,73.8,54.434a28.893,28.893,0,0,1-10.142-1.675,22.441,22.441,0,0,1-7.724-4.719,20.433,20.433,0,0,1-4.952-7.38,25.623,25.623,0,0,1-1.728-9.618,25.674,25.674,0,0,1,1.728-9.627,20.5,20.5,0,0,1,4.952-7.375,22.6,22.6,0,0,1,7.724-4.724A29,29,0,0,1,73.8,7.642a24.685,24.685,0,0,1,9.739,1.791,20.671,20.671,0,0,1,7.142,4.952,22.6,22.6,0,0,1,4.554,7.433,35.068,35.068,0,0,1,2.073,9.1ZM78.64,26.547a5.826,5.826,0,0,0,3.112-.578c.534-.384.806-1.267.806-2.651a14.57,14.57,0,0,0-2.073-8.185q-2.076-3.1-7.146-3.107A6.808,6.808,0,0,0,68.9,13.468,10.788,10.788,0,0,0,66.017,17.1a17.667,17.667,0,0,0-1.554,4.719A26.71,26.71,0,0,0,64,26.547Z" transform="translate(189.869 29.46)" fill="#fff"/>
      <path id="パス_5811" data-name="パス 5811" d="M93.383,7.643A32.464,32.464,0,0,1,103.4,9.2a26.485,26.485,0,0,1,8.588,4.554,23.049,23.049,0,0,1,6.049,7.37,20.941,20.941,0,0,1,2.306,9.914,20.921,20.921,0,0,1-2.306,9.909,23.034,23.034,0,0,1-6.049,7.38,26.662,26.662,0,0,1-8.588,4.549,33.011,33.011,0,0,1-20.046,0,26.762,26.762,0,0,1-8.588-4.549,23.035,23.035,0,0,1-6.049-7.38,20.979,20.979,0,0,1-2.306-9.909,21,21,0,0,1,2.306-9.914,23.05,23.05,0,0,1,6.049-7.37A26.584,26.584,0,0,1,83.358,9.2,32.518,32.518,0,0,1,93.383,7.643M81.858,28.85A38.027,38.027,0,0,0,82.9,38.3a20.8,20.8,0,0,0,2.821,6.632,12.075,12.075,0,0,0,4.093,3.855,9.69,9.69,0,0,0,4.724,1.267,8.622,8.622,0,0,0,7.608-4.263q2.767-4.26,2.762-12.565a38.357,38.357,0,0,0-1.034-9.448,20.645,20.645,0,0,0-2.826-6.622,12.108,12.108,0,0,0-4.093-3.865,9.672,9.672,0,0,0-4.719-1.267,8.634,8.634,0,0,0-7.613,4.263q-2.76,4.268-2.762,12.565" transform="translate(256.024 29.464)" fill="#fff"/>
      <path id="パス_5812" data-name="パス 5812" d="M101.776,42.408V70.989a11.529,11.529,0,0,0,.515,3.627,5.5,5.5,0,0,0,1.961,2.651,12.4,12.4,0,0,0,3.976,1.845,34.61,34.61,0,0,0,6.685,1.092V82.51q-4.617-.226-9.108-.35t-9.1-.112q-4.61,0-9.1.112t-9.1.35V80.2a19.306,19.306,0,0,0,5.53-.636,6.823,6.823,0,0,0,3.17-1.84,5.712,5.712,0,0,0,1.384-2.937,24.349,24.349,0,0,0,.286-3.923V42.408H81.953l.918-3.462h6V26.275a32.8,32.8,0,0,1,1.442-9.681,27.066,27.066,0,0,1,4.2-8.419,21.189,21.189,0,0,1,6.86-5.928A18.915,18.915,0,0,1,110.646,0Q117.564,0,122,2.874a9.425,9.425,0,0,1,4.437,8.419,5.343,5.343,0,0,1-1.67,4.374,6.7,6.7,0,0,1-4.437,1.384,10.9,10.9,0,0,1-2.651-.286,16.956,16.956,0,0,1-2.3-.753c-.083-4.452-.461-7.661-1.156-9.618s-2.262-2.937-4.724-2.937a5.639,5.639,0,0,0-3.515,1.092,8.508,8.508,0,0,0-2.36,2.821,14.5,14.5,0,0,0-1.384,3.923,20.436,20.436,0,0,0-.461,4.263V38.947h14.749v3.462Z" transform="translate(302.6 0)" fill="#fff"/>
      <path id="パス_5813" data-name="パス 5813" d="M105.531,15.618a16.329,16.329,0,0,0-.573-4.379A8.986,8.986,0,0,0,103,7.612a10.234,10.234,0,0,0-3.69-2.539,14.773,14.773,0,0,0-5.768-.981V1.33q9.569.685,18.905.689,5.185,0,10.424-.233t10.433-.456V4.092a15.872,15.872,0,0,0-6.049.981,10.111,10.111,0,0,0-3.748,2.539,8.987,8.987,0,0,0-1.957,3.627,16.332,16.332,0,0,0-.578,4.379V38.9q.925-.692,3.282-2.709t5.36-4.724q3-2.709,6.282-5.763t5.991-5.991a59.628,59.628,0,0,0,4.5-5.418,7.637,7.637,0,0,0,1.787-3.976,4.079,4.079,0,0,0-.806-2.481,8.039,8.039,0,0,0-2.02-1.9,11.069,11.069,0,0,0-2.593-1.267,12.247,12.247,0,0,0-2.529-.578V1.33a77.645,77.645,0,0,0,8.987.631q4.493.058,9.1.058,4.836,0,9.336-.117t9.331-.573V4.092a31.4,31.4,0,0,0-10.89,3.287,60.492,60.492,0,0,0-9.506,6.108q-4.5,3.517-8.7,7.491T139.3,28.411l23.624,33.878q1.842,2.658,3.632,4.787a22.941,22.941,0,0,0,3.86,3.685A19.246,19.246,0,0,0,175.02,73.3a23.056,23.056,0,0,0,6,1.325v2.767q-5.185-.233-10.433-.35t-10.424-.112q-5.192,0-10.259.112t-10.259.35V75.082c.617-.15,1.461-.345,2.539-.573a16.2,16.2,0,0,0,3.165-1.039,11.021,11.021,0,0,0,2.709-1.675,3.094,3.094,0,0,0,1.155-2.471,8.93,8.93,0,0,0-1.325-3.175q-1.325-2.359-3.4-5.525t-4.549-6.8q-2.483-3.634-4.84-6.918t-4.2-5.816c-1.233-1.694-2.117-2.918-2.651-3.69l-7.263,5.763V62.867a31.219,31.219,0,0,0,.345,4.9,7.258,7.258,0,0,0,1.554,3.573,7.84,7.84,0,0,0,3.632,2.243,25.681,25.681,0,0,0,6.574,1.039v2.767q-5.309-.233-10.487-.35t-10.375-.112q-4.726,0-9.336.112t-9.336.35V74.621a24.878,24.878,0,0,0,6.515-1.039,7.794,7.794,0,0,0,3.568-2.243,7.22,7.22,0,0,0,1.558-3.573,30.644,30.644,0,0,0,.345-4.9Z" transform="translate(360.609 5.127)" fill="#fff"/>
      <path id="パス_5814" data-name="パス 5814" d="M141.415,19.858q0-7.836-5.53-7.836a6.407,6.407,0,0,0-3.17.689A4.852,4.852,0,0,0,130.87,14.5a7.316,7.316,0,0,0-.864,2.471,15.987,15.987,0,0,0-.228,2.651c0,.767.019,1.4.053,1.9a12.121,12.121,0,0,0,.175,1.325q-4.26-.925-7.948-1.728t-7.491-1.379a12.035,12.035,0,0,1,2.3-6.049,12.8,12.8,0,0,1,4.554-3.69,20.947,20.947,0,0,1,5.938-1.845,39.958,39.958,0,0,1,6.336-.519,45.536,45.536,0,0,1,7.491.631,23.513,23.513,0,0,1,6.855,2.194,14.354,14.354,0,0,1,5.015,4.146,10.5,10.5,0,0,1,1.957,6.511c0,1.384-.039,2.918-.117,4.612s-.131,3.36-.17,5.01-.1,3.224-.175,4.724-.112,2.748-.112,3.743a11.234,11.234,0,0,0,.918,4.617q.925,2.068,3.923,2.068a6.2,6.2,0,0,0,3.51-1.034,23.922,23.922,0,0,0,2.942-2.306l1.845,2.078a36.687,36.687,0,0,0-3.054,2.879,44.672,44.672,0,0,1-3.457,3.224,24.2,24.2,0,0,1-3.748,2.6,8.17,8.17,0,0,1-4.035,1.092,9.311,9.311,0,0,1-5.646-2.078,43.578,43.578,0,0,1-4.724-4.03,48.277,48.277,0,0,1-8.991,4.379,28.3,28.3,0,0,1-9.792,1.728,14.654,14.654,0,0,1-4.782-.806,14.114,14.114,0,0,1-4.209-2.248,11.252,11.252,0,0,1-2.937-3.4,8.34,8.34,0,0,1-1.092-4.146q0-5.535,3-8.588a18.9,18.9,0,0,1,7.549-4.607,37.805,37.805,0,0,1,9.851-1.9q5.3-.35,9.909-.345ZM125.859,39.909a7.436,7.436,0,0,0,2.073,5.588,7.9,7.9,0,0,0,5.763,2.02,12.556,12.556,0,0,0,4.093-.689,10.2,10.2,0,0,0,3.627-2.19c-.078-1.078-.131-2.078-.17-3s-.058-1.879-.058-2.879c0-1.078.015-2.112.058-3.112s.092-2.034.17-3.112c-1.078-.155-2.092-.267-3.054-.345s-1.976-.117-3.054-.117a11.576,11.576,0,0,0-6.452,1.961,6.549,6.549,0,0,0-3,5.875" transform="translate(428.326 29.464)" fill="#fff"/>
      <path id="パス_5815" data-name="パス 5815" d="M120.724,7.928q4.144.233,8.234.345c2.733.078,5.476.117,8.244.117q3.576,0,7.03-.117t7.03-.345v2.306a15.18,15.18,0,0,0-2.131.4,8.524,8.524,0,0,0-2.015.806,4.888,4.888,0,0,0-1.558,1.384,3.479,3.479,0,0,0-.636,2.131,16.906,16.906,0,0,0,1.267,4.554q1.267,3.4,2.826,7.316t3.112,7.491q1.558,3.576,2.015,4.952L164.283,18.3a24.9,24.9,0,0,0-3.627-5.243,7.952,7.952,0,0,0-5.593-2.6V7.928q3.685.233,7.316.345t7.321.117c2.228,0,4.452-.039,6.685-.117s4.452-.189,6.68-.345v2.306a20.209,20.209,0,0,0-2.131.117,5.681,5.681,0,0,0-2.073.631,4.145,4.145,0,0,0-1.558,1.384,4.209,4.209,0,0,0-.573,2.36,14.834,14.834,0,0,0,1.034,4.437q1.041,2.942,2.534,6.457t3.054,7.2q1.559,3.692,2.6,6.685c.617-1.151,1.457-2.821,2.534-5.01s2.146-4.457,3.224-6.8,2-4.569,2.767-6.685a15.473,15.473,0,0,0,1.156-4.67,5.357,5.357,0,0,0-2.015-4.316,7.655,7.655,0,0,0-4.671-1.787V7.928c1.767.155,3.53.272,5.3.345s3.53.117,5.3.117,3.534-.039,5.3-.117,3.539-.189,5.307-.345v2.306a14.805,14.805,0,0,0-3.287.981,8.921,8.921,0,0,0-2.937,2.3,31.177,31.177,0,0,0-3.229,4.5q-1.733,2.826-4.03,7.491-2.316,4.668-5.3,11.409T184.222,53.1h-5.651L166.128,22.677,151.606,53.1h-5.073q-5.527-14.062-8.987-22.3a97.1,97.1,0,0,0-6.108-12.56q-2.651-4.326-5.069-5.821a17.727,17.727,0,0,0-5.646-2.19Z" transform="translate(465.388 30.562)" fill="#fff"/>
      <path id="パス_5816" data-name="パス 5816" d="M168.523,19.858q0-7.836-5.53-7.836a6.407,6.407,0,0,0-3.17.689,4.853,4.853,0,0,0-1.845,1.791,7.317,7.317,0,0,0-.864,2.471,15.994,15.994,0,0,0-.228,2.651c0,.767.019,1.4.053,1.9a12.151,12.151,0,0,0,.175,1.325q-4.26-.925-7.948-1.728t-7.491-1.379a12.035,12.035,0,0,1,2.3-6.049,12.8,12.8,0,0,1,4.554-3.69,20.948,20.948,0,0,1,5.938-1.845,39.958,39.958,0,0,1,6.336-.519,45.535,45.535,0,0,1,7.491.631,23.512,23.512,0,0,1,6.855,2.194,14.354,14.354,0,0,1,5.015,4.146,10.5,10.5,0,0,1,1.957,6.511c0,1.384-.039,2.918-.117,4.612s-.131,3.36-.17,5.01-.1,3.224-.175,4.724-.112,2.748-.112,3.743a11.235,11.235,0,0,0,.918,4.617q.925,2.068,3.923,2.068a6.2,6.2,0,0,0,3.51-1.034,23.928,23.928,0,0,0,2.942-2.306l1.845,2.078a36.682,36.682,0,0,0-3.054,2.879,44.666,44.666,0,0,1-3.457,3.224,24.2,24.2,0,0,1-3.748,2.6,8.17,8.17,0,0,1-4.034,1.092,9.311,9.311,0,0,1-5.646-2.078,43.579,43.579,0,0,1-4.724-4.03,48.273,48.273,0,0,1-8.991,4.379,28.305,28.305,0,0,1-9.793,1.728,14.654,14.654,0,0,1-4.782-.806,14.113,14.113,0,0,1-4.209-2.248,11.251,11.251,0,0,1-2.937-3.4,8.34,8.34,0,0,1-1.092-4.146q0-5.535,3-8.588a18.9,18.9,0,0,1,7.549-4.607,37.8,37.8,0,0,1,9.851-1.9q5.3-.35,9.909-.345ZM152.967,39.909A7.436,7.436,0,0,0,155.04,45.5a7.9,7.9,0,0,0,5.763,2.02,12.555,12.555,0,0,0,4.093-.689,10.2,10.2,0,0,0,3.627-2.19c-.078-1.078-.131-2.078-.17-3s-.058-1.879-.058-2.879c0-1.078.015-2.112.058-3.112s.092-2.034.17-3.112c-1.078-.155-2.093-.267-3.054-.345s-1.976-.117-3.054-.117a11.576,11.576,0,0,0-6.452,1.961,6.549,6.549,0,0,0-3,5.875" transform="translate(532.827 29.464)" fill="#fff"/>
      <path id="パス_5817" data-name="パス 5817" d="M171.039,15.022a37.675,37.675,0,0,1,8.069-5.413,20.509,20.509,0,0,1,9.1-1.966q7.028,0,11.118,3.981t4.093,10.657V43.947a7.368,7.368,0,0,0,.689,3.4,5.579,5.579,0,0,0,1.792,2.078,6.8,6.8,0,0,0,2.418,1.034,12.55,12.55,0,0,0,2.709.286v2.306c-1.617-.078-3.442-.17-5.476-.291s-5.054-.17-9.045-.17q-5.644,0-8.875.117c-2.151.073-3.879.194-5.185.345V50.744a12.048,12.048,0,0,0,2.593-.286,6.3,6.3,0,0,0,2.364-1.034,5.857,5.857,0,0,0,1.728-2.078,7.368,7.368,0,0,0,.689-3.4V22.513a6.654,6.654,0,0,0-2.534-5.413,10.034,10.034,0,0,0-6.569-2.078,11.353,11.353,0,0,0-5.243,1.267,17.575,17.575,0,0,0-4.437,3.229v24.43a7.3,7.3,0,0,0,.694,3.4,5.524,5.524,0,0,0,1.787,2.078,6.8,6.8,0,0,0,2.418,1.034,12.013,12.013,0,0,0,2.593.286v2.306c-.767-.078-1.573-.131-2.418-.17s-1.83-.083-2.942-.121-2.4-.073-3.855-.112-3.195-.058-5.19-.058q-5.644,0-8.933.117c-2.19.073-4.088.194-5.7.345V50.744a14.806,14.806,0,0,0,2.937-.286,6.8,6.8,0,0,0,2.529-1.034,5.578,5.578,0,0,0,1.792-2.078,7.368,7.368,0,0,0,.689-3.4V17.556q0-5.76-7.6-5.763V9.487c3.758-.151,7.53-.32,11.293-.515a53.429,53.429,0,0,0,9.909-1.33Z" transform="translate(576.291 29.46)" fill="#fff"/>
      <path id="パス_5818" data-name="パス 5818" d="M193.137,19.858q0-7.836-5.53-7.836a6.407,6.407,0,0,0-3.17.689,4.853,4.853,0,0,0-1.845,1.791,7.318,7.318,0,0,0-.864,2.471,15.987,15.987,0,0,0-.228,2.651c0,.767.019,1.4.053,1.9a12.121,12.121,0,0,0,.175,1.325q-4.26-.925-7.948-1.728t-7.491-1.379a12.035,12.035,0,0,1,2.3-6.049,12.8,12.8,0,0,1,4.554-3.69,20.947,20.947,0,0,1,5.938-1.845,39.958,39.958,0,0,1,6.336-.519,45.535,45.535,0,0,1,7.491.631,23.513,23.513,0,0,1,6.855,2.194,14.354,14.354,0,0,1,5.015,4.146,10.5,10.5,0,0,1,1.957,6.511c0,1.384-.039,2.918-.117,4.612s-.131,3.36-.17,5.01-.1,3.224-.175,4.724-.112,2.748-.112,3.743a11.234,11.234,0,0,0,.918,4.617Q208.005,45.9,211,45.9a6.2,6.2,0,0,0,3.51-1.034,23.919,23.919,0,0,0,2.942-2.306l1.845,2.078a36.7,36.7,0,0,0-3.054,2.879,44.644,44.644,0,0,1-3.457,3.224,24.193,24.193,0,0,1-3.748,2.6,8.171,8.171,0,0,1-4.035,1.092,9.311,9.311,0,0,1-5.646-2.078,43.578,43.578,0,0,1-4.724-4.03,48.276,48.276,0,0,1-8.991,4.379,28.3,28.3,0,0,1-9.793,1.728,14.654,14.654,0,0,1-4.782-.806,14.113,14.113,0,0,1-4.209-2.248,11.252,11.252,0,0,1-2.937-3.4,8.34,8.34,0,0,1-1.092-4.146q0-5.535,3-8.588a18.9,18.9,0,0,1,7.549-4.607,37.8,37.8,0,0,1,9.851-1.9q5.3-.35,9.909-.345ZM177.581,39.909a7.436,7.436,0,0,0,2.073,5.588,7.9,7.9,0,0,0,5.763,2.02,12.555,12.555,0,0,0,4.093-.689,10.2,10.2,0,0,0,3.627-2.19c-.078-1.078-.131-2.078-.17-3s-.058-1.879-.058-2.879c0-1.078.015-2.112.058-3.112s.092-2.034.17-3.112c-1.078-.155-2.092-.267-3.054-.345s-1.976-.117-3.054-.117a11.576,11.576,0,0,0-6.452,1.961,6.549,6.549,0,0,0-3,5.875" transform="translate(627.713 29.464)" fill="#fff"/>
      <path id="パス_5819" data-name="パス 5819" d="M195.745,60.964a35.194,35.194,0,0,1,4.379-3.4,61.258,61.258,0,0,0,5.127-3.86,34.66,34.66,0,0,0,4.326-4.268,6.946,6.946,0,0,0,1.84-4.5,3.057,3.057,0,0,0-1.558-3A13.283,13.283,0,0,0,206.8,40.8V38.49c2.311.155,4.593.272,6.86.345s4.554.117,6.865.117,4.583-.039,6.855-.117,4.549-.189,6.85-.345V40.8a21.451,21.451,0,0,0-6.108,1.384,36.781,36.781,0,0,0-5.933,2.937,62.873,62.873,0,0,0-5.7,3.918q-2.76,2.134-5.535,4.437,2.651,3.459,5.826,7.894a102.024,102.024,0,0,0,6.739,8.467,51.739,51.739,0,0,0,7.433,6.977,16,16,0,0,0,7.889,3.4v2.3c-2.69-.151-5.389-.267-8.122-.345s-5.438-.112-8.127-.112q-4.144,0-8.239.112c-2.729.078-5.428.194-8.118.345v-2.3A24.462,24.462,0,0,0,210.383,79a2.256,2.256,0,0,0,1.5-2.248,4.483,4.483,0,0,0-.461-1.9,15.883,15.883,0,0,0-1.151-2.02c-.461-.685-.961-1.359-1.5-2.015s-1.039-1.248-1.5-1.787l-5.991-7.6-5.535,3.685v8.3q0,4.151,2.529,5.476a12.526,12.526,0,0,0,5.879,1.325v2.3c-1-.073-2-.131-2.991-.17s-2.073-.078-3.233-.117-2.457-.078-3.913-.117-3.195-.053-5.19-.053q-5.637,0-8.987.112c-2.228.078-4.219.194-6,.345v-2.3a12.294,12.294,0,0,0,5.773-1.325q2.527-1.325,2.525-5.476V10.6a5.061,5.061,0,0,0-1.893-4.379c-1.267-.922-3.33-1.384-6.166-1.384V2.534q5.979-.226,11.691-.806A62.173,62.173,0,0,0,195.745,0Z" transform="translate(670.164 0)" fill="#fff"/>
      <path id="パス_5820" data-name="パス 5820" d="M217.752,19.858q0-7.836-5.53-7.836a6.407,6.407,0,0,0-3.17.689,4.853,4.853,0,0,0-1.845,1.791,7.314,7.314,0,0,0-.864,2.471,15.987,15.987,0,0,0-.228,2.651c0,.767.019,1.4.053,1.9a12.134,12.134,0,0,0,.175,1.325q-4.26-.925-7.948-1.728T190.9,19.746a12.034,12.034,0,0,1,2.3-6.049,12.8,12.8,0,0,1,4.554-3.69A20.947,20.947,0,0,1,203.7,8.162a39.956,39.956,0,0,1,6.336-.519,45.536,45.536,0,0,1,7.491.631,23.512,23.512,0,0,1,6.855,2.194,14.354,14.354,0,0,1,5.015,4.146,10.5,10.5,0,0,1,1.957,6.511c0,1.384-.039,2.918-.117,4.612s-.131,3.36-.17,5.01-.1,3.224-.175,4.724-.112,2.748-.112,3.743a11.234,11.234,0,0,0,.918,4.617q.925,2.068,3.923,2.068a6.2,6.2,0,0,0,3.51-1.034,23.92,23.92,0,0,0,2.942-2.306l1.845,2.078a36.672,36.672,0,0,0-3.054,2.879,44.688,44.688,0,0,1-3.457,3.224,24.2,24.2,0,0,1-3.748,2.6,8.17,8.17,0,0,1-4.034,1.092,9.311,9.311,0,0,1-5.646-2.078,43.582,43.582,0,0,1-4.724-4.03A48.274,48.274,0,0,1,210.26,52.7a28.3,28.3,0,0,1-9.792,1.728,14.653,14.653,0,0,1-4.782-.806,14.114,14.114,0,0,1-4.209-2.248,11.253,11.253,0,0,1-2.937-3.4,8.34,8.34,0,0,1-1.092-4.146q0-5.535,3-8.588a18.9,18.9,0,0,1,7.549-4.607,37.8,37.8,0,0,1,9.851-1.9q5.3-.35,9.909-.345ZM202.2,39.909A7.436,7.436,0,0,0,204.27,45.5a7.9,7.9,0,0,0,5.763,2.02,12.556,12.556,0,0,0,4.093-.689,10.2,10.2,0,0,0,3.627-2.19c-.078-1.078-.131-2.078-.17-3s-.058-1.879-.058-2.879c0-1.078.015-2.112.058-3.112s.092-2.034.17-3.112c-1.078-.155-2.092-.267-3.054-.345s-1.976-.117-3.054-.117a11.576,11.576,0,0,0-6.452,1.961,6.549,6.549,0,0,0-3,5.875" transform="translate(722.603 29.464)" fill="#fff"/>
      <path id="パス_5821" data-name="パス 5821" d="M204.788,35.1q5.644-.226,11.293-.806a62.938,62.938,0,0,0,9.914-1.724V74.521a21.983,21.983,0,0,1-1.787,8.987,28.836,28.836,0,0,1-5.3,7.836,60.8,60.8,0,0,1-8.7,7.608q-5.185,3.8-12.1,8.069l-.811-2.884a45.638,45.638,0,0,0,7.549-7.724,37.306,37.306,0,0,0,4.612-7.894,34.976,34.976,0,0,0,2.3-7.894,48.192,48.192,0,0,0,.636-7.715V45.478c0-3.146-.617-5.282-1.845-6.394s-3.151-1.675-5.763-1.675ZM218.5,1a8.684,8.684,0,0,1,6.282,2.529,8.529,8.529,0,0,1,2.588,6.341,8.514,8.514,0,0,1-2.588,6.341,9.054,9.054,0,0,1-12.565,0,8.5,8.5,0,0,1-2.593-6.341,8.515,8.515,0,0,1,2.593-6.341A8.677,8.677,0,0,1,218.5,1" transform="translate(760.574 3.843)" fill="#fff"/>
      <path id="パス_5822" data-name="パス 5822" d="M226.481,69.564q0,4.144,2.534,5.476a12.491,12.491,0,0,0,5.874,1.321v2.306c-1-.078-2-.131-3-.17s-2.073-.083-3.224-.121-2.461-.073-3.918-.112-3.19-.058-5.19-.058q-5.644,0-8.987.117c-2.228.073-4.229.194-5.991.345V76.361a12.265,12.265,0,0,0,5.763-1.321c1.685-.888,2.534-2.714,2.534-5.476V43.177a5,5,0,0,0-1.961-4.384c-1.306-.918-3.418-1.384-6.336-1.384V35.1q6.226-.226,11.982-.806a69.377,69.377,0,0,0,10.259-1.724q-.117,2.877-.233,5.646c-.073,1.845-.112,3.646-.112,5.413ZM218.99,1a8.684,8.684,0,0,1,6.282,2.529,8.528,8.528,0,0,1,2.588,6.341,8.513,8.513,0,0,1-2.588,6.341,9.054,9.054,0,0,1-12.565,0,8.518,8.518,0,0,1-2.593-6.341,8.533,8.533,0,0,1,2.593-6.341A8.677,8.677,0,0,1,218.99,1" transform="translate(788.669 3.843)" fill="#fff"/>
      <path id="パス_5823" data-name="パス 5823" d="M232.714,14.906a34.961,34.961,0,0,1,7.554-5.132,18.98,18.98,0,0,1,8.7-2.131,21.617,21.617,0,0,1,8.3,1.442q3.452,1.442,5.53,6.166,2.185-1.726,4.088-3.17a22.954,22.954,0,0,1,3.976-2.418,21.131,21.131,0,0,1,4.384-1.5,23.71,23.71,0,0,1,5.18-.519,15.468,15.468,0,0,1,6.918,1.384,12.236,12.236,0,0,1,4.437,3.632,14.853,14.853,0,0,1,2.418,5.01,21.072,21.072,0,0,1,.748,5.535v20.74a7.324,7.324,0,0,0,.694,3.4,5.55,5.55,0,0,0,1.787,2.073,6.749,6.749,0,0,0,2.418,1.034,12.058,12.058,0,0,0,2.593.291v2.3c-.767-.073-1.573-.131-2.418-.17s-1.83-.078-2.937-.117-2.4-.078-3.865-.117-3.185-.053-5.18-.053q-5.651,0-8.763.112t-4.724.345v-2.3a9.624,9.624,0,0,0,2.248-.291,5.725,5.725,0,0,0,2.189-1.034,6.145,6.145,0,0,0,1.67-2.073,7.326,7.326,0,0,0,.694-3.4V24.47q0-4.836-2.364-7.035a9.248,9.248,0,0,0-6.515-2.185,11.51,11.51,0,0,0-4.491.922A18.985,18.985,0,0,0,263.83,18.6V43.944a7.325,7.325,0,0,0,.694,3.4,6.088,6.088,0,0,0,1.67,2.073,5.724,5.724,0,0,0,2.131,1.034,8.947,8.947,0,0,0,2.19.291v2.3q-1.726-.226-4.666-.345t-8.933-.112q-5.644,0-8.817.112c-2.112.078-3.748.194-4.9.345v-2.3a10.094,10.094,0,0,0,2.364-.291,6.227,6.227,0,0,0,2.248-1.034,5.792,5.792,0,0,0,1.728-2.073,7.329,7.329,0,0,0,.689-3.4V23.431a8.793,8.793,0,0,0-2.068-5.588,7.244,7.244,0,0,0-6-2.593,10.871,10.871,0,0,0-5.073,1.325,19.813,19.813,0,0,0-4.379,3.054V43.944a7.325,7.325,0,0,0,.694,3.4,6.143,6.143,0,0,0,1.67,2.073,5.723,5.723,0,0,0,2.131,1.034,8.56,8.56,0,0,0,2.078.291v2.3q-1.617-.226-4.554-.345c-1.957-.073-4.943-.112-8.933-.112q-5.644,0-8.875.112t-5.53.345v-2.3a13.4,13.4,0,0,0,2.767-.291,6.7,6.7,0,0,0,2.476-1.034,5.551,5.551,0,0,0,1.787-2.073,7.327,7.327,0,0,0,.689-3.4V17.557q0-5.76-7.6-5.768v-2.3q5.644-.226,11.293-.519a53.812,53.812,0,0,0,9.909-1.325Z" transform="translate(814.926 29.464)" fill="#fff"/>
      <path id="パス_5824" data-name="パス 5824" d="M261.19,19.858q0-7.836-5.53-7.836a6.407,6.407,0,0,0-3.17.689,4.852,4.852,0,0,0-1.845,1.791,7.317,7.317,0,0,0-.864,2.471,15.994,15.994,0,0,0-.228,2.651c0,.767.019,1.4.053,1.9a12.165,12.165,0,0,0,.175,1.325q-4.26-.925-7.948-1.728t-7.491-1.379a12.034,12.034,0,0,1,2.3-6.049,12.8,12.8,0,0,1,4.554-3.69,20.946,20.946,0,0,1,5.938-1.845,39.958,39.958,0,0,1,6.336-.519,45.536,45.536,0,0,1,7.491.631,23.511,23.511,0,0,1,6.855,2.194,14.354,14.354,0,0,1,5.015,4.146,10.5,10.5,0,0,1,1.957,6.511c0,1.384-.039,2.918-.116,4.612s-.131,3.36-.17,5.01-.1,3.224-.175,4.724-.112,2.748-.112,3.743a11.234,11.234,0,0,0,.918,4.617q.925,2.068,3.923,2.068a6.2,6.2,0,0,0,3.51-1.034,23.934,23.934,0,0,0,2.942-2.306l1.845,2.078a36.672,36.672,0,0,0-3.054,2.879,44.666,44.666,0,0,1-3.457,3.224,24.2,24.2,0,0,1-3.748,2.6,8.17,8.17,0,0,1-4.034,1.092,9.311,9.311,0,0,1-5.646-2.078,43.572,43.572,0,0,1-4.724-4.03A48.278,48.278,0,0,1,253.7,52.7a28.3,28.3,0,0,1-9.793,1.728,14.653,14.653,0,0,1-4.782-.806,14.114,14.114,0,0,1-4.209-2.248,11.252,11.252,0,0,1-2.937-3.4,8.34,8.34,0,0,1-1.092-4.146q0-5.535,3-8.588a18.9,18.9,0,0,1,7.549-4.607,37.8,37.8,0,0,1,9.851-1.9q5.3-.35,9.909-.345ZM245.634,39.909a7.436,7.436,0,0,0,2.073,5.588,7.9,7.9,0,0,0,5.763,2.02,12.556,12.556,0,0,0,4.093-.689,10.2,10.2,0,0,0,3.627-2.19c-.078-1.078-.131-2.078-.17-3s-.058-1.879-.058-2.879c0-1.078.015-2.112.058-3.112s.092-2.034.17-3.112c-1.078-.155-2.093-.267-3.054-.345s-1.976-.117-3.054-.117a11.577,11.577,0,0,0-6.452,1.961,6.549,6.549,0,0,0-3,5.875" transform="translate(890.055 29.464)" fill="#fff"/>
    </g>
  </g>
</svg>
